<svg width="32" height="32" viewBox="0 0 32 32" fill="none" xmlns="http://www.w3.org/2000/svg">
<g id="board-presentation-svgrepo-com 1">
<g id="Group">
<g id="Group_2">
<path id="Vector" d="M30.9181 2.78828H1.08173V22.6317H12.1376L7.2788 31.2813L8.55815 32L11.3411 27.0457H20.4283L23.2113 32L24.4907 31.2813L19.6319 22.6317H30.9181V2.78828ZM19.6041 25.5783H12.1654L13.8207 22.6317H17.9489L19.6041 25.5783ZM29.4508 21.1643H2.54909V4.25565H29.4508V21.1643Z" fill="#DE4F4A"/>
<path id="Vector_2" d="M10.5008 12.76L14.012 16.2712L19.124 11.1593L22.0995 14.1347L27.3466 8.88773L26.3089 7.8502L22.0995 12.0596L19.124 9.08406L14.012 14.1961L10.5008 10.6849L4.65338 16.5321L5.6911 17.5696L10.5008 12.76Z" fill="black"/>
<path id="Vector_3" d="M19.8314 0H12.1685V1.46736H19.8314V0Z" fill="black"/>
</g>
</g>
</g>
</svg>
