<svg width="123" height="87" viewBox="0 0 123 87" fill="none" xmlns="http://www.w3.org/2000/svg">
<g id="freepik--character-2--inject-106">
<path id="Vector" d="M122.641 0.8396H0.958008V85.9587H122.641V0.8396Z" fill="white" fill-opacity="0.79"/>
<path id="Vector_2" d="M72.3881 13.1748H8.49097V62.6588H72.3881V13.1748Z" fill="#455A64"/>
<path id="Vector_3" d="M72.3916 62.6556C72.3916 62.6556 72.3916 62.3376 72.3916 61.7461C72.3916 61.1547 72.3916 60.2579 72.3916 59.1035C72.3916 56.7885 72.3916 53.3955 72.374 49.0707C72.374 40.4306 72.3494 28.0827 72.3353 13.1748L72.4092 13.2448H8.51906L8.61055 13.1621C8.61055 31.1164 8.61055 48.0372 8.61055 62.6429L8.52962 62.5697L54.7399 62.6079L67.7825 62.627H71.2341H72.3916H72.0996H71.22H67.7861L54.7681 62.6461L8.505 62.681H8.42407V62.6079C8.42407 48.0022 8.42407 31.0814 8.42407 13.1271V13.0444H8.51906H72.4092H72.4866V13.1144C72.4866 28.0254 72.4585 40.402 72.4479 49.0484C72.4479 53.3668 72.4479 56.7535 72.4268 59.0654C72.4268 60.2166 72.4268 61.0974 72.4268 61.6952C72.4268 62.2931 72.3916 62.6556 72.3916 62.6556Z" fill="#263238"/>
<path id="Vector_4" d="M23.1099 58.14V58.0986C23.1099 58.07 23.1099 58.0287 23.1099 57.9778C23.1099 57.8697 23.1099 57.717 23.1099 57.5167C23.1099 57.1096 23.1099 56.5213 23.1099 55.7709C23.1099 54.2699 23.1099 52.1329 23.0888 49.5667L23.1275 49.6048H13.6349L13.6806 49.5635C13.6806 52.7053 13.6806 55.6437 13.6806 58.1495L13.6419 58.1145L20.5027 58.1336H22.4343H22.948L22.4308 58.14H20.5063L13.6349 58.1718H13.5962V58.14C13.5962 55.6468 13.5962 52.7085 13.5962 49.554V49.5158H23.1345V49.554C23.1345 52.1298 23.1345 54.2731 23.1169 55.7804C23.1169 56.5277 23.1169 57.1128 23.1169 57.5167C23.1169 57.7138 23.1169 57.8665 23.1169 57.9746C23.1169 58.0223 23.1169 58.0605 23.1169 58.0891C23.1173 58.1063 23.115 58.1234 23.1099 58.14Z" fill="white" fill-opacity="0.79"/>
<path id="Vector_5" d="M23.1097 58.14L23.1836 58.0955L23.4018 57.9683L24.2391 57.4913L27.3283 55.7518L27.3107 55.7773C27.3107 53.5513 27.3107 50.578 27.3107 47.3344L27.3564 47.3757H27.3318H17.9835L14.8169 48.9975L13.9444 49.4363L13.7157 49.5476L13.6348 49.554L13.7086 49.5127L13.9303 49.3918L14.7923 48.9403L17.9588 47.2962H27.3072H27.3775V47.328C27.3775 50.5716 27.3775 53.5354 27.3775 55.7709V55.7868H27.3599L24.2603 57.504C23.9084 57.7012 23.6094 57.8602 23.4123 57.9683L23.1871 58.0859L23.1097 58.14Z" fill="white" fill-opacity="0.79"/>
<path id="Vector_6" d="M27.3565 47.328C27.3565 47.3471 26.4312 47.8622 25.2455 48.4792C24.0598 49.0961 23.1345 49.5826 23.1028 49.5604C23.0711 49.5381 24.0281 49.0261 25.2138 48.4092C26.3995 47.7923 27.3354 47.328 27.3565 47.328Z" fill="white" fill-opacity="0.79"/>
<path id="Vector_7" d="M14.0782 57.7839C14.0782 57.8029 13.9972 57.8729 13.8741 57.9365C13.7509 58.0001 13.6384 58.0383 13.6278 58.0192C13.6173 58.0001 13.7052 57.9301 13.8284 57.8665C13.9515 57.8029 14.0641 57.7648 14.0782 57.7839Z" fill="white" fill-opacity="0.79"/>
<path id="Vector_8" d="M14.9753 57.3164C14.9753 57.3387 14.8979 57.4054 14.7747 57.469C14.6516 57.5326 14.539 57.5708 14.5284 57.5517C14.5179 57.5326 14.6058 57.4627 14.729 57.3991C14.8521 57.3355 14.9647 57.2973 14.9753 57.3164Z" fill="white" fill-opacity="0.79"/>
<path id="Vector_9" d="M15.8761 56.868C15.8761 56.8871 15.7986 56.9539 15.6755 57.0175C15.5524 57.0811 15.4398 57.1192 15.4257 57.1001C15.4116 57.081 15.5066 57.0143 15.6298 56.9475C15.7529 56.8807 15.8655 56.833 15.8761 56.868Z" fill="white" fill-opacity="0.79"/>
<path id="Vector_10" d="M16.7767 56.3846C16.7767 56.4037 16.6993 56.4705 16.5727 56.5373C16.446 56.604 16.3405 56.6358 16.3264 56.6168C16.3123 56.5977 16.4038 56.5309 16.5305 56.4641C16.6571 56.3973 16.7627 56.3655 16.7767 56.3846Z" fill="white" fill-opacity="0.79"/>
<path id="Vector_11" d="M17.6773 55.914C17.6773 55.9331 17.5964 56.003 17.4732 56.0666C17.3501 56.1302 17.2375 56.1684 17.2269 56.1461C17.2164 56.1239 17.3043 56.0603 17.4275 55.9967C17.5506 55.9331 17.6632 55.914 17.6773 55.914Z" fill="white" fill-opacity="0.79"/>
<path id="Vector_12" d="M17.9029 55.0967C17.9312 55.0967 17.9489 55.2017 17.9489 55.3289C17.9489 55.4561 17.9241 55.5642 17.8994 55.5642C17.8746 55.5642 17.8569 55.4593 17.8569 55.3289C17.8569 55.1985 17.8782 55.0967 17.9029 55.0967Z" fill="white" fill-opacity="0.79"/>
<path id="Vector_13" d="M17.9133 54.1586C17.9381 54.1586 17.9557 54.2636 17.9557 54.394C17.9557 54.5243 17.9345 54.6261 17.9098 54.6261C17.885 54.6261 17.8638 54.5212 17.8638 54.3908C17.8638 54.2604 17.8885 54.1586 17.9133 54.1586Z" fill="white" fill-opacity="0.79"/>
<path id="Vector_14" d="M17.9204 53.2205C17.9452 53.2205 17.9664 53.3255 17.9628 53.4558C17.9593 53.5862 17.9416 53.688 17.9169 53.688C17.8921 53.688 17.8709 53.583 17.8744 53.4558C17.8779 53.3286 17.8956 53.2205 17.9204 53.2205Z" fill="white" fill-opacity="0.79"/>
<path id="Vector_15" d="M17.9273 52.2824C17.9556 52.2824 17.9733 52.3874 17.9733 52.5177C17.9733 52.6481 17.9486 52.7499 17.9238 52.7499C17.899 52.7499 17.8813 52.6449 17.8813 52.5177C17.8813 52.3905 17.9026 52.2824 17.9273 52.2824Z" fill="white" fill-opacity="0.79"/>
<path id="Vector_16" d="M17.938 51.3444C17.9627 51.3444 17.9804 51.4493 17.9804 51.5797C17.9804 51.7101 17.9592 51.815 17.9344 51.815C17.9097 51.815 17.8884 51.7069 17.8884 51.5797C17.8884 51.4525 17.9132 51.3444 17.938 51.3444Z" fill="white" fill-opacity="0.79"/>
<path id="Vector_17" d="M17.9451 50.4062C17.9698 50.4062 17.991 50.5112 17.9875 50.6416C17.984 50.772 17.9663 50.8769 17.9415 50.8769C17.9168 50.8769 17.8955 50.772 17.8991 50.6416C17.9026 50.5112 17.9203 50.4062 17.9451 50.4062Z" fill="white" fill-opacity="0.79"/>
<path id="Vector_18" d="M17.952 49.4681C17.9767 49.4681 17.998 49.5731 17.998 49.7035C17.998 49.8338 17.9732 49.9388 17.9485 49.9388C17.9237 49.9388 17.906 49.8338 17.906 49.7035C17.906 49.5731 17.9272 49.4681 17.952 49.4681Z" fill="white" fill-opacity="0.79"/>
<path id="Vector_19" d="M17.9626 48.53C17.9874 48.53 18.0051 48.6382 18.0051 48.7654C18.0051 48.8926 17.9838 49.0007 17.9591 49.0007C17.9343 49.0007 17.9131 48.8957 17.9131 48.7654C17.9131 48.635 17.9378 48.53 17.9626 48.53Z" fill="white" fill-opacity="0.79"/>
<path id="Vector_20" d="M17.9697 47.5951C17.9945 47.5951 18.0157 47.7 18.0122 47.8272C18.0086 47.9544 17.9909 48.0626 17.9662 48.0626C17.9414 48.0626 17.9202 47.9576 17.9237 47.8272C17.9273 47.6969 17.945 47.5919 17.9697 47.5951Z" fill="white" fill-opacity="0.79"/>
<path id="Vector_21" d="M26.8286 55.7738C26.8286 55.7517 26.9447 55.7327 27.0855 55.7327C27.2262 55.7327 27.3458 55.7517 27.3458 55.7738C27.3458 55.7959 27.2297 55.8149 27.0855 55.8149C26.9412 55.8149 26.8286 55.7959 26.8286 55.7738Z" fill="white" fill-opacity="0.79"/>
<path id="Vector_22" d="M25.7908 55.7738C25.7908 55.7517 25.9069 55.7327 26.0476 55.7327C26.1884 55.7327 26.308 55.7517 26.308 55.7738C26.308 55.7959 26.1919 55.8149 26.0476 55.8149C25.9034 55.8149 25.7908 55.7959 25.7908 55.7738Z" fill="white" fill-opacity="0.79"/>
<path id="Vector_23" d="M24.7529 55.7738C24.7529 55.7517 24.869 55.7327 25.0133 55.7327C25.1575 55.7327 25.2701 55.7517 25.2701 55.7738C25.2701 55.7959 25.154 55.8149 25.0133 55.8149C24.8726 55.8149 24.7529 55.7959 24.7529 55.7738Z" fill="white" fill-opacity="0.79"/>
<path id="Vector_24" d="M23.7148 55.7738C23.7148 55.7517 23.831 55.7327 23.9752 55.7327C24.1195 55.7327 24.232 55.7517 24.232 55.7738C24.232 55.7959 24.1159 55.8149 23.9752 55.8149C23.8345 55.8149 23.7148 55.7959 23.7148 55.7738Z" fill="white" fill-opacity="0.79"/>
<path id="Vector_25" d="M22.677 55.7738C22.677 55.7517 22.7931 55.7327 22.9374 55.7327C23.0816 55.7327 23.1942 55.7517 23.1942 55.7738C23.1942 55.7959 23.0781 55.8149 22.9374 55.8149C22.7966 55.8149 22.677 55.7959 22.677 55.7738Z" fill="white" fill-opacity="0.79"/>
<path id="Vector_26" d="M21.6392 55.7738C21.6392 55.7517 21.7553 55.7327 21.8995 55.7327C22.0438 55.7327 22.1599 55.7517 22.1599 55.7738C22.1599 55.7959 22.0438 55.8149 21.8995 55.8149C21.7553 55.8149 21.6392 55.7959 21.6392 55.7738Z" fill="white" fill-opacity="0.79"/>
<path id="Vector_27" d="M20.6011 55.7738C20.6011 55.7517 20.7172 55.7327 20.8614 55.7327C21.0057 55.7327 21.1218 55.7517 21.1218 55.7738C21.1218 55.7959 21.0057 55.8149 20.8614 55.8149C20.7172 55.8149 20.6011 55.7959 20.6011 55.7738Z" fill="white" fill-opacity="0.79"/>
<path id="Vector_28" d="M19.5632 55.7738C19.5632 55.7517 19.6793 55.7327 19.8236 55.7327C19.9678 55.7327 20.0839 55.7517 20.0839 55.7738C20.0839 55.7959 19.9678 55.8149 19.8236 55.8149C19.6793 55.8149 19.5632 55.7959 19.5632 55.7738Z" fill="white" fill-opacity="0.79"/>
<path id="Vector_29" d="M18.5254 55.7738C18.5254 55.7517 18.6415 55.7327 18.7858 55.7327C18.93 55.7327 19.0461 55.7517 19.0461 55.7738C19.0461 55.7959 18.93 55.8149 18.7858 55.8149C18.6415 55.8149 18.5254 55.7959 18.5254 55.7738Z" fill="white" fill-opacity="0.79"/>
<path id="Vector_30" d="M17.8989 55.7738C17.8994 55.768 17.9011 55.7623 17.904 55.7571C17.9069 55.7519 17.911 55.7472 17.9159 55.7434C17.9208 55.7396 17.9266 55.7367 17.9327 55.7349C17.9389 55.733 17.9455 55.7323 17.952 55.7327C17.958 55.7327 17.964 55.7338 17.9696 55.7359C17.9752 55.7379 17.9802 55.7409 17.9845 55.7448C17.9888 55.7486 17.9922 55.7531 17.9945 55.7581C17.9968 55.7631 17.998 55.7684 17.998 55.7738C17.998 55.7792 17.9968 55.7845 17.9945 55.7895C17.9922 55.7945 17.9888 55.799 17.9845 55.8028C17.9802 55.8067 17.9752 55.8097 17.9696 55.8117C17.964 55.8138 17.958 55.8149 17.952 55.8149C17.9455 55.8153 17.9389 55.8146 17.9327 55.8127C17.9266 55.8109 17.9208 55.808 17.9159 55.8042C17.911 55.8004 17.9069 55.7957 17.904 55.7905C17.9011 55.7853 17.8994 55.7796 17.8989 55.7738Z" fill="white" fill-opacity="0.79"/>
<path id="Vector_31" d="M28.4929 52.9185C28.5722 52.9289 28.6528 52.9289 28.7321 52.9185C28.8355 52.8981 28.9328 52.8577 29.0172 52.8C29.1016 52.7424 29.1712 52.6689 29.2212 52.5846C29.289 52.4563 29.3222 52.3153 29.3179 52.1732C29.3136 52.0311 29.272 51.892 29.1966 51.7673C29.1783 51.734 29.1522 51.7047 29.1199 51.6816C29.0877 51.6585 29.0502 51.6421 29.0101 51.6337C28.9674 51.6282 28.924 51.6304 28.8823 51.6402C28.8406 51.6501 28.8015 51.6673 28.7673 51.691C28.6262 51.8169 28.5232 51.9735 28.4683 52.1457C28.3928 52.333 28.3466 52.5289 28.331 52.7277H28.2466C28.2466 52.0917 28.2466 51.5638 28.2466 51.1758C28.2466 50.9946 28.2466 50.8578 28.2466 50.7211C28.2384 50.6673 28.2384 50.6127 28.2466 50.5589C28.2576 50.6124 28.2634 50.6667 28.2642 50.7211C28.2642 50.8419 28.2642 50.9946 28.2853 51.1758C28.3029 51.5638 28.317 52.1044 28.331 52.7245H28.2466C28.2586 52.518 28.3049 52.3143 28.3838 52.1203C28.4185 52.028 28.462 51.9386 28.514 51.8532C28.5623 51.7659 28.6307 51.6889 28.7145 51.6274C28.7589 51.5974 28.8095 51.5758 28.8633 51.5638C28.9171 51.5518 28.973 51.5496 29.0277 51.5574C29.0796 51.5683 29.1281 51.5897 29.1696 51.62C29.211 51.6503 29.2443 51.6887 29.2669 51.7323C29.3452 51.8683 29.3861 52.0194 29.3861 52.1727C29.3861 52.3261 29.3452 52.4772 29.2669 52.6132C29.2103 52.7025 29.1322 52.7791 29.0384 52.8374C28.9447 52.8958 28.8376 52.9343 28.7251 52.9503C28.6657 52.9588 28.6051 52.9588 28.5457 52.9503C28.5105 52.9333 28.4929 52.9227 28.4929 52.9185Z" fill="white" fill-opacity="0.79"/>
<path id="Vector_32" d="M23.8978 46.3518C23.8978 46.3518 23.8978 46.3518 23.8732 46.3836C23.8479 46.4095 23.8167 46.4301 23.7817 46.444C23.7253 46.4704 23.6621 46.4824 23.5988 46.479C23.5123 46.4771 23.4296 46.4465 23.3665 46.3931C23.2958 46.3239 23.2429 46.2414 23.2117 46.1514C23.1691 46.0538 23.1327 45.954 23.1027 45.8525C23.0277 45.6119 22.9829 45.3644 22.969 45.1147H23.0534C23.1073 45.4403 23.0965 45.772 23.0217 46.0942C22.9756 46.2889 22.8578 46.4638 22.6875 46.5903C22.6423 46.6199 22.5909 46.6408 22.5365 46.6517C22.482 46.6627 22.4256 46.6634 22.3708 46.6539C22.3189 46.6431 22.2701 46.6225 22.2277 46.5935C22.1852 46.5644 22.1501 46.5276 22.1246 46.4853C22.0465 46.3464 22.0074 46.1923 22.0104 46.0366C22.0135 45.8808 22.0587 45.7281 22.1421 45.5917C22.2539 45.4104 22.4263 45.2657 22.6347 45.1783C22.691 45.1554 22.75 45.1383 22.8106 45.1275C22.8493 45.1275 22.874 45.1275 22.874 45.1275C22.874 45.1275 22.7895 45.1497 22.6523 45.2133C22.4884 45.2891 22.3498 45.403 22.2508 45.5433C22.1519 45.6836 22.0961 45.8452 22.0894 46.0115C22.0757 46.164 22.1124 46.3167 22.1949 46.4504C22.215 46.4836 22.2426 46.5127 22.276 46.5357C22.3093 46.5587 22.3476 46.5752 22.3884 46.5839C22.4758 46.5959 22.565 46.5777 22.6382 46.533C22.7897 46.4147 22.8947 46.2551 22.9373 46.0783C23.0075 45.7642 23.0182 45.4416 22.969 45.1243H23.0534C23.0641 45.369 23.103 45.612 23.1695 45.8493C23.2012 45.9543 23.2328 46.056 23.268 46.1451C23.2948 46.2286 23.3416 46.3057 23.4052 46.3709C23.4522 46.409 23.5096 46.435 23.5715 46.4462C23.6334 46.4574 23.6975 46.4534 23.7571 46.4344C23.8078 46.4126 23.8551 46.3848 23.8978 46.3518Z" fill="white" fill-opacity="0.79"/>
<path id="Vector_33" d="M54.395 51.0104C54.395 51.0549 51.0561 51.5987 46.915 52.222C42.7738 52.8453 39.4138 53.3096 39.4067 53.265C39.3997 53.2205 42.7457 52.6767 46.8868 52.0535C51.0279 51.4302 54.3845 50.9627 54.395 51.0104Z" fill="white" fill-opacity="0.79"/>
<path id="Vector_34" d="M55.1516 52.6132C55.1516 52.6577 51.8127 53.2015 47.6751 53.8216C43.5375 54.4417 40.1739 54.9123 40.1634 54.8678C40.1528 54.8233 43.5023 54.2795 47.6434 53.6562C51.7845 53.0329 55.1516 52.5655 55.1516 52.6132Z" fill="white" fill-opacity="0.79"/>
<path id="Vector_35" d="M55.8869 54.2127C55.8869 54.2604 52.5479 54.801 48.4103 55.4243C44.2727 56.0476 40.9091 56.515 40.9021 56.4705C40.8951 56.426 44.241 55.8822 48.3787 55.2589C52.5163 54.6357 55.8798 54.1682 55.8869 54.2127Z" fill="white" fill-opacity="0.79"/>
<path id="Vector_36" d="M24.0103 27.9872C23.8492 27.8947 23.6984 27.7882 23.56 27.6692C23.275 27.4594 22.8739 27.1509 22.3849 26.7598C21.4032 25.9807 20.0733 24.8804 18.6519 23.6147C17.2304 22.3491 15.9955 21.163 15.1335 20.2853C14.6937 19.8464 14.3454 19.4903 14.1096 19.2359C13.9801 19.1115 13.8624 18.9775 13.7578 18.8352C13.9051 18.943 14.0406 19.0633 14.1624 19.1945L15.2179 20.2058C16.1151 21.0612 17.3677 22.2346 18.7856 23.4971C20.2035 24.7595 21.5158 25.8725 22.4728 26.6771L23.6093 27.6311C23.7525 27.7407 23.8865 27.8598 24.0103 27.9872Z" fill="white" fill-opacity="0.79"/>
<path id="Vector_37" d="M24.7774 23.3635C24.7749 23.5003 24.7584 23.6365 24.7282 23.7706C24.6859 24.0313 24.6332 24.4066 24.6015 24.8804C24.5121 26.1211 24.6307 27.3669 24.9533 28.5755L24.985 28.6996L24.8478 28.6773L24.3517 28.5946C22.6277 28.3116 21.069 28.0445 19.9432 27.841L18.6097 27.5961C18.4452 27.5728 18.2837 27.5344 18.1277 27.4816C18.2943 27.4866 18.4602 27.5036 18.6238 27.5325L19.9678 27.7265C21.0972 27.8982 22.6593 28.1462 24.3834 28.4324L24.8794 28.5151L24.7774 28.6169C24.4481 27.3919 24.3458 26.1261 24.4748 24.8708C24.5109 24.4979 24.572 24.1273 24.6578 23.761C24.6804 23.6248 24.7206 23.4914 24.7774 23.3635Z" fill="white" fill-opacity="0.79"/>
<path id="Vector_38" d="M118.109 15.0001H96.4255V35.4284H118.109V15.0001Z" fill="#E0E0E0"/>
<path id="Vector_39" d="M116.642 15.0001H94.9585V35.4284H116.642V15.0001Z" fill="#FAFAFA"/>
<path id="Vector_40" d="M116.646 35.4348H94.9514V14.9938H116.646V35.4348ZM94.9655 35.4348H116.635V15.0065H94.9655V35.4348Z" fill="#E0E0E0"/>
<path id="Vector_41" d="M113.725 17.7444H97.8716V32.6809H113.725V17.7444Z" fill="white" fill-opacity="0.79"/>
<path id="Vector_42" d="M97.8716 32.7795C97.7616 32.9319 97.6304 33.0708 97.4811 33.1929C97.2277 33.4346 96.8724 33.7589 96.4748 34.1151C96.0772 34.4712 95.7078 34.7861 95.4193 35.0118C95.282 35.1418 95.1285 35.2571 94.9619 35.3553C95.0737 35.2051 95.2048 35.0673 95.3524 34.9451C95.6058 34.7066 95.9611 34.379 96.3622 34.0229C96.7633 33.6667 97.1292 33.3487 97.4177 33.1229C97.5544 32.9935 97.7066 32.8783 97.8716 32.7795Z" fill="#E0E0E0"/>
<path id="Vector_43" d="M113.725 32.7445C113.892 32.8455 114.044 32.964 114.179 33.0975C114.447 33.3264 114.809 33.6476 115.203 34.007C115.597 34.3663 115.945 34.7002 116.195 34.9451C116.339 35.0692 116.467 35.2079 116.575 35.3585C116.409 35.2575 116.257 35.139 116.121 35.0055C115.854 34.7765 115.492 34.4553 115.098 34.0928C114.703 33.7303 114.355 33.3996 114.105 33.1547C113.961 33.0323 113.833 32.8946 113.725 32.7445Z" fill="#E0E0E0"/>
<path id="Vector_44" d="M113.683 17.7858C113.794 17.6341 113.925 17.4953 114.074 17.3724C114.327 17.1339 114.682 16.8064 115.08 16.4502C115.477 16.0941 115.847 15.7792 116.118 15.5535C116.255 15.4235 116.409 15.3082 116.575 15.21C116.463 15.3603 116.332 15.498 116.185 15.6202C115.931 15.8619 115.576 16.1895 115.175 16.5456C114.774 16.9018 114.408 17.2166 114.119 17.4424C113.988 17.5709 113.842 17.686 113.683 17.7858Z" fill="#E0E0E0"/>
<path id="Vector_45" d="M97.8294 17.8208C97.6619 17.72 97.5084 17.6015 97.372 17.4678C97.1046 17.2389 96.7422 16.9177 96.3481 16.5583C95.9541 16.199 95.6058 15.8651 95.3595 15.6202C95.2155 15.4974 95.0879 15.3597 94.9795 15.21C95.1457 15.311 95.2981 15.4295 95.4334 15.563C95.7008 15.792 96.0632 16.1131 96.4572 16.4757C96.8513 16.8382 97.1996 17.1689 97.4494 17.4297C97.5925 17.5462 97.7201 17.6774 97.8294 17.8208Z" fill="#E0E0E0"/>
<path id="Vector_46" d="M113.683 32.6809C113.679 32.6567 113.679 32.6321 113.683 32.6078C113.683 32.5569 113.683 32.4901 113.683 32.4011C113.683 32.2135 113.683 31.9432 113.683 31.5934C113.683 30.8874 113.683 29.8571 113.666 28.5501C113.666 25.933 113.666 22.206 113.634 17.7381L113.697 17.7954H97.8892L97.9595 17.7318C97.9595 23.2141 97.9595 28.3434 97.9595 32.6778L97.8997 32.6237L109.348 32.6523H112.564H113.416H112.578L109.377 32.6682L97.8892 32.6937H97.8293V32.6396C97.8293 28.3148 97.8293 23.1855 97.8293 17.6936V17.63H97.9032H113.711H113.771V17.754C113.771 22.2315 113.746 25.9711 113.739 28.5946C113.739 29.8953 113.739 30.9224 113.739 31.6252C113.739 31.9718 113.739 32.2357 113.739 32.4234C113.739 32.5092 113.739 32.576 113.739 32.6237C113.739 32.6714 113.683 32.6809 113.683 32.6809Z" fill="#E0E0E0"/>
<path id="Vector_47" d="M108.444 22.8229H103.153V27.6057H108.444V22.8229Z" fill="#EBEBEB"/>
<path id="Vector_48" d="M122.641 0.8396H0.958008V6.47456H122.641V0.8396Z" fill="#EBEBEB"/>
<path id="Vector_49" d="M5.13094 3.65707C5.13094 3.84009 5.07089 4.01901 4.95839 4.17118C4.84589 4.32336 4.68599 4.44197 4.4989 4.51201C4.31182 4.58205 4.10597 4.60038 3.90736 4.56467C3.70875 4.52896 3.52631 4.44083 3.38312 4.31141C3.23994 4.182 3.14243 4.01711 3.10293 3.8376C3.06342 3.6581 3.08369 3.47203 3.16119 3.30294C3.23868 3.13385 3.36991 2.98933 3.53828 2.88764C3.70665 2.78596 3.90461 2.73169 4.1071 2.73169C4.37864 2.73169 4.63906 2.82919 4.83107 3.00273C5.02308 3.17627 5.13094 3.41164 5.13094 3.65707Z" fill="white" fill-opacity="0.79"/>
<path id="Vector_50" d="M8.32211 3.65707C8.3221 3.84023 8.26197 4.01927 8.14931 4.17152C8.03665 4.32376 7.87654 4.44237 7.68925 4.51232C7.50197 4.58226 7.29593 4.6004 7.09722 4.56443C6.89852 4.52847 6.71609 4.44002 6.57304 4.31028C6.43 4.18055 6.33277 4.01537 6.29366 3.83565C6.25455 3.65594 6.27533 3.46977 6.35336 3.30074C6.43139 3.1317 6.56318 2.9874 6.73201 2.8861C6.90084 2.7848 7.09913 2.73107 7.30178 2.73169C7.43607 2.73169 7.56903 2.75565 7.69305 2.8022C7.81708 2.84874 7.92971 2.91695 8.0245 3.00292C8.11929 3.0889 8.19438 3.19093 8.24545 3.30319C8.29652 3.41544 8.32257 3.5357 8.32211 3.65707Z" fill="white" fill-opacity="0.79"/>
<path id="Vector_51" d="M11.5238 3.65707C11.5238 3.84009 11.4637 4.01901 11.3512 4.17118C11.2387 4.32336 11.0788 4.44197 10.8917 4.51201C10.7047 4.58205 10.4988 4.60038 10.3002 4.56467C10.1016 4.52896 9.91914 4.44083 9.77595 4.31141C9.63277 4.182 9.53525 4.01711 9.49575 3.8376C9.45624 3.6581 9.47652 3.47203 9.55402 3.30294C9.63151 3.13385 9.76274 2.98933 9.93111 2.88764C10.0995 2.78596 10.2974 2.73169 10.4999 2.73169C10.7715 2.73169 11.0319 2.82919 11.2239 3.00273C11.4159 3.17627 11.5238 3.41164 11.5238 3.65707Z" fill="white" fill-opacity="0.79"/>
<path id="Vector_52" d="M64.6687 15.528C64.6687 15.5757 62.2621 15.6107 59.2926 15.6107C56.3231 15.6107 53.9165 15.5757 53.9165 15.528C53.9165 15.4803 56.3231 15.4453 59.2926 15.4453C62.2621 15.4453 64.6687 15.4676 64.6687 15.528Z" fill="white" fill-opacity="0.79"/>
<path id="Vector_53" d="M66.1816 16.8C66.1816 16.8445 63.191 16.8827 59.4967 16.8827C55.8024 16.8827 52.8118 16.8445 52.8118 16.8C52.8118 16.7555 55.8024 16.7173 59.4967 16.7173C63.191 16.7173 66.1816 16.7587 66.1816 16.8Z" fill="white" fill-opacity="0.79"/>
<path id="Vector_54" d="M62.4698 20.5778C62.381 20.6556 62.2817 20.7229 62.1743 20.7782L61.3369 21.2711L60.7528 21.5891L60.4256 21.7735C60.3648 21.8206 60.2932 21.855 60.2159 21.8742C60.1387 21.8935 60.0577 21.8971 59.9788 21.8848C59.9332 21.8719 59.8913 21.8501 59.8561 21.821C59.8208 21.7919 59.7931 21.7561 59.7747 21.7163C59.744 21.6444 59.7296 21.5676 59.7325 21.4905C59.7431 21.3489 59.7727 21.2091 59.8205 21.0739C59.9014 20.8068 59.9788 20.5333 60.0632 20.2535C60.2075 19.697 60.4678 19.15 60.3728 18.6857C60.3506 18.5801 60.2969 18.4819 60.2176 18.4018C60.1382 18.3217 60.0362 18.2626 59.9225 18.231C59.7167 18.1703 59.495 18.1703 59.2892 18.231C58.9904 18.3476 58.7255 18.525 58.5151 18.7493C58.3568 18.9052 58.2689 18.9942 58.2583 18.9847C58.3128 18.8849 58.3814 18.7919 58.4624 18.708C58.6609 18.4519 58.9319 18.2488 59.247 18.1197C59.4771 18.0386 59.7299 18.0263 59.9682 18.0847C60.11 18.1213 60.238 18.1921 60.3385 18.2897C60.4389 18.3872 60.508 18.5076 60.5382 18.638C60.5882 18.9108 60.5689 19.1903 60.4819 19.4553C60.4045 19.7224 60.3236 19.9991 60.2391 20.2821C60.1547 20.5651 60.0738 20.8386 59.9929 21.1057C59.948 21.2262 59.9196 21.3511 59.9084 21.4778C59.9084 21.5954 59.9436 21.7036 60.028 21.7226C60.1125 21.7417 60.2286 21.694 60.3412 21.6336L60.6719 21.4555L61.2665 21.1375C61.6184 20.9435 61.9315 20.7909 62.1391 20.6891C62.2435 20.6393 62.3547 20.6019 62.4698 20.5778Z" fill="white" fill-opacity="0.79"/>
<path id="Vector_55" d="M63.0713 20.4475C62.9555 20.1043 62.8974 19.7473 62.8989 19.3885C62.8355 19.0347 62.8355 18.6739 62.8989 18.3201C63.0149 18.6633 63.0742 19.0201 63.0748 19.379C63.1361 19.7331 63.1349 20.0937 63.0713 20.4475Z" fill="white" fill-opacity="0.79"/>
<path id="Vector_56" d="M64.0776 19.3631C63.798 19.4578 63.4999 19.5 63.2016 19.4871C62.9058 19.5284 62.6038 19.5132 62.3149 19.4426C62.5965 19.3505 62.8954 19.3094 63.1945 19.3218C63.4889 19.2801 63.7896 19.2942 64.0776 19.3631Z" fill="white" fill-opacity="0.79"/>
<path id="Vector_57" d="M58.6136 23.478C58.6136 23.478 58.5644 23.478 58.4764 23.478C58.3443 23.4727 58.2127 23.46 58.0824 23.4398C57.6024 23.3778 57.1308 23.2712 56.675 23.1218C55.1391 22.6318 53.8108 21.7207 52.8754 20.5156C51.9401 19.3104 51.4443 17.8714 51.4573 16.3993C51.4562 15.9592 51.5058 15.5201 51.6051 15.0892C51.6288 14.9709 51.6605 14.8541 51.7 14.7394C51.7084 14.6982 51.7238 14.6585 51.7458 14.6217C51.6426 15.2097 51.5897 15.804 51.5875 16.3993C51.6106 17.8379 52.1119 19.2369 53.026 20.4148C53.9402 21.5926 55.225 22.4948 56.7137 23.0042C57.3324 23.2068 57.9676 23.3652 58.6136 23.478Z" fill="white" fill-opacity="0.79"/>
<path id="Vector_58" d="M60.6016 23.6974C60.5923 23.7751 60.5673 23.8505 60.5277 23.92C60.4359 24.1128 60.3177 24.2944 60.1759 24.4606C59.6873 25.0164 59.0033 25.4046 58.2372 25.5609C57.9232 25.6228 57.6008 25.6431 57.2802 25.6213L57.0586 25.6022L57.2345 25.4782C57.6553 25.1785 57.9827 24.7851 58.1845 24.3366C58.3322 24.0186 58.3639 23.7832 58.3885 23.7864C58.4059 23.986 58.371 24.1865 58.2865 24.3715C58.1107 24.8557 57.7832 25.2832 57.3436 25.6022L57.2943 25.4623C57.5975 25.4783 57.9017 25.4569 58.1985 25.3987C58.9267 25.2481 59.5839 24.8943 60.0774 24.3874C60.2658 24.1662 60.4409 23.9359 60.6016 23.6974Z" fill="white" fill-opacity="0.79"/>
<path id="Vector_59" d="M68.1978 21.2838C68.1978 21.2838 68.131 21.3665 67.9797 21.4969C67.7701 21.679 67.548 21.8489 67.3147 22.0057C66.546 22.5271 65.6989 22.9469 64.7991 23.2522C63.8945 23.5566 62.9469 23.744 61.9844 23.8087C61.6938 23.8254 61.4024 23.8254 61.1118 23.8087C61.0051 23.8133 60.8982 23.8026 60.7952 23.7769C60.7952 23.7483 61.249 23.7515 61.9703 23.6784C62.9119 23.5819 63.837 23.3822 64.7252 23.0837C65.6098 22.7804 66.4508 22.3822 67.2303 21.8976C67.8389 21.535 68.1697 21.252 68.1978 21.2838Z" fill="white" fill-opacity="0.79"/>
<path id="Vector_60" d="M63.7012 42.3445C63.7012 42.3792 54.1382 42.4108 42.3447 42.4108C30.5511 42.4108 20.9846 42.3792 20.9846 42.3445C20.9846 42.3097 30.5476 42.275 42.3447 42.275C54.1418 42.275 63.7012 42.3066 63.7012 42.3445Z" fill="#FAFAFA"/>
<path id="Vector_61" d="M57.319 42.24C57.3002 42.2059 57.2871 42.1695 57.2803 42.1319L57.1782 41.8139C57.0903 41.5277 56.9566 41.1079 56.7701 40.5737C56.2377 39.0564 55.54 37.5907 54.6872 36.198C53.4329 34.1326 51.7258 32.3202 49.67 30.8715C48.4556 30.0236 47.1101 29.3411 45.6767 28.8458C44.1376 28.3145 42.504 28.0419 40.8565 28.0413C37.6533 28.0467 34.5345 28.9697 31.948 30.6775C30.8263 31.4172 29.8244 32.2949 28.9714 33.2851C28.2248 34.1467 27.5831 35.0785 27.0574 36.0644C26.2988 37.4959 25.7829 39.0225 25.5269 40.5928C25.439 41.1493 25.3897 41.5849 25.3721 41.8648C25.3721 42.0079 25.351 42.1192 25.344 42.2018C25.3478 42.2399 25.3478 42.2782 25.344 42.3163V42.24C25.344 42.1573 25.344 42.046 25.344 41.9029C25.3602 41.4709 25.4013 41.04 25.4671 40.6118C25.7052 39.0307 26.2095 37.4918 26.9624 36.0485C27.4835 35.0531 28.1242 34.1125 28.8729 33.2438C29.7293 32.2407 30.7372 31.3511 31.8671 30.6012C34.4733 28.8699 37.6221 27.9343 40.8565 27.93C42.5222 27.9304 44.1737 28.2063 45.7294 28.7441C47.1751 29.2443 48.5314 29.9343 49.7545 30.792C51.8275 32.2505 53.5451 34.0801 54.7998 36.1662C55.6451 37.5628 56.329 39.0344 56.8405 40.5578C57.0234 41.0952 57.1466 41.5118 57.224 41.8075C57.2627 41.9474 57.2908 42.0556 57.3119 42.1255C57.333 42.1955 57.319 42.24 57.319 42.24Z" fill="#FAFAFA"/>
<path id="Vector_62" d="M25.7731 41.8266C25.8048 41.852 25.7344 41.9856 25.6113 42.1255C25.4882 42.2654 25.365 42.364 25.3298 42.3417C25.2946 42.3195 25.3685 42.1859 25.4917 42.0428C25.6148 41.8997 25.7415 41.8043 25.7731 41.8266Z" fill="#FAFAFA"/>
<path id="Vector_63" d="M27.8208 39.9504C27.8454 39.979 27.6308 40.2016 27.3352 40.4465C27.0397 40.6913 26.7793 40.8726 26.7476 40.8472C26.716 40.8217 26.9376 40.5959 27.2332 40.3479C27.5287 40.0999 27.7926 39.9218 27.8208 39.9504Z" fill="#FAFAFA"/>
<path id="Vector_64" d="M30.2205 38.459C30.2416 38.4908 29.9707 38.6561 29.6294 38.8469C29.4335 38.9811 29.2132 39.0834 28.9785 39.149C28.9539 39.1172 29.2037 38.9233 29.552 38.7293C29.7487 38.5937 29.9775 38.5012 30.2205 38.459Z" fill="#FAFAFA"/>
<path id="Vector_65" d="M32.9331 37.5018C32.7302 37.627 32.5017 37.7146 32.261 37.7594C32.0379 37.8452 31.7996 37.8947 31.5574 37.9056C31.755 37.7702 31.9833 37.6757 32.2259 37.629C32.4492 37.5424 32.6901 37.499 32.9331 37.5018Z" fill="#FAFAFA"/>
<path id="Vector_66" d="M35.7724 36.8912C35.3234 37.0705 34.8382 37.1637 34.3474 37.1647C34.7963 36.9854 35.2816 36.8923 35.7724 36.8912Z" fill="#FAFAFA"/>
<path id="Vector_67" d="M38.6645 36.5446C38.4424 36.6321 38.2031 36.6786 37.9608 36.6814C37.7195 36.7269 37.4703 36.7269 37.229 36.6814C37.451 36.5934 37.6903 36.5469 37.9327 36.5446C38.1744 36.5026 38.4228 36.5026 38.6645 36.5446Z" fill="#FAFAFA"/>
<path id="Vector_68" d="M41.5846 36.516C41.347 36.5773 41.0981 36.5946 40.8528 36.5669C40.6064 36.5813 40.3593 36.5532 40.1245 36.4842C40.3615 36.4199 40.6109 36.4014 40.8563 36.4301C41.103 36.4155 41.3504 36.4447 41.5846 36.516Z" fill="#FAFAFA"/>
<path id="Vector_69" d="M44.4943 36.7354C44.0052 36.7795 43.5113 36.7352 43.0413 36.605C43.2827 36.5602 43.5317 36.5602 43.7731 36.605C44.0209 36.6028 44.2665 36.6472 44.4943 36.7354Z" fill="#FAFAFA"/>
<path id="Vector_70" d="M47.3689 37.1774C47.1229 37.2007 46.8743 37.1802 46.637 37.117C46.3902 37.0967 46.1507 37.0307 45.9333 36.923C46.1782 36.8998 46.4256 36.9203 46.6617 36.9835C46.9096 37.0034 47.1504 37.0695 47.3689 37.1774Z" fill="#FAFAFA"/>
<path id="Vector_71" d="M50.1837 37.8706C49.9358 37.8736 49.69 37.8292 49.4624 37.7403C49.2223 37.6939 48.9935 37.6088 48.7869 37.489C49.0283 37.483 49.2684 37.5242 49.4905 37.6099C49.7385 37.6541 49.9742 37.7428 50.1837 37.8706Z" fill="#FAFAFA"/>
<path id="Vector_72" d="M52.8575 38.9232C52.6078 38.8943 52.3678 38.8174 52.1539 38.6974C51.9211 38.6218 51.7079 38.5039 51.5276 38.3508C51.7769 38.3812 52.0165 38.4581 52.2313 38.5766C52.4631 38.6539 52.6759 38.7717 52.8575 38.9232Z" fill="#FAFAFA"/>
<path id="Vector_73" d="M55.3063 40.3511C55.0712 40.2854 54.8534 40.1772 54.666 40.0331C54.3387 39.8264 54.0925 39.6292 54.1136 39.5974C54.3487 39.6631 54.5665 39.7713 54.7539 39.9154C55.0846 40.1285 55.3309 40.332 55.3063 40.3511Z" fill="#FAFAFA"/>
<path id="Vector_74" d="M56.9389 41.6612C56.9073 41.6898 56.7701 41.6072 56.6258 41.4831C56.4816 41.3591 56.3936 41.2351 56.4217 41.2065C56.4499 41.1779 56.5871 41.2605 56.7314 41.3846C56.8756 41.5086 56.9671 41.6358 56.9389 41.6612Z" fill="#FAFAFA"/>
<path id="Vector_75" d="M26.2201 43.388C26.1919 43.4134 25.9386 43.2226 25.6958 42.9332C25.5222 42.7705 25.4006 42.5683 25.344 42.3481C25.3792 42.329 25.5621 42.5675 25.8049 42.8506C26.0477 43.1336 26.2517 43.3594 26.2201 43.388Z" fill="#FAFAFA"/>
<path id="Vector_76" d="M28.4578 45.0289C28.2258 44.9633 28.0114 44.8551 27.828 44.7109C27.5008 44.4978 27.258 44.3038 27.2862 44.2752C27.5174 44.3423 27.7315 44.4504 27.9159 44.5932C28.2361 44.8031 28.4789 44.9971 28.4578 45.0289Z" fill="#FAFAFA"/>
<path id="Vector_77" d="M31.0049 46.2468C30.5332 46.1427 30.0901 45.9522 29.7031 45.6871C29.9446 45.7183 30.1767 45.7929 30.3857 45.9066C30.616 45.9799 30.8269 46.0958 31.0049 46.2468Z" fill="#FAFAFA"/>
<path id="Vector_78" d="M33.7598 47.01C33.5212 47.0262 33.2814 46.997 33.0561 46.9241C32.8122 46.8942 32.5788 46.8148 32.3735 46.692C32.6128 46.6896 32.8507 46.7241 33.0772 46.7938C33.3186 46.8234 33.5508 46.897 33.7598 47.01Z" fill="#FAFAFA"/>
<path id="Vector_79" d="M36.5957 47.4966C36.3535 47.5285 36.1067 47.5144 35.8709 47.4552C35.6249 47.4426 35.3848 47.3818 35.1672 47.2771C35.4028 47.2513 35.6416 47.2664 35.8709 47.3217C36.1235 47.3331 36.3705 47.3927 36.5957 47.4966Z" fill="#FAFAFA"/>
<path id="Vector_80" d="M39.4631 47.7795C39.2241 47.8245 38.9774 47.8245 38.7383 47.7795C38.4969 47.7823 38.2573 47.7401 38.0347 47.6555C38.2737 47.6106 38.5204 47.6106 38.7595 47.6555C39.0008 47.6537 39.2402 47.6959 39.4631 47.7795Z" fill="#FAFAFA"/>
<path id="Vector_81" d="M42.3483 47.83C41.8725 47.9184 41.3816 47.9184 40.9058 47.83C41.1382 47.762 41.3838 47.7384 41.627 47.7605C41.8702 47.7403 42.1154 47.764 42.3483 47.83Z" fill="#FAFAFA"/>
<path id="Vector_82" d="M45.2226 47.6174C45.0018 47.7089 44.7619 47.7566 44.519 47.7573C44.2799 47.8021 44.0332 47.8021 43.7942 47.7573C44.016 47.6687 44.2553 47.6211 44.4979 47.6174C44.7372 47.5748 44.9834 47.5748 45.2226 47.6174Z" fill="#FAFAFA"/>
<path id="Vector_83" d="M48.0514 47.1086C47.6096 47.2932 47.1306 47.3939 46.644 47.4043C46.8525 47.2903 47.085 47.2166 47.3266 47.1881C47.56 47.1186 47.8064 47.0916 48.0514 47.1086Z" fill="#FAFAFA"/>
<path id="Vector_84" d="M50.7817 46.2722C50.59 46.4082 50.3698 46.5078 50.1343 46.5648C49.9153 46.6647 49.6757 46.7221 49.4307 46.7333C49.6236 46.5971 49.845 46.4976 50.0816 46.4408C50.2999 46.3422 50.5381 46.2849 50.7817 46.2722Z" fill="#FAFAFA"/>
<path id="Vector_85" d="M53.3538 45.102C53.3749 45.1338 53.1075 45.2991 52.7592 45.474C52.5571 45.5986 52.33 45.6861 52.0907 45.7316C52.0731 45.6966 52.3405 45.5313 52.6853 45.3564C52.8873 45.2325 53.1145 45.146 53.3538 45.102Z" fill="#FAFAFA"/>
<path id="Vector_86" d="M55.7076 43.5915C55.7322 43.6201 55.4965 43.8236 55.1798 44.0431C54.8632 44.2625 54.5852 44.4151 54.5606 44.3833C54.536 44.3515 54.7717 44.1512 55.0884 43.9349C55.2661 43.7828 55.477 43.6658 55.7076 43.5915Z" fill="#FAFAFA"/>
<path id="Vector_87" d="M57.3188 42.24C57.3469 42.2686 57.2519 42.3958 57.1042 42.5294C56.9564 42.663 56.8121 42.7456 56.784 42.7202C56.7558 42.6948 56.8508 42.5644 56.9986 42.4308C57.1464 42.2973 57.2871 42.2209 57.3188 42.24Z" fill="#FAFAFA"/>
<path id="Vector_88" d="M40.5115 50.1487C40.4729 50.1487 40.4377 44.0781 40.4377 36.5955C40.4377 29.113 40.4729 23.0392 40.5115 23.0392C40.5501 23.0392 40.5888 29.1066 40.5888 36.5955C40.5888 44.0844 40.5537 50.1487 40.5115 50.1487Z" fill="#FAFAFA"/>
<path id="Vector_89" d="M54.0504 29.202C54.082 29.2306 51.0773 32.1117 47.3408 35.6383C43.6043 39.1649 40.5539 41.9983 40.5222 41.9983C40.4906 41.9983 43.4988 39.0918 47.2353 35.562C50.9718 32.0322 54.0222 29.1829 54.0504 29.202Z" fill="#FAFAFA"/>
<path id="Vector_90" d="M53.2307 29.1257C53.4247 29.0323 53.6286 28.9566 53.8393 28.8999C54.2264 28.7727 54.7752 28.5819 55.4156 28.4038L55.5282 28.3688L55.5106 28.4738C55.4578 28.7663 55.4015 29.0812 55.3417 29.4087C55.2819 29.7362 55.2396 29.9652 55.1904 30.2228V30.2927L55.113 30.2768C54.531 30.1481 53.9887 29.9024 53.5262 29.5582C53.3933 29.4607 53.2686 29.3544 53.1533 29.2402C53.1096 29.1997 53.0729 29.1536 53.0442 29.1034C53.0442 29.1034 53.2342 29.2656 53.5825 29.5009C54.0504 29.8141 54.5845 30.0371 55.1517 30.156L55.0637 30.2069C55.1095 29.9525 55.1587 29.6758 55.208 29.3928C55.2572 29.1098 55.3276 28.7568 55.3839 28.4579L55.4754 28.531C54.8315 28.7186 54.2756 28.8776 53.8816 28.9826C53.6701 29.0489 53.4522 29.0968 53.2307 29.1257Z" fill="#FAFAFA"/>
<path id="Vector_91" d="M57.4912 31.676C57.7989 31.0762 58.1515 30.4961 58.5467 29.9398C58.8968 29.3605 59.2907 28.8038 59.7254 28.2734C59.4177 28.8733 59.0651 29.4534 58.6699 30.0097C58.3197 30.5889 57.9259 31.1457 57.4912 31.676Z" fill="#FAFAFA"/>
<path id="Vector_92" d="M59.9366 32.6014C59.4586 32.037 59.0214 31.4454 58.6277 30.8302C58.1908 30.2398 57.7959 29.6248 57.4456 28.989C57.9226 29.5528 58.3597 30.1433 58.7544 30.757C59.1919 31.3483 59.5867 31.9643 59.9366 32.6014Z" fill="#FAFAFA"/>
<path id="Vector_93" d="M61.9525 31.87C61.7039 31.3303 61.3526 30.8342 60.9146 30.4041L61.0342 30.385C60.7816 30.9315 60.7431 31.5396 60.9251 32.1085L60.7914 32.1308C60.7668 31.7238 60.7492 31.3835 60.7422 31.1418C60.7221 31.0163 60.7221 30.8889 60.7422 30.7634C60.7831 30.8852 60.8056 31.0114 60.809 31.1386C60.8407 31.3771 60.8759 31.7174 60.9146 32.1213L60.9674 32.6587L60.7844 32.1435C60.6579 31.7832 60.6218 31.4019 60.6789 31.0273C60.7131 30.7885 60.7842 30.5551 60.89 30.3341L60.9357 30.2451L61.0096 30.315C61.3381 30.6269 61.6016 30.99 61.7871 31.3867C61.8745 31.5373 61.9306 31.7011 61.9525 31.87Z" fill="#FAFAFA"/>
<path id="Vector_94" d="M45.5114 41.8615C45.5114 41.8615 45.5888 41.8361 45.7154 41.7725C45.8896 41.681 46.0313 41.5464 46.1235 41.3845C46.2672 41.148 46.3239 40.8762 46.2854 40.6086C46.2303 40.2746 46.1113 39.9517 45.9335 39.6546L45.8139 39.4257L45.9441 39.3589C46.0341 39.5119 46.062 39.6886 46.0228 39.8583C45.9835 40.0279 45.8798 40.1798 45.7295 40.2874C45.5982 40.3798 45.4349 40.4271 45.2686 40.421C45.1289 40.41 44.9951 40.365 44.8816 40.2906C44.7165 40.1898 44.6016 40.0345 44.5614 39.8581C44.5391 39.7972 44.5391 39.7314 44.5614 39.6705C44.5614 39.6705 44.5614 39.7373 44.6036 39.8486C44.6621 40.0004 44.7763 40.1294 44.9273 40.2143C45.0328 40.2748 45.1543 40.3088 45.2791 40.3129C45.4083 40.3103 45.5325 40.2676 45.631 40.192C45.7492 40.1001 45.8304 39.9752 45.8616 39.8371C45.8928 39.6989 45.8723 39.5553 45.8034 39.4288L45.9335 39.3652L46.0567 39.5942C46.237 39.9061 46.3561 40.244 46.4085 40.5927C46.4416 40.8849 46.3674 41.1788 46.1974 41.4291C46.0868 41.5985 45.9209 41.7329 45.7225 41.8138C45.658 41.8464 45.5852 41.8629 45.5114 41.8615Z" fill="#FAFAFA"/>
<path id="Vector_95" d="M51.3939 31.9273C51.2482 31.9572 51.0998 31.9753 50.9506 31.9813C50.6656 32.0068 50.2469 32.0386 49.7438 32.0704C48.7234 32.1308 47.3126 32.188 45.7504 32.1912C44.1882 32.1944 42.7774 32.1467 41.7535 32.0894C41.2434 32.0608 40.8317 32.0322 40.5467 32.0068C40.3986 32.0028 40.2513 31.9858 40.1069 31.9559C40.2544 31.9435 40.4028 31.9435 40.5503 31.9559L41.7606 31.994C42.7809 32.0258 44.1918 32.0576 45.7504 32.0545C47.309 32.0513 48.7164 32.0099 49.7402 31.975L50.947 31.9273C51.0957 31.915 51.2452 31.915 51.3939 31.9273Z" fill="#FAFAFA"/>
<path id="Vector_96" d="M43.439 29.4785C43.207 29.5891 42.9441 29.6363 42.6826 29.6144C42.42 29.6354 42.1562 29.5883 41.9226 29.4785C42.1754 29.458 42.4298 29.458 42.6826 29.4785C42.9342 29.4578 43.1874 29.4578 43.439 29.4785Z" fill="#FAFAFA"/>
<path id="Vector_97" d="M41.9261 30.9796C41.9261 30.9796 41.9824 31.0209 42.0739 31.1036C42.1946 31.2206 42.3361 31.3184 42.4926 31.393C42.6028 31.4487 42.7269 31.478 42.8532 31.478C42.9795 31.478 43.1036 31.4487 43.2138 31.393C43.35 31.3324 43.4591 31.2316 43.5231 31.1072C43.5871 30.9829 43.6021 30.8425 43.5657 30.7093C43.5362 30.5873 43.4636 30.4773 43.3589 30.3958C43.2542 30.3144 43.123 30.2659 42.9851 30.2577C42.8683 30.2526 42.7519 30.2751 42.6476 30.3231C42.5433 30.3711 42.4547 30.4428 42.3905 30.5312L42.3483 30.598L42.2991 30.5408C42.2272 30.458 42.1847 30.3575 42.1771 30.2525C42.1696 30.1475 42.1974 30.0429 42.2568 29.9525C42.3448 29.8284 42.4363 29.7998 42.4398 29.8062C42.3921 29.8599 42.3497 29.9174 42.3131 29.9779C42.2721 30.0582 42.2569 30.1474 42.2694 30.2351C42.2818 30.3228 42.3214 30.4056 42.3835 30.474H42.292C42.3625 30.3627 42.4654 30.271 42.5894 30.2088C42.7134 30.1466 42.8539 30.1162 42.9957 30.121C43.1271 30.1297 43.2541 30.1674 43.3657 30.2308C43.4772 30.2941 43.5699 30.3813 43.6355 30.4845C43.7011 30.5878 43.7378 30.704 43.7421 30.8231C43.7465 30.9421 43.7186 31.0602 43.6607 31.1672C43.5803 31.3021 43.458 31.4126 43.3088 31.4852C43.1687 31.553 43.0099 31.5828 42.8514 31.5711C42.7173 31.5597 42.5875 31.5217 42.4715 31.4598C42.3097 31.3721 42.1687 31.2564 42.0563 31.1195C41.9507 31.0432 41.9156 30.9828 41.9261 30.9796Z" fill="#FAFAFA"/>
<path id="Vector_98" d="M44.4558 31.3072C44.5576 31.0169 44.7058 30.7415 44.8956 30.4899C45.0432 30.2164 45.2353 29.9645 45.4656 29.7426C45.3638 30.0329 45.2156 30.3083 45.0258 30.5599C44.8782 30.8334 44.6861 31.0853 44.4558 31.3072Z" fill="#FAFAFA"/>
<path id="Vector_99" d="M45.747 31.6951C45.077 31.3263 44.5488 30.7801 44.2341 30.1306C44.2728 30.1115 44.5543 30.4994 44.9695 30.9287C45.3846 31.358 45.7752 31.6633 45.747 31.6951Z" fill="#FAFAFA"/>
<path id="Vector_100" d="M32.5425 26.9029C32.6338 26.9983 32.7482 27.0733 32.8768 27.1223C33.0524 27.1766 33.2417 27.1835 33.4216 27.1423C33.6015 27.1011 33.7643 27.0135 33.8901 26.8901C34.2358 26.4877 34.4261 25.994 34.4319 25.4846C34.4764 24.8567 34.4422 24.2262 34.3299 23.6052C34.2947 23.408 34.263 23.2172 34.2349 23.036H34.3827C34.4266 23.3336 34.4266 23.6351 34.3827 23.9327C34.34 24.2202 34.1808 24.4831 33.9358 24.6705C33.8265 24.7584 33.6937 24.819 33.5506 24.8464C33.4074 24.8737 33.2589 24.8668 33.1196 24.8263C32.8862 24.7469 32.69 24.5977 32.5636 24.4034C32.3996 24.1286 32.3218 23.8185 32.3385 23.5066C32.332 23.395 32.3391 23.283 32.3596 23.1727C32.3802 23.2777 32.3908 23.3841 32.3913 23.4907C32.3965 23.7898 32.4848 24.0828 32.6481 24.343C32.7669 24.5134 32.9452 24.6432 33.1547 24.7118C33.2757 24.7472 33.405 24.7523 33.5289 24.7265C33.6528 24.7007 33.7667 24.6451 33.8584 24.5656C34.0745 24.3936 34.2134 24.156 34.249 23.8978C34.2893 23.6117 34.2893 23.3221 34.249 23.036L34.3967 23.0169C34.4249 23.2013 34.4601 23.3921 34.4917 23.5893C34.6081 24.2196 34.6388 24.8603 34.5832 25.4973C34.5696 26.032 34.3577 26.5472 33.9816 26.9601C33.8176 27.1094 33.6036 27.2056 33.3729 27.2336C33.2011 27.2558 33.0258 27.2349 32.8662 27.1732C32.7662 27.1346 32.6789 27.0732 32.6129 26.9951C32.5531 26.9378 32.539 26.906 32.5425 26.9029Z" fill="#FAFAFA"/>
<path id="Vector_101" d="M37.4859 26.5944C37.4859 26.5944 37.4191 26.6803 37.2361 26.6803C37.1084 26.6703 36.9872 26.6254 36.8885 26.5516C36.7898 26.4777 36.7184 26.3784 36.6837 26.2669C36.6347 26.1185 36.6179 25.963 36.6345 25.8089C36.6345 25.6436 36.6837 25.475 36.6732 25.3097C36.6714 25.2288 36.6459 25.1498 36.5993 25.0807C36.551 25.0143 36.4769 24.9667 36.3917 24.9472C36.2228 24.9185 36.0962 25.103 36.0399 25.2906C35.9178 25.7429 35.8833 26.2109 35.9379 26.6739H35.8042C35.7619 26.2001 35.7303 25.8058 35.7127 25.5291C35.6951 25.3833 35.6951 25.2361 35.7127 25.0903C35.7595 25.2309 35.7879 25.3761 35.7971 25.5227C35.8393 25.7962 35.8886 26.1905 35.9449 26.6612H35.8112C35.7442 26.1832 35.7752 25.6981 35.9027 25.2302C35.9254 25.1151 35.9771 25.0063 36.054 24.9122C36.094 24.8633 36.1476 24.8248 36.2094 24.8008C36.2712 24.7768 36.339 24.768 36.4058 24.7754C36.5225 24.804 36.6252 24.8672 36.6973 24.9548C36.7694 25.0425 36.8068 25.1496 36.8034 25.2588C36.7974 25.4315 36.7785 25.6036 36.7471 25.774C36.7288 25.9153 36.7383 26.0585 36.7752 26.1969C36.8 26.2949 36.8564 26.384 36.9372 26.453C37.0179 26.5221 37.1195 26.5679 37.2291 26.5849C37.3129 26.6051 37.4006 26.6084 37.4859 26.5944Z" fill="#FAFAFA"/>
<path id="Vector_102" d="M45.7611 67.1331C45.7611 67.1331 44.6282 65.8611 43.1188 65.5749C41.6095 65.2887 39.7764 66.0614 39.0762 65.5749C38.3761 65.0883 36.1102 64.8053 35.8428 65.5081C35.5755 66.2109 35.9519 67.0377 37.4578 67.1331C38.4407 67.2057 39.4151 67.3525 40.371 67.5719C40.371 67.5719 32.3385 72.0557 31.9058 72.5422C31.473 73.0288 31.0438 73.5153 31.4238 73.9065C31.8038 74.2976 33.2568 73.3213 33.2568 73.3213L36.9195 72.9302C38.0741 73.1585 39.2582 73.2409 40.4378 73.1751C42.0563 73.0288 43.7803 71.9571 43.7803 71.9571L47.552 71.4197C47.552 71.4197 48.3471 67.963 45.7611 67.1331Z" fill="#FFBE9D"/>
<path id="Vector_103" d="M33.4291 73.2641C33.4466 73.2641 33.4291 73.1846 33.4291 73.0542C33.4514 72.8701 33.5362 72.6968 33.6718 72.5581C34.1817 72.1295 34.828 71.8569 35.519 71.779C36.2176 71.684 36.9265 71.6659 37.63 71.7249C37.9249 71.7619 38.2234 71.7694 38.5201 71.7472C38.2402 71.6522 37.9461 71.5954 37.6476 71.5787C36.9296 71.4756 36.1982 71.4756 35.4803 71.5787C34.7405 71.6608 34.0565 71.9761 33.5487 72.4691C33.4059 72.6372 33.3336 72.8456 33.3446 73.0574C33.3622 73.2005 33.415 73.2704 33.4291 73.2641Z" fill="#8B4A41"/>
<path id="Vector_104" d="M35.9413 71.3911C35.9694 71.4388 36.564 71.1907 37.2642 70.8346C37.9643 70.4784 38.5062 70.1477 38.4745 70.1C38.4428 70.0523 37.8517 70.2972 37.1516 70.6533C36.4514 71.0095 35.9096 71.3402 35.9413 71.3911Z" fill="#8B4A41"/>
<path id="Vector_105" d="M39.8257 68.8153C39.794 68.7707 39.2662 69.1778 39.0974 69.9028C38.9285 70.6279 39.2135 71.1939 39.2627 71.1748C39.312 71.1557 39.1572 70.612 39.319 69.9569C39.4809 69.3018 39.8784 68.8566 39.8257 68.8153Z" fill="#8B4A41"/>
<path id="Vector_106" d="M108.652 44.873L97.0449 42.4085L95.9507 40.7358L84.3084 40.9044L81.6027 43.5215L73.8447 46.9623L80.3572 71.6741L102.21 72.6885L108.652 44.873Z" fill="#263238"/>
<path id="Vector_107" d="M47.3477 64.7957L56.1437 65.5525C57.2703 65.2685 58.4615 65.2685 59.5881 65.5525C61.277 66.0486 63.9896 64.2583 63.9896 64.2583L67.8176 59.094C67.8176 59.094 69.5064 48.4887 71.4873 47.3598C73.4681 46.2309 73.6405 46.1832 73.6405 46.1832L77.1237 65.7147L72.5111 72.5517C72.5111 72.5517 68.4052 75.9988 66.7199 75.8685C65.0346 75.7381 44.7617 73.2386 44.7617 73.2386L47.3477 64.7957Z" fill="#FF725E"/>
<path id="Vector_108" d="M99.7154 42.8474L95.8452 40.4115L96.8444 44.2021L90.9019 64.2647C90.9019 64.2647 91.4754 79.287 91.2537 85.9586H111.277L105.957 77.7542L108.846 44.6409L99.7154 42.8474Z" fill="#FF725E"/>
<path id="Vector_109" d="M91.9784 85.9586L91.0883 63.6191C91.0883 63.6191 85.6137 57.7806 84.7059 51.904C83.7982 46.0274 83.4956 42.876 83.4956 42.876L84.3083 40.615L81.2755 43.3752C81.2755 43.3752 79.4776 43.9381 79.0941 44.0685C77.1025 44.7518 75.1508 45.5266 73.2466 46.3899L77.6375 77.1627C77.6375 77.1627 75.041 82.0695 73.2466 85.9745L91.9784 85.9586Z" fill="#FF725E"/>
<path id="Vector_110" d="M77.3383 74.1863C77.5424 75.1721 77.7113 75.9671 77.8379 76.5172L77.9857 77.1532C77.9988 77.2281 78.02 77.3016 78.049 77.3727C78.0512 77.2968 78.0429 77.2209 78.0244 77.1469C77.9963 76.9815 77.9611 76.7716 77.9153 76.5109C77.8098 75.9353 77.662 75.1403 77.4826 74.1704C77.1131 72.1734 76.6065 69.4545 76.0506 66.4525C75.4947 63.4506 74.9634 60.7126 74.5553 58.741C74.3547 57.7584 74.1823 56.9602 74.0592 56.4133C73.9994 56.1525 73.9501 55.9458 73.9114 55.7773C73.8974 55.7037 73.8762 55.6313 73.8481 55.561C73.8457 55.6357 73.8528 55.7104 73.8692 55.7836C73.9009 55.949 73.9361 56.1621 73.9818 56.4196C74.0873 56.9952 74.2351 57.787 74.4146 58.7569C74.784 60.754 75.2871 63.4729 75.8465 66.4748" fill="#263238"/>
<path id="Vector_111" d="M91.3662 68.2651C91.4401 68.2115 91.5084 68.1519 91.5703 68.0871L92.1227 67.5464L94.1493 65.5144L101.014 58.5184L101.056 58.4739L101.038 58.4199L99.9475 54.8678C99.781 54.3378 99.6191 53.8142 99.462 53.2969L99.3529 53.4336L103.906 53.2746H104.061L104.008 53.1442L100.954 45.738C100.577 44.8444 100.278 44.1258 100.06 43.6106L99.8138 43.0477C99.788 42.9814 99.755 42.9175 99.7153 42.8569C99.7267 42.9269 99.748 42.9953 99.7787 43.0605C99.8326 43.2067 99.903 43.3975 99.9897 43.6329C100.194 44.1544 100.475 44.8794 100.824 45.7825L103.797 53.2301L103.895 53.0934L99.3424 53.2396H99.1911L99.2333 53.37C99.3928 53.8852 99.5535 54.4088 99.7153 54.9409C100.095 56.1652 100.461 57.3577 100.813 58.493L100.838 58.3944L94.0367 65.4286L92.0593 67.5019C91.8447 67.7373 91.6688 67.9217 91.5386 68.0648C91.475 68.1271 91.4173 68.1941 91.3662 68.2651Z" fill="#263238"/>
<path id="Vector_112" d="M91.9221 85.9618C91.9854 85.9618 91.8658 80.8738 91.6512 74.6219C91.4365 68.37 91.2114 63.2852 91.1445 63.2884C91.0777 63.2916 91.1973 68.3764 91.4119 74.6283C91.6265 80.8802 91.8552 85.9618 91.9221 85.9618Z" fill="#263238"/>
<path id="Vector_113" d="M81.3037 43.248C81.2778 43.3246 81.2613 43.4035 81.2544 43.4834C81.2263 43.6583 81.1876 43.8872 81.1418 44.1702C81.0539 44.8062 80.9272 45.6553 80.79 46.7142C80.4874 48.9148 80.0863 51.9644 79.5938 55.4497V55.5928L79.7486 55.5674L82.2712 55.1762L82.1411 55.0236C81.9898 55.3416 81.8244 55.6596 81.6626 55.9967L80.7161 57.9047L80.6845 57.9683L80.7337 58.0191L87.7282 65.349L89.8393 67.5083L90.4127 68.0838C90.5464 68.2142 91.4155 68.8057 91.419 68.7993C91.4225 68.793 90.5676 68.1983 90.4479 68.0584L89.9061 67.4574L87.8654 65.2568C86.1063 63.3806 83.6751 60.8048 80.9307 57.8792V57.9905C81.2368 57.38 81.5535 56.7185 81.8807 56.0825C82.0425 55.7645 82.2079 55.4179 82.3592 55.1094L82.4507 54.925L82.2325 54.96L79.7099 55.3575L79.8436 55.472C80.2869 51.974 80.6774 48.9307 80.9554 46.7301C81.082 45.6553 81.1841 44.7872 81.258 44.1639C81.2896 43.8809 81.3107 43.6519 81.3283 43.477C81.3286 43.4001 81.3203 43.3234 81.3037 43.248Z" fill="#263238"/>
<g id="Group" opacity="0.3">
<path id="Vector_114" d="M103.902 53.1855C103.825 53.4113 102.189 53.6371 101.904 54.2604C101.619 54.8837 101.759 55.596 101.96 56.2447C102.161 56.8934 102.428 57.5517 102.379 58.2258C102.287 59.4342 101.232 60.3755 100.247 61.196C97.4882 63.4856 94.1246 65.966 91.3662 68.2651C93.808 65.4508 96.9956 62.5411 99.6942 59.9176C100.127 59.5588 100.463 59.1149 100.676 58.6202C100.89 57.9842 100.676 57.3036 100.472 56.6676C100.195 55.8196 99.9182 54.9716 99.6414 54.1236C99.5711 53.9074 99.4163 53.5417 99.3776 53.424C99.7157 53.3594 100.059 53.3211 100.405 53.3096C101.566 53.1919 102.734 53.1452 103.902 53.1696" fill="black"/>
</g>
<path id="Vector_115" d="M108.842 44.6409C108.842 44.6409 112.663 45.8556 113.859 49.554C115.055 53.2523 115.97 58.4039 117.173 61.638C118.377 64.872 117.427 65.136 118.102 66.4398C118.778 67.7436 121.554 71.7249 119.429 74.6569C117.304 77.5888 115.185 79.2679 111.206 77.8369C108.876 77.0161 106.763 75.7602 105.007 74.1513L108.842 44.6409Z" fill="#FF725E"/>
<path id="Vector_116" d="M111.213 51.4111C111.197 51.5026 111.19 51.5952 111.192 51.6878C111.192 51.8881 111.192 52.1521 111.192 52.4828C111.192 52.6577 111.192 52.8485 111.192 53.0584C111.192 53.2683 111.157 53.494 111.136 53.7389C111.09 54.2254 111.066 54.7851 110.957 55.3957C110.911 55.7137 110.862 56.0317 110.812 56.3497C110.763 56.6677 110.675 57.027 110.605 57.3864C110.474 58.1019 110.27 58.8555 110.073 59.6537C109.651 61.2437 109.12 62.9768 108.55 64.7958C107.98 66.6147 107.47 68.3605 107.072 69.9601C106.893 70.7646 106.72 71.5246 106.59 72.2465C106.53 72.609 106.46 72.9556 106.414 73.2895C106.369 73.6234 106.34 73.9478 106.305 74.2594C106.221 74.8732 106.221 75.436 106.2 75.9258C106.2 76.1738 106.175 76.3996 106.179 76.6126C106.182 76.8257 106.2 77.0133 106.207 77.1882C106.228 77.5062 106.242 77.7829 106.256 77.9832C106.258 78.0761 106.268 78.1687 106.288 78.2599C106.296 78.1667 106.296 78.0732 106.288 77.98C106.288 77.7797 106.288 77.5158 106.288 77.185C106.288 77.0101 106.288 76.8193 106.288 76.6126C106.288 76.4059 106.312 76.1738 106.323 75.9289C106.358 75.4424 106.369 74.8827 106.467 74.2722C106.506 73.9542 106.548 73.6362 106.59 73.3182C106.632 73.0002 106.713 72.6408 106.777 72.2815C106.896 71.566 107.09 70.8091 107.276 70.0078C107.684 68.4178 108.202 66.6783 108.768 64.8594C109.335 63.0404 109.862 61.3009 110.277 59.7046C110.467 58.9032 110.664 58.1432 110.791 57.4213C110.858 57.062 110.935 56.7186 110.985 56.3815C111.034 56.0444 111.073 55.7264 111.115 55.4275C111.213 54.8137 111.227 54.2509 111.263 53.7612C111.263 53.5163 111.298 53.2873 111.301 53.0775C111.305 52.8676 111.301 52.6736 111.301 52.4987C111.301 52.1807 111.284 51.904 111.277 51.7037C111.268 51.6044 111.246 51.5062 111.213 51.4111Z" fill="#263238"/>
<path id="Vector_117" d="M107.776 64.783C107.776 64.8212 108.342 64.6876 109.261 64.6049C111.663 64.3898 114.079 64.8566 116.174 65.9405C116.973 66.3571 117.42 66.6847 117.444 66.6529C117.469 66.6211 117.353 66.5543 117.152 66.4016C116.871 66.1854 116.571 65.9898 116.255 65.8165C114.164 64.6374 111.682 64.157 109.24 64.4587C108.873 64.5024 108.511 64.5704 108.156 64.6622C108.023 64.6851 107.895 64.7259 107.776 64.783Z" fill="#263238"/>
<path id="Vector_118" d="M63.3635 64.7385C63.3635 64.7703 63.7576 64.9802 64.3698 65.3745C65.9644 66.4426 67.2242 67.8672 68.0254 69.5085C68.3315 70.1445 68.4687 70.5452 68.5039 70.5356C68.5391 70.5261 68.5039 70.4275 68.4511 70.2367C68.3783 69.9698 68.2867 69.7075 68.1767 69.4512C67.44 67.7436 66.1437 66.2801 64.4613 65.2568C64.2095 65.1026 63.9462 64.9645 63.6731 64.8434C63.4796 64.7671 63.3706 64.7258 63.3635 64.7385Z" fill="#263238"/>
<path id="Vector_119" d="M93.1852 17.5727C94.3814 16.8858 94.6699 15.2927 94.0226 14.1542C93.3752 13.0158 91.9995 12.3257 90.5992 12.1222C89.5805 11.981 88.5394 12.0598 87.5609 12.3522C86.5825 12.6446 85.6945 13.1422 84.9698 13.8044C84.1993 14.5231 83.5624 15.4612 82.528 15.7887C81.6062 16.0781 80.5894 15.8174 79.6219 15.9318C78.3271 16.0813 77.2188 16.9145 76.5538 17.9321C75.9344 18.9747 75.5629 20.1229 75.4632 21.3029C75.3224 22.3809 75.2274 23.5607 74.4076 24.3461C73.5879 25.1316 72.3283 25.2747 71.3291 25.8185C70.4114 26.3672 69.767 27.2179 69.5331 28.1896C69.2991 29.1614 69.4941 30.1772 70.0765 31.0209C70.4706 31.5425 71.0406 32.0226 71.0863 32.6555C71.1285 33.231 70.7169 33.7462 70.5234 34.2995C70.0237 35.7178 71.3115 37.4064 72.9581 37.4795C73.7884 37.524 74.6785 37.2315 75.4209 37.5686C76.1633 37.9056 76.4377 38.707 76.9092 39.3207C77.3956 39.9138 78.0926 40.3378 78.8836 40.5219C79.6746 40.706 80.5116 40.6389 81.2544 40.332C81.8631 40.0617 82.4401 39.6133 83.1191 39.6546C83.7982 39.696 84.333 40.2207 84.9979 40.3352C85.8705 40.4878 86.7008 39.9059 87.218 39.254C87.7352 38.6021 88.1012 37.8325 88.7626 37.3014C89.6352 36.6018 90.8736 36.4269 91.9573 36.0867C93.1766 35.7069 94.2914 35.0948 95.2263 34.2919C96.1613 33.489 96.8946 32.514 97.3766 31.4329C97.8586 30.3517 98.0781 29.1896 98.0203 28.0251C97.9624 26.8606 97.6286 25.721 97.0413 24.6832" fill="#263238"/>
<path id="Vector_120" d="M95.7922 42.8474L95.9646 35.1327L97.5866 22.117C97.6103 21.6689 97.4471 21.229 97.1291 20.8845C96.8111 20.54 96.3617 20.3159 95.8696 20.2567L85.4377 17.5887C82.0847 17.1784 79.7273 20.8672 79.4177 23.9137C79.0659 27.3004 78.8055 31.4439 79.1715 33.9847C79.9033 39.0982 84.1992 39.855 84.1992 39.855L84.0479 43.0954L90.5393 47.8018L95.7922 42.8474Z" fill="#FFBE9D"/>
<path id="Vector_121" d="M80.6809 27.7106C80.6741 27.8807 80.7408 28.0465 80.8669 28.173C80.993 28.2994 81.1685 28.3765 81.3564 28.3879C81.5404 28.4022 81.7232 28.3504 81.8653 28.244C82.0075 28.1375 82.0977 27.9847 82.1164 27.8187C82.1226 27.7341 82.11 27.6493 82.0794 27.5692C82.0488 27.4891 82.0007 27.4153 81.9381 27.3522C81.8755 27.2891 81.7996 27.2379 81.7148 27.2017C81.63 27.1655 81.5381 27.145 81.4444 27.1414C81.2598 27.1263 81.0761 27.1776 80.9332 27.2842C80.7903 27.3907 80.6996 27.544 80.6809 27.7106Z" fill="#263238"/>
<path id="Vector_122" d="M80.3466 26.0983C80.4346 26.1842 80.994 25.8344 81.754 25.8566C82.514 25.8789 83.091 26.2414 83.1789 26.1746C83.2669 26.1079 83.1332 25.9807 82.8904 25.8121C82.5601 25.5932 82.1635 25.4711 81.754 25.4623C81.3505 25.4519 80.9537 25.5577 80.6211 25.7644C80.3889 25.9075 80.3044 26.057 80.3466 26.0983Z" fill="#263238"/>
<path id="Vector_123" d="M87.9991 27.8664C87.9934 27.9509 88.0065 28.0357 88.0375 28.1156C88.0686 28.1956 88.117 28.2691 88.1799 28.3319C88.2428 28.3947 88.319 28.4455 88.404 28.4814C88.4889 28.5172 88.581 28.5373 88.6746 28.5405C88.8586 28.5547 89.0414 28.503 89.1835 28.3965C89.3257 28.2901 89.4159 28.1373 89.4346 27.9713C89.4403 27.887 89.4274 27.8025 89.3965 27.7227C89.3657 27.643 89.3176 27.5696 89.255 27.5068C89.1925 27.4441 89.1167 27.3932 89.0322 27.3572C88.9476 27.3212 88.856 27.3008 88.7626 27.2971C88.5781 27.2821 88.3944 27.3334 88.2514 27.4399C88.1085 27.5465 88.0178 27.6997 87.9991 27.8664Z" fill="#263238"/>
<path id="Vector_124" d="M87.978 26.4259C88.066 26.5117 88.6254 26.1619 89.4029 26.181C90.1805 26.2001 90.7364 26.569 90.8103 26.499C90.8842 26.429 90.7681 26.305 90.5218 26.1365C90.1926 25.918 89.7972 25.7959 89.3889 25.7867C88.9846 25.7748 88.5866 25.8795 88.2524 26.0856C88.0237 26.235 87.9358 26.3845 87.978 26.4259Z" fill="#263238"/>
<path id="Vector_125" d="M84.9979 31.5584C84.5914 31.434 84.1696 31.355 83.7418 31.323C83.5448 31.2976 83.3548 31.2563 83.3267 31.1354C83.3153 30.95 83.3669 30.7658 83.4744 30.6075L84.1042 29.256C84.9803 27.348 85.6206 25.758 85.5362 25.7199C85.4518 25.6817 84.6707 27.2208 83.777 29.1447C83.5659 29.6186 83.3619 30.0701 83.1719 30.5026C83.0406 30.7164 82.9958 30.9649 83.0452 31.2054C83.0728 31.2692 83.1159 31.3266 83.1713 31.3734C83.2267 31.4202 83.293 31.4551 83.3654 31.4757C83.4798 31.506 83.598 31.5231 83.7172 31.5265C84.1408 31.5872 84.5713 31.5979 84.9979 31.5584Z" fill="#263238"/>
<path id="Vector_126" d="M84.1992 39.855C86.8489 39.9594 89.4786 39.3969 91.7954 38.23C91.7954 38.23 89.8568 41.6803 84.2379 41.0602L84.1992 39.855Z" fill="#8B4A41"/>
<path id="Vector_127" d="M87.7283 23.5257C87.7986 23.7165 88.5762 23.6466 89.4874 23.7706C90.3987 23.8946 91.127 24.1363 91.2466 23.9677C91.3029 23.8882 91.1798 23.7038 90.8948 23.513C90.5056 23.2763 90.0619 23.123 89.5974 23.0646C89.1328 23.0062 88.6596 23.0442 88.2138 23.1759C87.8725 23.2872 87.6966 23.4335 87.7283 23.5257Z" fill="#263238"/>
<path id="Vector_128" d="M80.6949 23.6879C80.8286 23.8501 81.3669 23.6879 82.0108 23.707C82.6546 23.7261 83.1965 23.8469 83.3266 23.6815C83.3864 23.602 83.3055 23.4399 83.0698 23.284C82.7572 23.0958 82.3899 22.9953 82.0143 22.9953C81.6386 22.9953 81.2714 23.0958 80.9588 23.284C80.7195 23.4462 80.6386 23.6084 80.6949 23.6879Z" fill="#263238"/>
<path id="Vector_129" d="M87.4291 32.9989C87.5734 33.1699 87.6698 33.3699 87.7103 33.5818C87.7508 33.7937 87.734 34.0113 87.6615 34.2161C87.5889 34.4209 87.4628 34.6068 87.2937 34.7581C87.1246 34.9094 86.9176 35.0215 86.6902 35.085C86.51 35.1405 86.3145 35.1405 86.1343 35.085C85.9886 35.0113 85.861 34.9116 85.7594 34.7919C85.6577 34.6721 85.5842 34.5349 85.5432 34.3886C85.4377 34.1564 85.3356 33.9211 85.2336 33.689C85.2042 33.6532 85.1867 33.6106 85.1831 33.5662C85.1794 33.5217 85.1898 33.4773 85.213 33.438C85.2363 33.3986 85.2714 33.3661 85.3143 33.3441C85.3571 33.3221 85.406 33.3116 85.4553 33.3137L87.3693 32.894" fill="#8B4A41"/>
<path id="Vector_130" d="M86.0007 35.0882C86.3235 35.1294 86.6527 35.0921 86.9542 34.9801C87.3065 34.8774 87.6038 34.6597 87.7881 34.3695C87.8953 34.1896 87.9395 33.9844 87.9147 33.7812C87.902 33.5722 87.8459 33.3673 87.7494 33.177C87.6551 32.9909 87.5212 32.8234 87.3553 32.6841L87.299 32.6364L87.2321 32.6587C85.8424 33.1039 84.7693 33.3265 84.7693 33.3805C84.7693 33.4346 85.8987 33.301 87.3096 32.8717L87.1864 32.8463C87.332 32.9673 87.4514 33.1118 87.5382 33.2724C87.6297 33.4088 87.686 33.562 87.703 33.7207C87.72 33.8794 87.6972 34.0396 87.6364 34.1892C87.5756 34.3389 87.4782 34.4743 87.3516 34.5853C87.225 34.6964 87.0723 34.7802 86.9049 34.8306C86.3666 35.0246 85.9902 35.0469 86.0007 35.0882Z" fill="#263238"/>
<path id="Vector_131" d="M75.625 22.842C75.8575 22.0634 76.3824 21.3821 77.1097 20.9149C77.5397 20.7154 77.9577 20.4957 78.3622 20.2566C79.175 19.662 79.365 18.6317 79.8646 17.8017C80.1954 17.2687 80.6618 16.8144 81.2253 16.4766C81.7887 16.1387 82.4331 15.9269 83.105 15.8587C84.2203 15.7569 85.3708 16.059 86.458 15.811C87.2602 15.6266 87.9639 15.1559 88.7766 15.016C90.3634 14.7457 91.8376 15.7728 92.9987 16.7968C92.9987 17.8239 92.098 18.5076 91.2395 19.1659C90.8011 19.4942 90.2889 19.7325 89.7385 19.8643C89.1881 19.9961 88.6126 20.0182 88.0519 19.9291C87.1828 19.786 86.2364 19.3885 85.4834 19.8051C84.7305 20.2217 84.6637 21.3188 83.9635 21.8689C82.9643 22.6512 81.374 21.9166 80.0933 22.2569C79.1117 22.5208 78.4995 23.3667 77.8486 24.079C77.1977 24.7913 76.2231 25.4687 75.2415 25.2047C75.2683 24.4064 75.3969 23.6136 75.625 22.842Z" fill="#263238"/>
<path id="Vector_132" d="M87.5206 18.5077C88.2243 18.3232 89.688 17.9098 90.0679 17.3502C90.8948 16.1418 92.3549 15.315 93.8467 15.3881C94.619 15.443 95.3509 15.7223 95.9331 16.1843C96.5153 16.6463 96.9164 17.2661 97.0765 17.9512C98.0038 17.9809 98.905 18.2362 99.6852 18.6901C100.465 19.144 101.096 19.7796 101.51 20.5302C101.618 20.7234 101.712 20.9232 101.791 21.128C102.072 21.577 102.241 22.0761 102.286 22.5902C102.331 23.1044 102.251 23.6212 102.052 24.1045C101.805 24.6832 101.387 25.3288 101.7 25.8757C102.013 26.4227 102.885 26.4481 103.547 26.6548C104.119 26.8488 104.597 27.2187 104.898 27.6996C105.198 28.1805 105.302 28.7417 105.19 29.2847C105.098 29.6695 104.894 30.0543 104.982 30.4422C105.07 30.8302 105.457 31.1291 105.749 31.4439C106.115 31.8371 106.359 32.31 106.459 32.8155C106.558 33.3209 106.509 33.8411 106.317 34.3241C106.124 34.807 105.794 35.2358 105.361 35.5674C104.927 35.8991 104.405 36.122 103.846 36.2139C103.343 36.2966 102.79 36.2775 102.354 36.5319C101.854 36.8118 101.65 37.3587 101.299 37.7848C100.947 38.1869 100.47 38.4836 99.9285 38.6363C99.3873 38.7889 98.8078 38.7903 98.2657 38.6403C98.0496 38.574 97.8448 38.4809 97.6571 38.3636C97.3052 38.7897 96.788 39.0759 95.8768 39.0759L96.0879 28.3466C96.0243 28.4765 95.9272 28.5907 95.8048 28.6798C95.6824 28.7689 95.5382 28.8302 95.3842 28.8586C93.4808 29.2465 93.2028 25.6977 93.625 24.7246C92.9076 24.1918 92.2659 23.5808 91.7145 22.9056C91.1903 22.2028 90.7259 20.2885 90.8385 19.4267C90.1453 19.4617 87.2181 18.5904 87.5206 18.5077Z" fill="#263238"/>
<path id="Vector_133" d="M95.5742 29.202C95.6341 28.1113 97.1082 27.8791 98.1567 28.4229C98.7302 28.7409 99.17 29.326 99.1172 30.4836C98.9765 33.5713 95.5742 32.8081 95.5742 32.7096C95.5742 32.611 95.5039 30.474 95.5742 29.202Z" fill="#FFBE9D"/>
<path id="Vector_134" d="M96.6685 31.5934C96.6685 31.5934 96.7283 31.6347 96.8268 31.6792C96.9652 31.7398 97.1243 31.749 97.2701 31.7047C97.6219 31.5997 97.9738 31.0909 98.0054 30.5344C98.0256 30.2703 97.9812 30.0054 97.8753 29.7585C97.8464 29.6614 97.7924 29.5718 97.7178 29.4972C97.6432 29.4226 97.55 29.365 97.446 29.3292C97.3789 29.3124 97.3075 29.3169 97.2435 29.3417C97.1796 29.3666 97.1269 29.4104 97.0942 29.466C97.0449 29.5486 97.066 29.6122 97.0449 29.6154C97.0238 29.6186 96.9745 29.5614 97.0097 29.4342C97.0313 29.3588 97.081 29.2925 97.1505 29.2465C97.2481 29.186 97.3679 29.1621 97.4847 29.1798C97.6237 29.2101 97.7517 29.2723 97.8565 29.3603C97.9612 29.4483 98.0392 29.5591 98.0828 29.6822C98.218 29.9544 98.2761 30.2528 98.2517 30.5503C98.2025 31.1704 97.8225 31.7397 97.3229 31.851C97.2299 31.8715 97.133 31.873 97.0393 31.8554C96.9455 31.8378 96.8573 31.8015 96.781 31.7492C96.6685 31.6697 96.6685 31.5997 96.6685 31.5934Z" fill="#8B4A41"/>
<path id="Vector_135" d="M92.2354 17.6745C92.5014 17.7983 92.7334 17.9743 92.9144 18.1897C93.2662 18.6126 93.3823 19.4171 93.1677 20.3266V20.4029L93.2521 20.422C93.743 20.5417 94.1968 20.762 94.5782 21.0659C94.9595 21.3698 95.2583 21.749 95.4511 22.1742C95.5573 22.4144 95.6168 22.6694 95.627 22.9279C95.6201 23.2027 95.5847 23.4763 95.5215 23.7451C95.4536 24.0343 95.4101 24.3277 95.3913 24.6228C95.3663 24.9448 95.4617 25.2651 95.6622 25.5323C96.088 26.1174 96.7705 26.4036 97.3546 26.6834C97.9379 26.9137 98.4743 27.2308 98.9414 27.6215C99.7151 28.3066 100.172 29.232 100.219 30.2101C100.242 30.8697 100.087 31.5245 99.7682 32.1181C99.5395 32.5378 99.3495 32.7541 99.3706 32.7541C99.4256 32.7137 99.4742 32.6666 99.5149 32.6141C99.6463 32.4708 99.764 32.3176 99.8667 32.1562C100.23 31.5597 100.414 30.8877 100.401 30.2069C100.378 29.1822 99.9165 28.2055 99.1138 27.4816C98.6336 27.0714 98.0805 26.7371 97.4777 26.4926C96.8901 26.216 96.2463 25.9298 95.8769 25.4146C95.5004 24.9472 95.6693 24.3334 95.7678 23.7801C95.833 23.4986 95.8683 23.2122 95.8733 22.9247C95.8605 22.6416 95.7926 22.3628 95.6728 22.1011C95.4655 21.6491 95.1435 21.2475 94.7328 20.9287C94.3221 20.61 93.8341 20.383 93.3085 20.2662L93.3718 20.3616C93.5758 19.4076 93.414 18.5744 93.0199 18.1356C92.8681 17.9661 92.6706 17.8347 92.4464 17.754C92.3805 17.7188 92.3094 17.6921 92.2354 17.6745Z" fill="#455A64"/>
<path id="Vector_136" d="M108.504 62.1754C107.723 62.7015 106.91 63.1878 106.069 63.6319C105.52 63.8449 104.064 65.0152 103.712 66.2236C103.36 67.432 102.414 68.0362 102.101 68.6022C101.787 69.1683 101.787 71.5151 101.826 72.1002C101.865 72.6853 99.9403 74.0082 99.8207 74.2658C99.7011 74.5234 99.5463 75.118 100.056 75.2611C100.278 75.3352 100.516 75.3578 100.75 75.3266C100.984 75.2955 101.205 75.2117 101.393 75.0831C101.668 74.835 102.801 73.9446 102.801 73.9446C102.801 73.9446 102.685 75.0481 103.075 75.118C103.414 75.1562 103.757 75.1562 104.096 75.118L105.552 73.1655C105.552 73.1655 105.904 74.5488 106.534 74.4089C107.164 74.269 107.554 74.1227 107.635 73.2705C107.723 72.6271 107.895 71.9953 108.145 71.3879V70.6788C108.145 70.6788 108.968 71.601 109.598 71.461C110.228 71.3211 110.502 71.0349 110.541 70.825C110.489 70.0733 110.357 69.3278 110.147 68.599C109.927 67.9933 109.665 67.4006 109.363 66.8246C109.363 66.8246 109.011 65.26 109.401 64.659C109.792 64.058 111.994 62.3503 112.269 61.7811C112.543 61.2119 112.937 60.3597 111.994 60.0417C111.051 59.7237 109.862 61.32 108.504 62.1754Z" fill="#FFBE9D"/>
<path id="Vector_137" d="M103.899 67.0122C103.899 67.0313 104.029 67.1585 104.317 67.2952C104.696 67.4673 105.11 67.5678 105.534 67.5908C105.957 67.6137 106.381 67.5586 106.78 67.4288C107.086 67.3238 107.248 67.2125 107.238 67.1903C107.227 67.168 106.488 67.4447 105.538 67.3874C104.588 67.3302 103.93 66.955 103.899 67.0122Z" fill="#8B4A41"/>
<path id="Vector_138" d="M102.938 74.0718C102.991 74.1036 103.29 73.7538 103.512 73.2545C103.733 72.7553 103.723 72.3005 103.663 72.3005C103.603 72.3005 103.494 72.7044 103.311 73.1878C103.128 73.6711 102.885 74.04 102.938 74.0718Z" fill="#8B4A41"/>
<path id="Vector_139" d="M105.517 73.2069C105.57 73.2323 105.816 72.8539 105.925 72.3324C106.034 71.8108 105.971 71.3784 105.925 71.3784C105.819 71.6746 105.749 71.9807 105.718 72.291C105.595 72.7871 105.464 73.1846 105.517 73.2069Z" fill="#8B4A41"/>
<path id="Vector_140" d="M122.641 85.9586C122.641 85.3894 122.609 52.2506 122.564 0.839578L122.641 0.909537L0.968622 0.922257L1.0601 0.839578C1.0601 31.5075 1.0601 60.5218 1.0601 85.9586L0.975655 85.8823L122.659 85.9586L0.968622 86.0318H0.887695V85.9586C0.887695 60.5186 0.887695 31.5075 0.887695 0.839578V0.756897H0.968622L122.641 0.772797H122.704V0.839578C122.669 52.2443 122.641 85.3894 122.641 85.9586Z" fill="#263238"/>
</g>
</svg>
