<svg width="27" height="48" viewBox="0 0 27 48" fill="none" xmlns="http://www.w3.org/2000/svg">
<g id="freepik--Plant--inject-106">
<path id="Vector" d="M2.76685 32.4548L5.36693 47.9065H20.4819L23.9897 32.6774L2.76685 32.4548Z" fill="#FF725E"/>
<path id="Vector_2" d="M21.8753 42.3573C21.8753 42.4019 18.0051 42.4368 13.2271 42.4368C8.44917 42.4368 4.57544 42.4019 4.57544 42.3573C4.57544 42.3128 8.44565 42.2778 13.2271 42.2778C18.0086 42.2778 21.8753 42.3128 21.8753 42.3573Z" fill="#FAFAFA"/>
<path id="Vector_3" d="M21.935 41.5973C21.935 41.6418 18.0331 41.6768 13.227 41.6768C8.42092 41.6768 4.51904 41.6418 4.51904 41.5973C4.51904 41.5528 8.4174 41.5178 13.227 41.5178C18.0366 41.5178 21.935 41.556 21.935 41.5973Z" fill="#FAFAFA"/>
<path id="Vector_4" d="M21.9032 40.7387C21.9032 40.7833 18.0049 40.8182 13.1953 40.8182C8.38566 40.8182 4.4873 40.7833 4.4873 40.7387C4.4873 40.6942 8.38566 40.6592 13.1953 40.6592C18.0049 40.6592 21.9032 40.6942 21.9032 40.7387Z" fill="#FAFAFA"/>
<path id="Vector_5" d="M7.10513 47.0256C6.73834 45.7391 6.48771 44.4278 6.35571 43.1047C6.56323 43.7429 6.71614 44.3946 6.8131 45.054C6.96824 45.7032 7.0659 46.3625 7.10513 47.0256Z" fill="#FAFAFA"/>
<path id="Vector_6" d="M8.13237 46.8603C8.02273 46.2287 7.95927 45.5913 7.94239 44.9523C7.86575 44.3187 7.83285 43.6815 7.84387 43.0443C8.0101 43.6697 8.10325 44.3092 8.12182 44.9523C8.19609 45.5863 8.19962 46.2255 8.13237 46.8603Z" fill="#FAFAFA"/>
<path id="Vector_7" d="M10.0042 46.8603C9.80011 46.2255 9.66924 45.5733 9.61369 44.9141C9.49704 44.2604 9.45811 43.5973 9.49758 42.9362C9.71785 44.2384 9.88684 45.5472 10.0042 46.8603Z" fill="#FAFAFA"/>
<path id="Vector_8" d="M11.32 46.9398C11.1774 46.2895 11.1078 45.6279 11.1125 44.965C11.0573 44.3022 11.0797 43.636 11.1793 42.9775C11.2778 44.2963 11.3247 45.6179 11.32 46.9398Z" fill="#FAFAFA"/>
<path id="Vector_9" d="M13.6493 46.8603C13.4851 45.6132 13.438 44.3558 13.5085 43.1015C13.6727 44.3486 13.7197 45.606 13.6493 46.8603Z" fill="#FAFAFA"/>
<path id="Vector_10" d="M15.3485 46.943C15.2659 46.2982 15.2424 45.6483 15.2782 45C15.255 44.3519 15.2903 43.7031 15.3837 43.0602C15.4668 43.7039 15.4915 44.3526 15.4576 45C15.4806 45.6492 15.4442 46.2991 15.3485 46.943Z" fill="#FAFAFA"/>
<path id="Vector_11" d="M16.946 46.7362C16.9707 45.3797 17.1154 44.027 17.3788 42.6913C17.3997 43.3746 17.3609 44.0583 17.2627 44.736C17.2125 45.409 17.1066 46.0776 16.946 46.7362Z" fill="#FAFAFA"/>
<path id="Vector_12" d="M19.0007 46.5327C19.0057 45.9499 19.0908 45.3698 19.2541 44.806C19.3618 44.232 19.551 43.673 19.817 43.1428C19.7232 43.715 19.594 44.2819 19.43 44.8409C19.321 45.4115 19.1777 45.9762 19.0007 46.5327Z" fill="#FAFAFA"/>
<path id="Vector_13" d="M17.5441 1.9682C17.542 1.99424 17.5361 2.01991 17.5265 2.04452L17.4561 2.26076C17.3857 2.46428 17.2908 2.74411 17.1676 3.09391C17.0445 3.44371 16.8861 3.89846 16.7243 4.4168C16.5624 4.93514 16.3725 5.52026 16.1789 6.17852C15.9854 6.83678 15.7814 7.55227 15.5914 8.33137C15.4014 9.11047 15.2044 9.94046 15.0073 10.8181C14.6555 12.5799 14.3036 14.5292 14.082 16.5835C13.8603 18.6378 13.7583 20.6125 13.7302 22.4029C13.7302 23.2996 13.7302 24.1519 13.7583 24.9469C13.7865 25.7419 13.8181 26.486 13.8639 27.1729C13.9096 27.8598 13.9659 28.4449 14.0116 28.9982C14.0574 29.5515 14.1101 29.9967 14.1594 30.372C14.2087 30.7472 14.2333 31.0302 14.2579 31.2433C14.2579 31.3323 14.2755 31.4086 14.279 31.4691C14.2825 31.5295 14.279 31.5454 14.279 31.5454C14.2679 31.5221 14.2608 31.4974 14.2579 31.4722C14.2579 31.4118 14.2333 31.3355 14.2192 31.2465C14.1875 31.0366 14.1418 30.7472 14.0855 30.3815C14.0292 30.0158 13.9624 29.5452 13.9096 29.0077C13.8568 28.4703 13.7759 27.8598 13.7337 27.1824C13.6915 26.5051 13.6281 25.761 13.607 24.9564C13.5859 24.1519 13.5683 23.306 13.5613 22.4124C13.5824 20.6157 13.6809 18.6409 13.9131 16.5771C14.1453 14.5133 14.4831 12.564 14.856 10.7991C15.0566 9.92138 15.2395 9.08504 15.4542 8.30912C15.6688 7.5332 15.8658 6.81452 16.0664 6.15944C16.2669 5.50436 16.4639 4.91606 16.6363 4.4009C16.8087 3.88574 16.9706 3.44689 17.1113 3.08437L17.428 2.26076C17.4667 2.1749 17.4948 2.10494 17.5159 2.0477C17.5221 2.02036 17.5315 1.9937 17.5441 1.9682Z" fill="#455A64"/>
<path id="Vector_14" d="M14.8173 11.5336C15.235 10.4217 16.0654 9.47458 17.1676 8.85291C17.5405 8.64303 18.0155 8.47131 18.4096 8.64621C18.9373 8.87517 18.9795 9.54615 18.8212 10.0549C18.551 10.921 17.9438 11.6697 17.1113 12.1633C16.3754 12.6569 15.4533 12.8672 14.5464 12.7484" fill="#455A64"/>
<path id="Vector_15" d="M13.8989 17.9954C14.2895 16.6598 15.4681 14.7645 16.689 13.9409C16.8742 13.7974 17.0897 13.6892 17.3223 13.6229C17.4387 13.593 17.5614 13.5892 17.6798 13.6119C17.7981 13.6347 17.9085 13.6832 18.0014 13.7533C18.1052 13.8786 18.1733 14.0251 18.1997 14.1798C18.2261 14.3345 18.2099 14.4927 18.1527 14.6405C17.9043 15.6148 17.3601 16.5072 16.5813 17.2173C15.8025 17.9274 14.8199 18.427 13.7441 18.66" fill="#455A64"/>
<path id="Vector_16" d="M13.6458 23.6813C14.2527 22.4077 15.2243 21.3035 16.4605 20.4822C16.5919 20.3721 16.7467 20.2872 16.9153 20.2326C17.084 20.178 17.2632 20.1547 17.4421 20.1642C17.9769 20.25 18.2196 20.8383 18.1704 21.3281C18.0754 22.3329 17.2239 23.1407 16.3479 23.7671C15.5409 24.2691 14.6659 24.6753 13.7443 24.9755" fill="#455A64"/>
<path id="Vector_17" d="M13.79 27.7675C14.3778 26.7982 15.1947 25.9578 16.1825 25.3062C16.389 25.161 16.6299 25.0609 16.8862 25.0136C17.0167 24.9932 17.1509 25.0049 17.2747 25.0474C17.3984 25.0899 17.5073 25.1617 17.5899 25.2553C17.8291 25.5733 17.5899 26.0058 17.3436 26.3142C16.4993 27.3774 15.3029 28.1703 13.9273 28.5784" fill="#455A64"/>
<path id="Vector_18" d="M13.6704 26.1076C12.6382 24.9648 11.4922 23.9099 10.247 22.9562C10.0535 22.8068 9.8072 22.6382 9.56443 22.7241C9.47318 22.7577 9.39486 22.8148 9.33919 22.8883C9.28353 22.9618 9.25297 23.0484 9.2513 23.1375C9.2491 23.3171 9.29369 23.4947 9.38148 23.6558C9.78951 24.4785 10.3979 25.2073 11.1613 25.7877C11.9247 26.3681 12.8233 26.7851 13.79 27.0075" fill="#455A64"/>
<path id="Vector_19" d="M13.7795 20.7874L11.0879 17.8237C10.8548 17.5263 10.5625 17.2707 10.2259 17.07C10.0532 16.9748 9.85474 16.9244 9.65241 16.9244C9.45007 16.9244 9.25164 16.9748 9.07891 17.07C8.92576 17.1879 8.81179 17.3418 8.74967 17.5147C8.68756 17.6876 8.67973 17.8727 8.72707 18.0494C8.82184 18.4043 9.00071 18.7363 9.25132 19.0225C9.77232 19.7526 10.4364 20.3906 11.211 20.9051C11.9992 21.3948 12.7169 21.716 13.6739 21.5888" fill="#455A64"/>
<path id="Vector_20" d="M14.1524 14.7995C13.6254 13.3807 12.6918 12.1134 11.4468 11.1266C11.2525 10.9488 11.0098 10.8205 10.7431 10.7545C10.2048 10.6591 9.68761 11.0725 9.51169 11.5368C9.42572 11.8057 9.40322 12.0878 9.44565 12.365C9.48808 12.6422 9.59449 12.9083 9.75798 13.1459C10.0851 13.6211 10.5147 14.0321 11.0211 14.3543C11.9271 14.9822 12.9377 15.4759 14.0152 15.8171" fill="#455A64"/>
<path id="Vector_21" d="M15.229 9.4603C14.9686 7.73992 13.9764 6.3121 12.8329 4.91926C12.5902 4.6267 12.2524 4.31824 11.8513 4.3723C11.725 4.39651 11.6076 4.44912 11.5098 4.52528C11.412 4.60143 11.3371 4.69866 11.2919 4.80796C11.2027 5.02749 11.1656 5.2615 11.1828 5.49484C11.2335 6.53624 11.6222 7.54111 12.3004 8.38424C12.9786 9.22736 13.9163 9.87145 14.9967 10.2362" fill="#455A64"/>
<path id="Vector_22" d="M15.9818 6.73183C15.8559 5.85156 15.8229 4.96246 15.8833 4.07654C15.9436 3.1853 16.2815 2.32762 16.8579 1.60249C17.1027 1.28762 17.4421 1.04266 17.836 0.896538C18.0323 0.82561 18.2454 0.801516 18.4549 0.826578C18.6644 0.85164 18.8632 0.925009 19.0323 1.03963C19.1758 1.16048 19.2873 1.309 19.3586 1.47416C19.4298 1.63933 19.459 1.81688 19.4439 1.99363C19.4119 2.34656 19.3094 2.69133 19.1413 3.01124C18.4377 4.56944 17.2274 6.29617 15.9748 6.73183" fill="#455A64"/>
<path id="Vector_23" d="M4.26217 8.77972C4.27045 8.85267 4.27045 8.9262 4.26217 8.99914C4.26217 9.15496 4.26217 9.36484 4.26217 9.63514C4.26217 9.90544 4.26217 10.2362 4.27977 10.6209C4.29736 11.0057 4.27976 11.4414 4.33254 11.9247C4.37828 12.8787 4.48383 14.0394 4.64568 15.3114C4.80752 16.5834 5.05732 17.9699 5.38805 19.4136C5.71878 20.8574 6.12691 22.2184 6.53152 23.4427C6.93613 24.667 7.36538 25.7546 7.7524 26.6577C7.93183 27.1124 8.12535 27.5131 8.28368 27.8693C8.442 28.2254 8.58625 28.5307 8.70587 28.7787C8.8255 29.0268 8.90643 29.208 8.97679 29.3543C9.01091 29.42 9.03915 29.4881 9.06123 29.5578C9.0146 29.4985 8.97564 29.4344 8.94512 29.3671C8.86772 29.224 8.76921 29.049 8.64255 28.8042C8.51588 28.5593 8.35756 28.2604 8.19219 27.9042C8.02683 27.5481 7.84036 27.1506 7.63277 26.699C7.23168 25.7991 6.80244 24.7083 6.37671 23.4872C5.95099 22.2661 5.55694 20.8955 5.21565 19.4454C4.87437 17.9954 4.64919 16.6025 4.48383 15.3273C4.31846 14.0522 4.23755 12.901 4.20588 11.9311C4.18125 11.4446 4.18477 11.0057 4.18125 10.6209C4.17773 10.2362 4.18125 9.90544 4.18125 9.63514C4.18125 9.36484 4.19885 9.16768 4.20588 8.99914C4.21531 8.9243 4.23419 8.85068 4.26217 8.77972Z" fill="#263238"/>
<path id="Vector_24" d="M4.68433 15.8235C4.70312 14.9838 5.04529 14.1764 5.65188 13.5402C5.73984 13.4227 5.85831 13.3265 5.99693 13.26C6.13555 13.1935 6.29009 13.1587 6.44703 13.1586C6.8622 13.2127 7.05219 13.6611 7.06626 14.0395C7.08718 14.682 6.85109 15.3097 6.40129 15.8076C6.01642 16.2857 5.43886 16.6078 4.79339 16.7043" fill="#263238"/>
<path id="Vector_25" d="M5.59567 20.4027C5.54641 19.4169 5.89473 17.8968 6.53156 17.0986C6.6236 16.9721 6.74333 16.8638 6.88339 16.7806C6.95501 16.7368 7.0377 16.7101 7.12381 16.7029C7.20992 16.6956 7.29665 16.7082 7.37596 16.7393C7.47713 16.8033 7.55884 16.8893 7.61357 16.9893C7.66829 17.0893 7.69428 17.2002 7.6891 17.3117C7.74841 18.0195 7.58941 18.7282 7.22978 19.3592C6.87015 19.9902 6.32398 20.5188 5.65196 20.886" fill="#263238"/>
<path id="Vector_26" d="M6.77783 24.3236C6.88945 23.339 7.28762 22.3987 7.93186 21.5983C7.99577 21.498 8.08133 21.4102 8.18347 21.3403C8.28561 21.2704 8.40225 21.2197 8.52646 21.1913C8.90997 21.1468 9.23013 21.5093 9.3005 21.8432C9.4729 22.546 9.08588 23.2615 8.63904 23.8561C8.2104 24.3559 7.71125 24.8027 7.15429 25.1854" fill="#263238"/>
<path id="Vector_27" d="M7.85083 27.0775C8.02362 26.3015 8.38406 25.5696 8.90634 24.9342C9.01584 24.7946 9.15901 24.6793 9.32503 24.5971C9.40899 24.5567 9.50366 24.5379 9.59864 24.543C9.69361 24.548 9.7852 24.5767 9.86334 24.6257C10.1026 24.7943 10.0498 25.1313 9.94778 25.3921C9.62754 26.2811 9.0013 27.0544 8.16045 27.599" fill="#263238"/>
<path id="Vector_28" d="M7.37234 25.974C6.39781 25.395 5.36604 24.899 4.29024 24.4921C4.21247 24.4494 4.12424 24.4248 4.0334 24.4203C3.94256 24.4159 3.85192 24.4318 3.76952 24.4667C3.71475 24.5071 3.67472 24.5614 3.65464 24.6227C3.63455 24.684 3.63535 24.7493 3.65692 24.8101C3.6994 24.9293 3.77163 25.0381 3.86803 25.1281C4.34194 25.6087 4.92978 25.9865 5.58771 26.2331C6.24565 26.4798 6.95672 26.5891 7.66788 26.5527" fill="#263238"/>
<path id="Vector_29" d="M6.17966 22.3265L3.64292 20.8319C3.41142 20.6766 3.1502 20.5613 2.87239 20.4917C2.73223 20.4595 2.585 20.4627 2.44668 20.5008C2.30837 20.5389 2.18425 20.6105 2.08779 20.7079C2.0083 20.8169 1.96447 20.944 1.96136 21.0745C1.95825 21.205 1.99598 21.3337 2.0702 21.4457C2.21944 21.6681 2.41981 21.859 2.65777 22.0053C3.18667 22.4011 3.79123 22.7061 4.44158 22.9053C5.096 23.0865 5.65894 23.166 6.27465 22.9053" fill="#263238"/>
<path id="Vector_30" d="M5.00823 18.1767C4.312 17.3129 3.37474 16.6314 2.29204 16.2019C2.11661 16.1188 1.91991 16.0793 1.72206 16.0874C1.53085 16.1278 1.3611 16.2269 1.24175 16.3678C1.1224 16.5088 1.06086 16.6828 1.06765 16.8601C1.07446 17.0601 1.12708 17.2565 1.22215 17.4372C1.31723 17.6178 1.45271 17.7786 1.62003 17.9095C1.95732 18.167 2.34692 18.3625 2.76701 18.4851C3.53354 18.7338 4.33848 18.8722 5.15247 18.8953" fill="#263238"/>
<path id="Vector_31" d="M4.46981 14.332C3.88225 13.2126 2.86895 12.424 1.75714 11.7085C1.6535 11.6173 1.5252 11.5523 1.38505 11.5199C1.24491 11.4875 1.09782 11.489 0.958475 11.5241C0.878155 11.5655 0.810621 11.6244 0.762059 11.6955C0.713497 11.7667 0.685457 11.8476 0.680521 11.9311C0.672182 12.0973 0.703379 12.2632 0.772002 12.4176C1.05361 13.1168 1.55684 13.7255 2.21884 14.1677C2.88085 14.61 3.67231 14.8662 4.49444 14.9044" fill="#263238"/>
<path id="Vector_32" d="M4.33265 12.3286C4.03567 11.7534 3.80004 11.1539 3.62898 10.5383C3.4595 9.91995 3.4851 9.27109 3.70286 8.66525C3.79734 8.40405 3.97033 8.17173 4.20248 7.99427C4.31915 7.90793 4.4585 7.85028 4.60704 7.82688C4.75559 7.80348 4.9083 7.81514 5.0504 7.86071C5.17715 7.91457 5.28864 7.99383 5.37643 8.09246C5.46422 8.19109 5.52599 8.30649 5.55705 8.42992C5.61752 8.67622 5.63061 8.9301 5.59575 9.18041C5.47612 10.3824 5.07503 11.788 4.32913 12.3286" fill="#263238"/>
<path id="Vector_33" d="M23.3704 8.63031C23.3865 8.70143 23.3936 8.77399 23.3915 8.84656C23.3915 9.00556 23.3915 9.21226 23.4161 9.48256C23.4407 9.75286 23.4372 10.0868 23.4161 10.4715C23.395 10.8563 23.4161 11.2952 23.388 11.7817C23.3598 12.7357 23.2683 13.9027 23.1135 15.1779C22.9587 16.4531 22.7124 17.846 22.3817 19.296C22.051 20.7461 21.6358 22.1103 21.2207 23.3378C20.8055 24.5653 20.3657 25.6497 19.9611 26.5464C19.7711 27.0012 19.5705 27.4019 19.4052 27.7548C19.2398 28.1078 19.085 28.4099 18.9548 28.6548C18.8246 28.8996 18.7296 29.0745 18.6522 29.2176C18.6217 29.285 18.5828 29.349 18.5361 29.4084C18.5582 29.3387 18.5865 29.2706 18.6206 29.2049L18.8915 28.6293C19.0111 28.3813 19.1554 28.0792 19.3137 27.7199C19.472 27.3605 19.6655 26.963 19.845 26.5083C20.232 25.6052 20.6472 24.5144 21.0658 23.2933C21.4845 22.0722 21.868 20.708 22.2058 19.2642C22.5436 17.8205 22.7758 16.4309 22.9517 15.162C23.1276 13.8932 23.2191 12.7421 23.2648 11.7753C23.3 11.292 23.3035 10.8563 23.3176 10.4715C23.3317 10.0868 23.3352 9.75603 23.3176 9.48573C23.3 9.21543 23.3176 9.01827 23.3176 8.84973C23.3265 8.7751 23.3442 8.70155 23.3704 8.63031Z" fill="#455A64"/>
<path id="Vector_34" d="M22.9484 15.674C22.9298 14.8355 22.5904 14.0286 21.9878 13.3908C21.9 13.2724 21.7811 13.1757 21.6417 13.1091C21.5023 13.0425 21.3468 13.0081 21.1892 13.0092C20.7775 13.0632 20.5875 13.5116 20.5735 13.89C20.5512 14.5322 20.7861 15.16 21.2349 15.6581C21.6212 16.1365 22.1999 16.4585 22.8463 16.5549" fill="#455A64"/>
<path id="Vector_35" d="M22.0336 20.25C22.0864 19.2674 21.7381 17.7474 21.1013 16.9492C21.0083 16.8233 20.8887 16.7152 20.7494 16.6312C20.6777 16.5877 20.5952 16.5608 20.5093 16.5531C20.4234 16.5453 20.3367 16.5568 20.2568 16.5867C20.1557 16.6516 20.0738 16.7381 20.0186 16.8385C19.9633 16.9389 19.9364 17.0502 19.9402 17.1622C19.8792 17.873 20.0386 18.5851 20.4002 19.2187C20.7619 19.8523 21.3117 20.3823 21.9879 20.7493" fill="#455A64"/>
<path id="Vector_36" d="M20.8513 24.1741C20.7423 23.188 20.3439 22.2461 19.6973 21.4457C19.6334 21.3462 19.5483 21.2593 19.4468 21.1899C19.3453 21.1206 19.2295 21.0702 19.1062 21.0418C18.7227 20.9973 18.4025 21.3598 18.3322 21.6937C18.1598 22.3965 18.5433 23.112 18.9936 23.7067C19.4223 24.2064 19.9214 24.6533 20.4784 25.0359" fill="#455A64"/>
<path id="Vector_37" d="M19.7819 26.928C19.6097 26.1518 19.2492 25.4198 18.7264 24.7847C18.6156 24.6449 18.4712 24.5297 18.3041 24.4476C18.2208 24.4077 18.127 24.3889 18.0329 24.3934C17.9387 24.3979 17.8476 24.4254 17.7694 24.473C17.5301 24.6447 17.5829 24.9818 17.6849 25.2426C18.006 26.1304 18.6306 26.9031 19.4687 27.4495" fill="#455A64"/>
<path id="Vector_38" d="M20.2601 25.8214C21.2347 25.2425 22.2664 24.7464 23.3422 24.3395C23.4194 24.2969 23.507 24.2722 23.5973 24.2678C23.6876 24.2633 23.7777 24.2792 23.8594 24.3141C23.9148 24.3541 23.9555 24.4083 23.9763 24.4696C23.997 24.5308 23.9967 24.5964 23.9755 24.6575C23.9331 24.7767 23.8608 24.8855 23.7644 24.9755C23.2901 25.4556 22.7021 25.833 22.0443 26.0796C21.3865 26.3262 20.6757 26.4358 19.9646 26.4002" fill="#455A64"/>
<path id="Vector_39" d="M21.453 22.1771L23.9898 20.6825C24.2209 20.5266 24.4822 20.4112 24.7603 20.3423C24.9005 20.3101 25.0477 20.3132 25.186 20.3514C25.3243 20.3895 25.4484 20.4611 25.5449 20.5585C25.6209 20.6693 25.6612 20.797 25.6612 20.9274C25.6612 21.0577 25.6209 21.1855 25.5449 21.2963C25.3946 21.518 25.1944 21.7087 24.9573 21.8559C24.4273 22.2503 23.8231 22.5551 23.1735 22.7559C22.5191 22.9371 21.9526 23.0166 21.3369 22.7559" fill="#455A64"/>
<path id="Vector_40" d="M22.6245 18.024C23.325 17.1596 24.2673 16.4792 25.3547 16.0524C25.5302 15.9693 25.7269 15.9298 25.9247 15.9379C26.1159 15.9778 26.2857 16.0769 26.4045 16.2181C26.5234 16.3592 26.5839 16.5335 26.5756 16.7107C26.5705 16.9101 26.5189 17.1063 26.4244 17.2866C26.3298 17.4668 26.1943 17.6271 26.0268 17.7569C25.6857 18.0202 25.2897 18.2192 24.8622 18.342C24.0969 18.5906 23.2931 18.7291 22.4802 18.7522" fill="#455A64"/>
<path id="Vector_41" d="M23.1629 14.1826C23.7505 13.0632 24.7638 12.2746 25.8756 11.5591C25.9792 11.4679 26.1075 11.4029 26.2477 11.3705C26.3878 11.3381 26.5349 11.3396 26.6742 11.3746C26.7546 11.416 26.8221 11.475 26.8707 11.5461C26.9192 11.6172 26.9473 11.6982 26.9522 11.7817C26.9605 11.9479 26.9293 12.1138 26.8607 12.2682C26.5789 12.9679 26.0751 13.5769 25.4124 14.0192C24.7497 14.4615 23.9575 14.7174 23.1348 14.755" fill="#455A64"/>
<path id="Vector_42" d="M23.3002 12.1792C23.5957 11.6034 23.8312 11.0041 24.0039 10.3889C24.1741 9.77042 24.1473 9.12107 23.9265 8.51584C23.8356 8.25387 23.6634 8.02099 23.4304 7.84485C23.3132 7.75825 23.1732 7.70045 23.024 7.67705C22.8749 7.65365 22.7216 7.66545 22.5789 7.7113C22.453 7.76573 22.3423 7.84522 22.2552 7.94379C22.1681 8.04237 22.1067 8.15748 22.0758 8.28051C22.0136 8.5266 22.0005 8.78075 22.0371 9.031C22.1532 10.233 22.5578 11.6386 23.3037 12.1792" fill="#455A64"/>
<path id="Vector_43" d="M1.03223 29.3957V32.2863C1.03223 32.5882 1.16493 32.8778 1.40115 33.0913C1.63736 33.3048 1.95775 33.4247 2.29181 33.4247H24.1761C24.5101 33.4247 24.8305 33.3048 25.0667 33.0913C25.303 32.8778 25.4357 32.5882 25.4357 32.2863V29.3957H1.03223Z" fill="#FF725E"/>
<g id="Group" opacity="0.4">
<path id="Vector_44" d="M2.92871 33.4247L3.11166 34.3438L23.3036 35.6476L23.8173 33.4247H2.92871Z" fill="black"/>
</g>
</g>
</svg>
