<svg width="234" height="113" viewBox="0 0 234 113" fill="none" xmlns="http://www.w3.org/2000/svg">
<g id="freepik--background-complete--inject-106">
<path id="Vector" d="M171.866 84.6824C171.866 84.6824 166.968 88.066 171.662 92.518C171.702 92.5554 171.75 92.5851 171.803 92.6053C171.857 92.6255 171.914 92.6358 171.971 92.6356L214.79 92.4098C214.79 92.4098 218.446 88.702 215.413 84.4312L171.866 84.6824Z" fill="#17CC8A"/>
<path id="Vector_2" d="M205.326 88.2059C205.326 88.2504 199.995 88.2854 193.419 88.2854C186.844 88.2854 181.51 88.2504 181.51 88.2059C181.51 88.1614 186.84 88.1264 193.419 88.1264C199.999 88.1264 205.326 88.1614 205.326 88.2059Z" fill="#E0E0E0"/>
<path id="Vector_3" d="M198.665 89.6046C198.665 89.6489 196.16 89.6836 193.067 89.6836C189.975 89.6836 187.47 89.6489 187.47 89.6046C187.47 89.5604 189.975 89.5288 193.067 89.5288C196.16 89.5288 198.665 89.5636 198.665 89.6046Z" fill="#E0E0E0"/>
<path id="Vector_4" d="M209.706 92.2858C209.678 92.2858 209.797 91.8406 209.931 91.1251C210.103 90.192 210.185 89.2472 210.177 88.3013C210.167 87.3548 210.065 86.4109 209.871 85.4806C209.724 84.7683 209.593 84.3327 209.622 84.3263C209.677 84.4194 209.719 84.5189 209.745 84.622C209.843 84.8968 209.925 85.1759 209.991 85.4584C210.219 86.3921 210.337 87.3451 210.343 88.3013C210.353 89.2558 210.253 90.2085 210.044 91.1442C209.963 91.5036 209.882 91.7802 209.815 91.9869C209.793 92.0903 209.756 92.1907 209.706 92.2858Z" fill="#E0E0E0"/>
<path id="Vector_5" d="M212.908 84.3835C212.984 84.4693 213.047 84.5633 213.098 84.6634C213.169 84.7754 213.232 84.8911 213.288 85.01C213.354 85.1499 213.439 85.3057 213.506 85.4838C213.681 85.8969 213.817 86.3223 213.914 86.7558C214.03 87.2924 214.092 87.8373 214.1 88.384C214.102 88.931 214.049 89.477 213.942 90.0153C213.854 90.4545 213.725 90.8863 213.558 91.3064C213.498 91.4687 213.427 91.6279 213.347 91.7834C213.295 91.9034 213.233 92.0202 213.164 92.1332C213.115 92.2342 213.053 92.3292 212.978 92.4162C212.95 92.4162 213.189 91.9869 213.442 91.2714C213.593 90.8555 213.71 90.4304 213.794 89.9994C213.886 89.4734 213.933 88.9419 213.935 88.4094C213.924 87.8763 213.868 87.3447 213.766 86.8194C213.68 86.3889 213.562 85.9639 213.414 85.5474C213.115 84.8097 212.869 84.3963 212.908 84.3835Z" fill="#E0E0E0"/>
<path id="Vector_6" d="M178.625 92.3367C178.545 92.2594 178.478 92.1728 178.424 92.0791C178.349 91.9779 178.282 91.8716 178.224 91.7611C178.138 91.6168 178.062 91.4682 177.995 91.3159C177.814 90.9214 177.674 90.5126 177.576 90.0948C177.464 89.5816 177.409 89.0597 177.411 88.5366C177.424 88.0131 177.496 87.4921 177.626 86.9816C177.733 86.5669 177.884 86.1623 178.076 85.7732C178.153 85.6047 178.245 85.4552 178.319 85.3344C178.381 85.2242 178.452 85.118 178.53 85.0164C178.585 84.9228 178.655 84.8371 178.737 84.762C178.766 84.7779 178.491 85.1531 178.189 85.8146C178.017 86.2035 177.88 86.6044 177.78 87.0134C177.663 87.5156 177.597 88.0266 177.583 88.5398C177.581 89.0528 177.631 89.5649 177.735 90.0694C177.822 90.4807 177.947 90.8848 178.108 91.2778C178.389 91.9424 178.653 92.3208 178.625 92.3367Z" fill="#E0E0E0"/>
<path id="Vector_7" d="M174.002 93.2812C173.915 93.1919 173.841 93.0937 173.78 92.9886C173.697 92.872 173.622 92.7509 173.555 92.6261C173.477 92.4798 173.379 92.3081 173.298 92.1268C173.09 91.6853 172.926 91.2277 172.809 90.7595C172.666 90.1859 172.585 89.6013 172.566 89.0136C172.558 88.4254 172.609 87.8378 172.721 87.2583C172.817 86.787 172.958 86.3241 173.143 85.875C173.211 85.7016 173.29 85.5317 173.379 85.3662C173.438 85.2385 173.506 85.1142 173.583 84.9941C173.638 84.886 173.708 84.7845 173.79 84.692C173.822 84.692 173.548 85.1468 173.259 85.9131C173.092 86.36 172.965 86.8184 172.879 87.2837C172.776 87.8544 172.729 88.4323 172.738 89.0105C172.759 89.5876 172.834 90.1622 172.964 90.7277C173.072 91.1903 173.222 91.6444 173.41 92.0855C173.734 92.836 174.03 93.2653 174.002 93.2812Z" fill="#E0E0E0"/>
<path id="Vector_8" d="M213.221 104.195V111.598H197.364V104.195H213.221Z" fill="#EBEBEB"/>
<path id="Vector_9" d="M162.014 107.966C162.014 108.033 162.014 108.097 162.014 108.164C162.091 109.245 162.622 110.26 163.499 110.999C164.377 111.738 165.533 112.146 166.733 112.139H213.963V111.598H202.75C201.664 111.598 200.622 111.208 199.853 110.514C199.085 109.82 198.652 108.878 198.651 107.896C198.652 106.914 199.084 105.972 199.853 105.278C200.621 104.583 201.663 104.193 202.75 104.192H213.963V103.406L166.729 103.549C166.096 103.55 165.469 103.666 164.886 103.891C164.303 104.115 163.776 104.443 163.336 104.855C162.896 105.267 162.553 105.755 162.326 106.289C162.099 106.824 161.993 107.394 162.014 107.966Z" fill="#FFA500"/>
<path id="Vector_10" d="M213.221 107.998C213.221 108.039 209.959 108.074 205.938 108.074C201.916 108.074 198.658 108.039 198.658 107.998C198.658 107.957 201.916 107.919 205.938 107.919C209.959 107.919 213.221 107.953 213.221 107.998Z" fill="#E0E0E0"/>
<path id="Vector_11" d="M212.989 109.667C212.989 109.708 209.907 109.743 206.1 109.743C202.293 109.743 199.211 109.708 199.211 109.667C199.211 109.626 202.296 109.588 206.1 109.588C209.903 109.588 212.989 109.623 212.989 109.667Z" fill="#E0E0E0"/>
<path id="Vector_12" d="M213.221 111.19C213.221 111.235 210.445 111.269 207.025 111.269C203.605 111.269 200.833 111.235 200.833 111.19C200.833 111.146 203.605 111.115 207.025 111.115C210.445 111.115 213.221 111.149 213.221 111.19Z" fill="#E0E0E0"/>
<path id="Vector_13" d="M213.221 106.509C213.221 106.554 210.026 106.588 206.089 106.588C202.152 106.588 198.957 106.554 198.957 106.509C198.957 106.465 202.148 106.434 206.089 106.434C210.03 106.434 213.221 106.456 213.221 106.509Z" fill="#E0E0E0"/>
<path id="Vector_14" d="M212.989 104.999C212.989 105.04 210.146 105.075 206.656 105.075C203.165 105.075 200.323 105.04 200.323 104.999C200.323 104.958 203.165 104.92 206.656 104.92C210.146 104.92 212.989 104.955 212.989 104.999Z" fill="#E0E0E0"/>
<path id="Vector_15" d="M167.735 103.677C167.373 104.013 167.037 104.374 166.733 104.755C166.012 105.691 165.633 106.806 165.648 107.946C165.662 109.086 166.07 110.194 166.814 111.115C167.129 111.488 167.474 111.841 167.844 112.17C167.718 112.108 167.6 112.032 167.493 111.945C167.202 111.715 166.938 111.459 166.705 111.181C165.918 110.255 165.485 109.123 165.47 107.955C165.455 106.788 165.858 105.647 166.62 104.704C166.845 104.419 167.103 104.158 167.391 103.925C167.492 103.828 167.608 103.745 167.735 103.677Z" fill="#F5F5F5"/>
<path id="Vector_16" d="M166.138 103.521C165.773 103.856 165.438 104.216 165.135 104.599C164.42 105.534 164.044 106.646 164.059 107.782C164.073 108.919 164.478 110.023 165.216 110.943C165.531 111.317 165.875 111.67 166.247 111.999C166.119 111.938 166 111.862 165.895 111.773C165.602 111.544 165.337 111.289 165.104 111.01C164.318 110.083 163.886 108.952 163.87 107.785C163.855 106.618 164.258 105.478 165.019 104.535C165.245 104.251 165.503 103.989 165.79 103.753C165.893 103.661 166.01 103.582 166.138 103.521Z" fill="#F5F5F5"/>
<path id="Vector_17" d="M198.222 103.677C197.859 104.013 197.524 104.374 197.219 104.755C196.501 105.691 196.123 106.807 196.137 107.946C196.152 109.086 196.558 110.193 197.3 111.115C197.616 111.488 197.961 111.841 198.331 112.17C198.204 112.108 198.086 112.033 197.979 111.945C197.686 111.716 197.421 111.46 197.188 111.181C196.401 110.255 195.968 109.123 195.953 107.955C195.938 106.788 196.341 105.647 197.103 104.704C197.329 104.42 197.587 104.159 197.874 103.925C197.977 103.828 198.094 103.744 198.222 103.677Z" fill="#F5F5F5"/>
<path id="Vector_18" d="M196.625 103.521C196.261 103.857 195.926 104.217 195.622 104.599C194.907 105.534 194.53 106.646 194.546 107.783C194.561 108.92 194.966 110.024 195.706 110.943C196.019 111.319 196.363 111.672 196.737 111.999C196.608 111.94 196.489 111.864 196.385 111.773C196.093 111.545 195.828 111.289 195.597 111.01C194.812 110.083 194.379 108.952 194.364 107.785C194.349 106.618 194.752 105.478 195.513 104.535C195.738 104.251 195.995 103.989 196.28 103.753C196.382 103.661 196.498 103.583 196.625 103.521Z" fill="#F5F5F5"/>
<path id="Vector_19" d="M173.108 109.009C173.094 108.005 173.079 107.001 173.062 105.998C173.077 105.735 173.038 105.472 172.946 105.222C172.899 105.097 172.815 104.987 172.703 104.902C172.592 104.816 172.457 104.76 172.313 104.739C171.898 104.573 171.257 104.885 170.955 105.321C170.702 105.777 170.589 106.287 170.627 106.796C170.62 107.591 170.663 108.385 170.754 109.175C170.774 109.554 170.879 109.925 171.064 110.266C171.146 110.442 171.289 110.591 171.471 110.691C171.652 110.79 171.864 110.835 172.076 110.818C172.288 110.802 172.488 110.726 172.649 110.6C172.81 110.475 172.922 110.306 172.971 110.119C173.094 109.76 173.14 109.384 173.108 109.009Z" fill="#F5F5F5"/>
<path id="Vector_20" d="M191.446 108.141C191.446 108.185 188.033 108.22 183.825 108.22C179.617 108.22 176.2 108.185 176.2 108.141C176.2 108.097 179.613 108.065 183.825 108.065C188.036 108.065 191.446 108.1 191.446 108.141Z" fill="#F5F5F5"/>
<path id="Vector_21" d="M169.945 103.381L169.857 96.3626H174.086L174.23 103.381H169.945Z" fill="#F5F5F5"/>
<path id="Vector_22" d="M173.854 97.6055C172.546 97.7108 171.231 97.7108 169.924 97.6055C171.231 97.5044 172.546 97.5044 173.854 97.6055Z" fill="#E0E0E0"/>
<path id="Vector_23" d="M173.854 98.693C172.546 98.7983 171.231 98.7983 169.924 98.693C171.231 98.5919 172.546 98.5919 173.854 98.693Z" fill="#E0E0E0"/>
<path id="Vector_24" d="M173.854 99.7774C172.546 99.8785 171.231 99.8785 169.924 99.7774C171.231 99.6721 172.546 99.6721 173.854 99.7774Z" fill="#E0E0E0"/>
<path id="Vector_25" d="M173.854 100.862C172.546 100.963 171.231 100.963 169.924 100.862C171.231 100.757 172.546 100.757 173.854 100.862Z" fill="#E0E0E0"/>
<path id="Vector_26" d="M173.854 101.943C172.546 102.048 171.231 102.048 169.924 101.943C171.231 101.842 172.546 101.842 173.854 101.943Z" fill="#E0E0E0"/>
<path id="Vector_27" d="M169.632 96.175H216.49C217.07 98.4996 216.986 101.059 216.49 103.762H169.832V103.247H172.686C172.863 103.247 173.038 103.216 173.201 103.155C173.364 103.093 173.513 103.004 173.637 102.89C173.762 102.777 173.861 102.643 173.929 102.495C173.996 102.347 174.03 102.189 174.03 102.029V97.8318C174.03 97.5093 173.888 97.2 173.636 96.9717C173.384 96.7434 173.043 96.6147 172.686 96.6138H169.632V96.175Z" fill="#757575"/>
<path id="Vector_28" d="M180.711 99.9751H181.492C181.522 99.975 181.551 99.9815 181.577 99.9942C181.603 100.006 181.625 100.025 181.64 100.048C181.655 100.071 181.662 100.098 181.661 100.125C181.663 100.14 181.663 100.156 181.661 100.172C181.661 100.233 181.629 100.29 181.608 100.354C181.515 100.65 181.348 100.923 181.119 101.152C181.039 101.244 180.939 101.32 180.824 101.375C180.709 101.429 180.583 101.462 180.454 101.47H180.359C180.247 101.449 180.141 101.405 180.05 101.342C179.959 101.279 179.885 101.197 179.835 101.104C179.668 100.846 179.586 100.55 179.599 100.252C179.6 100.047 179.632 99.8441 179.694 99.6476C179.776 99.3452 179.935 99.0643 180.159 98.8271C180.241 98.7276 180.347 98.6458 180.469 98.5875C180.59 98.5293 180.725 98.496 180.862 98.49C180.965 98.4889 181.066 98.5096 181.158 98.5505C181.379 98.661 181.544 98.8461 181.615 99.0656C181.626 99.0877 181.632 99.1114 181.633 99.1356C181.634 99.1627 181.625 99.1895 181.608 99.2119C181.595 99.2358 181.574 99.2556 181.548 99.2692C181.523 99.2827 181.494 99.2893 181.464 99.2882H181.411C181.387 99.2803 181.365 99.2676 181.347 99.2511C181.328 99.2347 181.314 99.2147 181.306 99.1928V99.1769C181.282 99.1188 181.252 99.0633 181.214 99.0116C181.175 98.9518 181.12 98.9019 181.055 98.8663C180.989 98.8308 180.914 98.8107 180.838 98.808C180.744 98.8105 180.654 98.8407 180.581 98.8939C180.385 99.0409 180.236 99.2332 180.152 99.4504C180.033 99.7019 179.971 99.9721 179.969 100.245C179.959 100.464 180.005 100.681 180.102 100.881C180.132 100.959 180.187 101.027 180.259 101.076C180.332 101.126 180.42 101.154 180.51 101.158C180.585 101.149 180.657 101.126 180.722 101.091C180.787 101.056 180.843 101.01 180.887 100.955C181.07 100.762 181.208 100.538 181.292 100.296C180.94 100.296 180.743 100.296 180.729 100.296C180.605 100.28 180.546 100.223 180.542 100.128C180.538 100.111 180.538 100.094 180.542 100.077C180.555 100.046 180.578 100.02 180.609 100.002C180.639 99.9835 180.675 99.9742 180.711 99.9751Z" fill="#FAFAFA"/>
<path id="Vector_29" d="M183.371 98.5949C183.379 98.6115 183.386 98.6285 183.392 98.6458C183.424 98.7508 183.61 99.6253 183.944 101.269C183.946 101.282 183.946 101.295 183.944 101.307C183.945 101.336 183.936 101.363 183.92 101.387C183.907 101.41 183.888 101.43 183.863 101.443C183.839 101.457 183.811 101.464 183.783 101.463H183.754C183.724 101.46 183.695 101.448 183.672 101.43C183.649 101.412 183.632 101.388 183.624 101.362L183.438 100.487H182.477L182.013 101.365C182.014 101.374 182.014 101.384 182.013 101.393C181.996 101.414 181.975 101.432 181.95 101.445C181.925 101.457 181.897 101.465 181.869 101.466C181.836 101.466 181.804 101.457 181.777 101.441C181.753 101.428 181.733 101.409 181.719 101.387C181.706 101.365 181.699 101.339 181.7 101.314C181.696 101.299 181.696 101.284 181.7 101.269C181.728 101.209 181.777 101.113 181.844 100.98C182.516 99.6507 182.921 98.8684 183.051 98.6267C183.064 98.597 183.086 98.5712 183.115 98.5526C183.143 98.534 183.177 98.5233 183.213 98.5218C183.244 98.5198 183.275 98.5256 183.303 98.5385C183.331 98.5514 183.354 98.5709 183.371 98.5949ZM183.16 99.1801L182.65 100.172H183.385L183.16 99.1801Z" fill="#FAFAFA"/>
<path id="Vector_30" d="M185.985 101.463H184.578C184.546 101.463 184.516 101.454 184.49 101.438C184.465 101.418 184.446 101.393 184.432 101.366C184.418 101.338 184.41 101.309 184.409 101.279C184.409 101.224 184.539 100.352 184.799 98.6649C184.798 98.6458 184.798 98.6267 184.799 98.6076C184.811 98.58 184.832 98.5564 184.859 98.5398C184.886 98.5233 184.918 98.5148 184.951 98.5154C184.978 98.5154 185.004 98.5209 185.028 98.5313C185.057 98.5433 185.081 98.5627 185.097 98.5871C185.113 98.6114 185.121 98.6396 185.12 98.6681C185.12 98.7825 185.074 99.021 185.021 99.3836C184.859 100.501 184.775 101.089 184.768 101.148H185.971C186.001 101.149 186.031 101.154 186.059 101.164C186.092 101.175 186.12 101.194 186.14 101.22C186.159 101.245 186.169 101.276 186.168 101.307C186.171 101.324 186.171 101.341 186.168 101.358C186.153 101.39 186.127 101.417 186.094 101.436C186.062 101.455 186.024 101.464 185.985 101.463Z" fill="#FAFAFA"/>
<path id="Vector_31" d="M187.927 98.595C187.935 98.6115 187.942 98.6285 187.948 98.6459C187.979 98.7519 188.162 99.6264 188.497 101.269C188.5 101.282 188.5 101.295 188.497 101.308C188.497 101.336 188.489 101.363 188.473 101.387C188.459 101.41 188.439 101.43 188.414 101.443C188.389 101.457 188.361 101.464 188.332 101.463H188.307C188.277 101.46 188.248 101.449 188.225 101.431C188.201 101.413 188.185 101.389 188.177 101.362L187.991 100.487H187.027L186.566 101.365V101.393C186.549 101.415 186.526 101.432 186.501 101.445C186.475 101.458 186.447 101.465 186.418 101.467C186.385 101.466 186.354 101.457 186.326 101.441C186.303 101.427 186.284 101.409 186.271 101.386C186.258 101.364 186.252 101.339 186.252 101.314C186.249 101.299 186.249 101.284 186.252 101.269C186.281 101.209 186.326 101.114 186.393 100.98C187.069 99.6507 187.47 98.8685 187.604 98.6268C187.616 98.5968 187.638 98.5708 187.667 98.5522C187.696 98.5335 187.73 98.5229 187.765 98.5219C187.797 98.5193 187.829 98.5248 187.858 98.5377C187.886 98.5506 187.91 98.5704 187.927 98.595ZM187.716 99.1801L187.195 100.172H187.927L187.716 99.1801Z" fill="#FAFAFA"/>
<path id="Vector_32" d="M190.165 100.102C190.274 100.376 190.362 100.589 190.422 100.738C190.566 101.101 190.64 101.292 190.64 101.314C190.639 101.341 190.629 101.368 190.612 101.39C190.598 101.412 190.577 101.431 190.552 101.443C190.527 101.455 190.499 101.461 190.471 101.46C190.439 101.459 190.408 101.448 190.382 101.43C190.357 101.411 190.339 101.386 190.33 101.358L190.306 101.292C190.228 101.136 190.102 100.834 189.926 100.395L189.127 101.381C189.111 101.404 189.089 101.423 189.064 101.437C189.038 101.451 189.009 101.459 188.979 101.46C188.948 101.461 188.917 101.453 188.891 101.438C188.866 101.426 188.845 101.407 188.831 101.385C188.817 101.362 188.809 101.337 188.81 101.311C188.808 101.3 188.808 101.289 188.81 101.279C188.829 101.233 188.858 101.191 188.895 101.155C189.162 100.843 189.458 100.471 189.781 100.039L189.683 99.797C189.384 99.0688 189.232 98.6935 189.232 98.6681C189.233 98.6415 189.24 98.6154 189.254 98.5918C189.266 98.5687 189.286 98.5492 189.31 98.5357C189.334 98.5222 189.362 98.5152 189.391 98.5155C189.424 98.5139 189.456 98.5213 189.484 98.5366C189.513 98.5519 189.535 98.5744 189.549 98.6013L190.021 99.7493L190.964 98.5886C190.98 98.5672 191.002 98.5497 191.028 98.5375C191.054 98.5254 191.082 98.5189 191.111 98.5186C191.138 98.5171 191.165 98.5226 191.189 98.5345C191.215 98.5479 191.237 98.5679 191.251 98.5921C191.266 98.6164 191.272 98.6439 191.27 98.6713C191.274 98.6944 191.274 98.7181 191.27 98.7412L190.165 100.102Z" fill="#FAFAFA"/>
<path id="Vector_33" d="M193.659 98.5282C193.686 98.5289 193.714 98.5343 193.74 98.5441C193.766 98.5572 193.788 98.5765 193.804 98.6C193.819 98.6235 193.827 98.6503 193.828 98.6777C193.599 100.328 193.476 101.222 193.448 101.352C193.406 101.602 193.302 101.84 193.145 102.048C193.039 102.183 192.897 102.291 192.733 102.364C192.569 102.436 192.388 102.471 192.206 102.465C192.048 102.459 191.895 102.422 191.755 102.357C191.545 102.28 191.369 102.141 191.256 101.963C191.243 101.939 191.237 101.913 191.238 101.886C191.238 101.86 191.245 101.834 191.259 101.81C191.273 101.787 191.294 101.768 191.32 101.754C191.345 101.741 191.374 101.734 191.403 101.734C191.429 101.735 191.454 101.741 191.477 101.752C191.499 101.763 191.519 101.778 191.534 101.797C191.61 101.905 191.714 101.995 191.836 102.06C191.958 102.124 192.096 102.162 192.237 102.169C192.347 102.169 192.455 102.145 192.552 102.101C192.65 102.056 192.735 101.991 192.8 101.912C192.994 101.681 193.102 101.4 193.11 101.11C193.055 101.188 192.984 101.256 192.902 101.311C192.755 101.408 192.578 101.461 192.396 101.46H192.301C192.193 101.438 192.092 101.394 192.005 101.332C191.918 101.271 191.847 101.193 191.797 101.104C191.632 100.846 191.55 100.55 191.562 100.252C191.562 100.096 191.562 99.9338 191.586 99.7748C191.611 99.514 191.674 99.1388 191.776 98.6745C191.774 98.6597 191.774 98.6447 191.776 98.63C191.785 98.6 191.805 98.5735 191.833 98.5546C191.86 98.5357 191.893 98.5253 191.928 98.525C191.958 98.5249 191.987 98.5326 192.012 98.5473C192.037 98.5586 192.057 98.5759 192.072 98.5972C192.086 98.6186 192.093 98.6432 192.093 98.6681C192.079 98.8632 192.053 99.0575 192.016 99.2501C191.96 99.5447 191.924 99.842 191.906 100.14C191.897 100.376 191.94 100.61 192.033 100.831C192.128 101.04 192.269 101.149 192.448 101.149C192.468 101.152 192.488 101.152 192.508 101.149C192.689 101.096 192.84 100.982 192.93 100.831C193.1 100.621 193.22 100.381 193.282 100.128L193.497 98.6745C193.498 98.6511 193.506 98.6283 193.518 98.6077C193.53 98.5835 193.55 98.5631 193.575 98.549C193.6 98.5348 193.629 98.5276 193.659 98.5282Z" fill="#FAFAFA"/>
<path id="Vector_34" d="M214.73 103.861C214.681 103.861 214.642 102.118 214.642 99.9687C214.642 97.8191 214.681 96.0764 214.73 96.0764C214.779 96.0764 214.818 97.8191 214.818 99.9687C214.818 102.118 214.779 103.861 214.73 103.861Z" fill="#F5F5F5"/>
<path id="Vector_35" d="M176.387 103.861C176.338 103.861 176.299 102.118 176.299 99.9687C176.299 97.8191 176.338 96.0764 176.387 96.0764C176.436 96.0764 176.475 97.8191 176.475 99.9687C176.475 102.118 176.436 103.861 176.387 103.861Z" fill="#E0E0E0"/>
<path id="Vector_36" d="M215.553 103.861C215.504 103.861 215.466 102.118 215.466 99.9687C215.466 97.8191 215.504 96.0764 215.553 96.0764C215.603 96.0764 215.638 97.8191 215.638 99.9687C215.638 102.118 215.599 103.861 215.553 103.861Z" fill="#F5F5F5"/>
<path id="Vector_37" d="M175.613 103.861C175.564 103.861 175.525 102.118 175.525 99.9687C175.525 97.8191 175.564 96.0764 175.613 96.0764C175.662 96.0764 175.697 97.8191 175.697 99.9687C175.697 102.118 175.665 103.861 175.613 103.861Z" fill="#E0E0E0"/>
<path id="Vector_38" d="M203.369 97.358L208.32 100.97L208.365 101.002H208.309L207.651 101.158L203.471 102.15L199.682 100.697L198.609 100.28L198.324 100.169L198.254 100.14L198.328 100.166L198.616 100.271L199.693 100.675L203.492 102.109L207.63 101.104L208.288 100.945V100.99L203.345 97.3675" fill="#E0E0E0"/>
<path id="Vector_39" d="M207.866 100.395L208.137 100.624L208.499 100.554L208.341 100.856L208.527 101.145L208.158 101.104L207.912 101.355L207.841 101.024L207.503 100.888L207.827 100.729L207.866 100.395Z" fill="#E0E0E0"/>
<path id="Vector_40" d="M203.116 101.819L203.299 101.956L203.531 101.899L203.443 102.099L203.573 102.281L203.334 102.265L203.186 102.436L203.127 102.226L202.901 102.15L203.105 102.036L203.116 101.819Z" fill="#E0E0E0"/>
<path id="Vector_41" d="M197.867 99.8733L198.162 99.8892L198.345 99.6793L198.419 99.9369L198.694 100.029L198.444 100.172L198.433 100.436L198.208 100.268L197.923 100.341L198.032 100.093L197.867 99.8733Z" fill="#E0E0E0"/>
<path id="Vector_42" d="M210.086 97.4152L210.381 97.4342L210.561 97.2244L210.635 97.4819L210.913 97.5742L210.663 97.7141L210.652 97.9812L210.427 97.8127L210.142 97.8858L210.251 97.6378L210.086 97.4152Z" fill="#E0E0E0"/>
<path id="Vector_43" d="M203.13 97.2435L203.317 97.253L203.433 97.1194L203.478 97.2848L203.654 97.342L203.496 97.4311L203.489 97.6028L203.345 97.4947L203.165 97.5424L203.232 97.3834L203.13 97.2435Z" fill="#E0E0E0"/>
<path id="Vector_44" d="M210.498 97.6059C210.498 97.6218 208.897 97.5741 206.923 97.4978C204.949 97.4215 203.345 97.3452 203.345 97.3293C203.345 97.3134 204.949 97.3611 206.923 97.4374C208.897 97.5137 210.501 97.5837 210.498 97.6059Z" fill="#E0E0E0"/>
<path id="Vector_45" d="M212.299 96.1082H164.776C164.154 94.8362 164.002 93.6214 164.776 92.5339H212.299C212.595 93.0917 212.748 93.7024 212.748 94.321C212.748 94.9397 212.595 95.5504 212.299 96.1082Z" fill="#DF5B36"/>
<path id="Vector_46" d="M200.365 93.5547H174.617V94.8553H200.365V93.5547Z" fill="#EBEBEB"/>
<path id="Vector_47" d="M166.599 96.1305C166.441 96.0125 166.314 95.8649 166.226 95.698C165.981 95.3072 165.832 94.8734 165.79 94.426C165.747 93.9794 165.809 93.5296 165.973 93.1063C166.028 92.9284 166.125 92.7634 166.258 92.6229C166.217 92.7995 166.16 92.9728 166.089 93.1413C165.835 93.9751 165.923 94.8636 166.335 95.6439C166.436 95.7999 166.525 95.9625 166.599 96.1305Z" fill="#E0E0E0"/>
<path id="Vector_48" d="M167.63 96.1305C167.471 96.0128 167.342 95.8652 167.253 95.698C167.012 95.307 166.864 94.8742 166.821 94.4282C166.777 93.9821 166.838 93.5327 167 93.1095C167.055 92.9308 167.154 92.7656 167.289 92.6261C167.243 92.8017 167.187 92.9748 167.12 93.1444C166.994 93.5583 166.951 93.989 166.993 94.4164C167.03 94.8431 167.149 95.2606 167.345 95.6503C167.45 95.8051 167.545 95.9654 167.63 96.1305Z" fill="#E0E0E0"/>
<path id="Vector_49" d="M210.375 96.0446C210.571 95.478 210.689 94.8916 210.726 94.2988C210.701 93.7056 210.597 93.1173 210.417 92.5466C210.739 93.0842 210.906 93.6869 210.902 94.2985C210.898 94.9101 210.722 95.5108 210.392 96.0446H210.375Z" fill="#F5F5F5"/>
<path id="Vector_50" d="M209.491 96.0383C209.439 96.0383 209.639 95.2719 209.636 94.3242C209.632 93.3766 209.435 92.6229 209.488 92.6134C209.913 93.7228 209.913 94.9289 209.488 96.0383H209.491Z" fill="#F5F5F5"/>
<path id="Vector_51" d="M16.6317 11.1768C16.6317 11.1768 16.6317 11.1768 16.6739 11.1768H16.79C16.9418 11.1719 17.0937 11.1794 17.2439 11.199C17.4877 11.2269 17.7251 11.2891 17.9476 11.3835C18.2394 11.513 18.4973 11.6973 18.704 11.9241C18.9558 12.202 19.1339 12.5283 19.2248 12.8781C19.3094 13.286 19.2693 13.7071 19.1087 14.096C19.0298 14.3069 18.9285 14.5103 18.8061 14.7034C18.6829 14.9005 18.5598 15.1009 18.4542 15.3171C18.2389 15.7625 18.0909 16.2321 18.0144 16.7131V16.7449H17.9793L16.9026 16.7608H15.7768H15.738V16.7227C15.6902 16.2423 15.5113 15.7801 15.2173 15.3775C15.0836 15.1772 14.9429 14.9864 14.8092 14.7956C14.6702 14.6144 14.5422 14.4265 14.4257 14.2327C14.2272 13.8602 14.1679 13.4395 14.2568 13.0339C14.3195 12.6846 14.4621 12.3511 14.6755 12.0544C14.8589 11.8162 15.0995 11.6183 15.3792 11.4757C15.5892 11.371 15.8141 11.2928 16.0477 11.2435C16.1948 11.2123 16.3441 11.1899 16.4945 11.1768H16.5825C16.6071 11.1768 16.6212 11.1768 16.6212 11.1768H16.5825H16.4664C16.3179 11.1924 16.1709 11.2179 16.0266 11.2531C15.7973 11.3065 15.5772 11.3878 15.3721 11.4948C15.1 11.6355 14.8666 11.8301 14.6896 12.064C14.484 12.3533 14.3474 12.6782 14.2885 13.018C14.2036 13.4115 14.2642 13.8193 14.4609 14.1787C14.5768 14.37 14.7036 14.5558 14.8409 14.7352C14.9746 14.9228 15.1188 15.1136 15.2525 15.3171C15.555 15.7298 15.7388 16.2042 15.7873 16.6972L15.7486 16.6591L16.8745 16.6432H17.9511L17.9089 16.6782C17.9857 16.1889 18.1373 15.7116 18.3592 15.2599C18.4639 15.0424 18.5814 14.8301 18.7111 14.6239C18.8319 14.4345 18.9332 14.2354 19.0137 14.0292C19.1714 13.652 19.2127 13.2431 19.1333 12.8463C19.0451 12.5071 18.8744 12.1899 18.6337 11.9177C18.4335 11.6956 18.1842 11.5136 17.9018 11.3835C17.6868 11.2901 17.4582 11.2248 17.2228 11.1895C17.0751 11.1676 16.9256 11.157 16.776 11.1577H16.6176L16.6317 11.1768Z" fill="white"/>
<path id="Vector_52" d="M17.1912 16.6432V16.6114V16.5192L17.1314 16.1694C17.0857 15.8514 17.0118 15.4221 16.9625 14.8687C16.9625 14.732 16.9414 14.5889 16.9344 14.4363C16.9273 14.2836 16.9344 14.1183 16.9344 13.9688C16.9391 13.7988 16.9809 13.6313 17.0575 13.4759C17.139 13.3083 17.2872 13.1744 17.4727 13.1007C17.5719 13.0631 17.6812 13.0527 17.7869 13.0708C17.8926 13.0889 17.9901 13.1347 18.0673 13.2024C18.107 13.2371 18.1386 13.2786 18.1604 13.3244C18.1821 13.3703 18.1935 13.4196 18.1939 13.4695C18.1904 13.5723 18.151 13.6713 18.0814 13.7526C18.0128 13.8342 17.9235 13.8996 17.821 13.9434C17.7181 13.9885 17.6094 14.0216 17.4973 14.0419C17.2654 14.0838 17.03 14.1072 16.7936 14.1119C16.5586 14.1224 16.323 14.1128 16.09 14.0833C15.9772 14.0678 15.8672 14.0389 15.7627 13.9974C15.6578 13.9571 15.5641 13.8963 15.4883 13.8193C15.4103 13.747 15.3556 13.6569 15.33 13.5586C15.3055 13.4599 15.3191 13.3567 15.3687 13.266C15.4134 13.175 15.4953 13.1032 15.5974 13.0657C15.6463 13.0468 15.699 13.037 15.7522 13.037C15.8054 13.037 15.8581 13.0468 15.907 13.0657C15.9989 13.1063 16.0777 13.1676 16.1357 13.2438C16.1923 13.3175 16.2318 13.4008 16.2518 13.4886C16.2874 13.6542 16.3063 13.8224 16.3081 13.9911C16.3081 14.3091 16.3433 14.6271 16.3609 14.891C16.389 15.4411 16.4136 15.8863 16.4312 16.198C16.4312 16.3506 16.4312 16.4683 16.4488 16.551V16.6432V16.675C16.4472 16.6644 16.4472 16.6537 16.4488 16.6432V16.551C16.4488 16.4715 16.4488 16.3506 16.4242 16.198C16.4031 15.88 16.3749 15.4443 16.3398 14.8942C16.3398 14.6175 16.3046 14.3154 16.2835 13.9911C16.2783 13.8247 16.2595 13.6589 16.2272 13.495C16.2077 13.4104 16.1694 13.3304 16.1146 13.2597C16.0592 13.1874 15.984 13.1293 15.8964 13.0911C15.805 13.0577 15.7029 13.0577 15.6115 13.0911C15.5189 13.1293 15.4441 13.1957 15.4004 13.2787C15.3555 13.3639 15.3431 13.4601 15.3652 13.5522C15.3891 13.646 15.4415 13.7319 15.5165 13.8003C15.6719 13.9423 15.8771 14.0311 16.097 14.0515C16.3301 14.0806 16.5655 14.0912 16.8007 14.0833C17.0301 14.0768 17.2585 14.0523 17.4832 14.0101C17.5914 13.991 17.6965 13.96 17.7964 13.9179C17.895 13.8757 17.9807 13.8124 18.0462 13.7335C18.1133 13.6588 18.1505 13.5658 18.1517 13.4695C18.1525 13.4232 18.1426 13.3772 18.1226 13.3345C18.1026 13.2918 18.073 13.2533 18.0356 13.2215C17.962 13.1593 17.8703 13.1173 17.7712 13.1004C17.6722 13.0835 17.5698 13.0924 17.4762 13.1261C17.2997 13.1981 17.1583 13.3259 17.0786 13.4854C16.9964 13.6377 16.9474 13.8029 16.9344 13.972C16.9255 14.1277 16.9255 14.2837 16.9344 14.4394C16.9344 14.5889 16.9344 14.7352 16.959 14.8719C17.0047 15.4221 17.0716 15.8641 17.1173 16.1694L17.1701 16.5223V16.6146C17.178 16.6236 17.185 16.6331 17.1912 16.6432Z" fill="white"/>
<path id="Vector_53" d="M15.7593 16.6941C15.7593 16.6941 15.7593 16.8149 15.7874 17.0121C15.8156 17.2092 15.8156 17.5336 15.8332 17.8643V17.842L16.565 18.6052H16.5263L17.3742 18.5607L17.339 18.5766L17.7612 18.1123L17.9723 17.8802V17.9088C17.9723 17.4604 17.9512 17.0343 17.9407 16.6368L17.9864 16.6782L16.4031 16.6941H15.9458H15.7769C15.826 16.69 15.8755 16.69 15.9246 16.6941L16.3715 16.6718L17.9829 16.6146H18.0286V16.6559C18.0286 17.0407 18.0533 17.4668 18.0673 17.9279V17.947L17.8562 18.1791L17.434 18.6434H17.4129L16.565 18.6816H16.5404L15.8367 17.9088C15.8367 17.5717 15.8367 17.2728 15.8367 17.0343C15.8009 16.923 15.775 16.8092 15.7593 16.6941Z" fill="white"/>
<path id="Vector_54" d="M17.9441 17.788C17.9163 17.7806 17.8892 17.771 17.8632 17.7594C17.7926 17.7284 17.7197 17.7018 17.6451 17.6799C17.3609 17.5923 17.0597 17.5589 16.7605 17.5819C16.4614 17.6049 16.1707 17.6838 15.907 17.8134L15.8296 17.8484L15.9 17.8007C15.9492 17.7753 16.0196 17.7403 16.1111 17.7021C16.3531 17.6053 16.6135 17.5514 16.8781 17.5431C17.1422 17.5353 17.4054 17.5753 17.6521 17.6608C17.7265 17.6858 17.7993 17.7144 17.8702 17.7467L17.9441 17.788Z" fill="white"/>
<path id="Vector_55" d="M17.9441 17.4954L17.8632 17.4636C17.814 17.4445 17.7401 17.4159 17.6451 17.3873C17.1493 17.2291 16.606 17.2438 16.1216 17.4286L15.907 17.5177C15.8832 17.5326 15.8571 17.5444 15.8296 17.5526C15.8518 17.5363 15.8754 17.5214 15.9 17.5081C15.9679 17.4712 16.0384 17.4383 16.1111 17.4095C16.3525 17.3109 16.6132 17.2568 16.8781 17.2505C17.1418 17.2433 17.4046 17.2822 17.6521 17.365C17.7273 17.3894 17.8003 17.4192 17.8702 17.4541C17.8965 17.4653 17.9213 17.4792 17.9441 17.4954Z" fill="white"/>
<path id="Vector_56" d="M17.9229 17.2029L17.8455 17.1743C17.7734 17.1439 17.6993 17.1174 17.6238 17.0948C17.3786 17.0176 17.1198 16.9821 16.8603 16.9898C16.5993 16.9963 16.3417 17.0459 16.1004 17.1361C16.0281 17.1631 15.9576 17.1939 15.8893 17.2283L15.8083 17.2633L15.8822 17.2156C15.9506 17.1793 16.021 17.1464 16.0933 17.117C16.3341 17.0192 16.5937 16.9652 16.8576 16.9581C17.1214 16.951 17.3841 16.9909 17.6309 17.0757C17.7053 17.1006 17.7781 17.1293 17.849 17.1615L17.9229 17.2029Z" fill="white"/>
<path id="Vector_57" d="M8.31791 0.536484C8.31791 0.590544 6.68891 0.720924 4.66936 0.832224C3.45274 0.928175 2.2311 0.962149 1.01025 0.933984C1.01025 0.879924 2.63926 0.746364 4.65881 0.638244C6.67835 0.530124 8.3144 0.482424 8.31791 0.536484Z" fill="white"/>
<path id="Vector_58" d="M8.32133 2.20597C8.32133 2.26003 6.69233 2.39359 4.67278 2.50171C2.65323 2.60983 1.01719 2.65753 1.01367 2.60347C2.2227 2.4432 3.44087 2.34552 4.66223 2.31091C5.87873 2.21304 7.10041 2.178 8.32133 2.20597Z" fill="white"/>
<path id="Vector_59" d="M6.47059 3.82779C6.47059 3.88185 5.54525 3.97725 4.39474 4.03767C3.70171 4.10665 3.00279 4.11305 2.30835 4.05675C2.30835 4.00269 3.23368 3.90729 4.38067 3.84687C5.07489 3.77804 5.77496 3.77165 6.47059 3.82779Z" fill="white"/>
<path id="Vector_60" d="M7.78656 23.6169C7.78656 23.671 6.15756 23.8045 4.14153 23.9126C2.1255 24.0208 0.48594 24.0685 0.482422 24.0144C1.69028 23.8542 2.90727 23.7566 4.12746 23.7218C5.34396 23.624 6.56565 23.589 7.78656 23.6169Z" fill="white"/>
<path id="Vector_61" d="M7.80439 25.2801C7.80439 25.3341 6.17539 25.4645 4.15936 25.5758C2.14333 25.6871 0.503768 25.7316 0.50025 25.6776C0.496731 25.6235 2.12926 25.4931 4.14528 25.3818C6.16131 25.2705 7.7868 25.226 7.80439 25.2801Z" fill="white"/>
<path id="Vector_62" d="M5.9535 26.9114C5.9535 26.9655 5.02816 27.0577 3.88117 27.1213C2.73418 27.1849 1.79478 27.1913 1.79126 27.1372C2.47386 27.0056 3.16919 26.9353 3.8671 26.9273C5.01761 26.8669 5.94998 26.8574 5.9535 26.9114Z" fill="white"/>
<path id="Vector_63" d="M56.3682 13.6285H45.894V17.9629H56.3682V13.6285Z" fill="#F5F5F5"/>
<path id="Vector_64" d="M56.3682 17.9629C56.3553 17.8573 56.3494 17.7511 56.3506 17.6449C56.3506 17.4286 56.3506 17.1392 56.333 16.7735C56.333 16.0103 56.3084 14.9387 56.2908 13.6253L56.3682 13.6953L45.894 13.7207C45.799 13.8066 46.0206 13.6031 45.9995 13.6253V14.7479C45.9995 15.1231 45.9995 15.4888 45.9995 15.8513C45.9995 16.5806 45.9995 17.2813 45.9995 17.9533L45.901 17.8611L53.3916 17.9056L55.573 17.9311H56.1641H56.3752C56.3131 17.9349 56.2508 17.9349 56.1887 17.9311H55.6188L53.4585 17.9565L45.901 18.001H45.7849V17.9088C45.7849 17.2346 45.7849 16.534 45.7849 15.8068C45.7849 15.4443 45.7849 15.0786 45.7849 14.7034V13.5808L45.894 13.4822L56.3682 13.5109H56.4456V13.5808C56.428 14.9132 56.4139 15.9976 56.4034 16.7608C56.4034 17.117 56.4034 17.3968 56.3858 17.6162C56.3885 17.732 56.3826 17.8478 56.3682 17.9629Z" fill="#E0E0E0"/>
<path id="Vector_65" d="M44.0258 3.67194C40.131 8.53416 35.6486 13.0975 31.7502 17.9629L44.0258 3.67194Z" fill="white"/>
<path id="Vector_66" d="M31.7642 17.9629C31.7935 17.9069 31.8289 17.8537 31.8697 17.8039L32.1969 17.3682C32.4854 16.9898 32.9006 16.4524 33.4565 15.7973C34.5402 14.4808 36.0847 12.7032 37.8193 10.757C39.5538 8.81085 41.116 7.04595 42.2278 5.75487L43.5402 4.22211L43.892 3.80871C43.9764 3.71331 44.0222 3.66879 44.0292 3.67197C44.0042 3.72928 43.9698 3.78288 43.9272 3.83097L43.5964 4.26663C43.3115 4.64505 42.8928 5.17929 42.3369 5.83755C41.2567 7.15089 39.7086 8.93169 37.9741 10.8779C36.2395 12.824 34.6879 14.5889 33.5761 15.88L32.2638 17.4128L31.9119 17.8262C31.8703 17.878 31.8205 17.924 31.7642 17.9629Z" fill="#E0E0E0"/>
<path id="Vector_67" d="M44.353 17.9629C44.3037 17.9947 41.4503 14.8179 37.9742 10.8651C34.498 6.9124 31.7185 3.67834 31.7642 3.64654C31.81 3.61474 34.6669 6.79156 38.143 10.7443C41.6192 14.697 44.3987 17.9311 44.353 17.9629Z" fill="#E0E0E0"/>
<path id="Vector_68" d="M161.427 74.3567C161.427 74.382 155.038 74.4041 147.156 74.4041C139.275 74.4041 132.879 74.382 132.879 74.3567C132.879 74.3314 139.268 74.3062 147.156 74.3062C155.045 74.3062 161.427 74.3283 161.427 74.3567Z" fill="#E0E0E0"/>
<path id="Vector_69" d="M227.308 26.3228C227.308 26.348 225.504 26.3702 223.276 26.3702C221.049 26.3702 219.244 26.348 219.244 26.3228C219.244 26.2975 221.049 26.2722 223.276 26.2722C225.504 26.2722 227.308 26.2943 227.308 26.3228Z" fill="#E0E0E0"/>
<path id="Vector_70" d="M228.593 27.7188C228.593 27.744 226.482 27.7662 223.917 27.7662C221.352 27.7662 219.244 27.744 219.244 27.7188C219.244 27.6935 221.334 27.6682 223.917 27.6682C226.499 27.6682 228.593 27.6903 228.593 27.7188Z" fill="#E0E0E0"/>
<path id="Vector_71" d="M228.593 29.1117C228.593 29.1401 226.482 29.1622 223.917 29.1622C221.352 29.1622 219.241 29.1401 219.241 29.1117C219.241 29.0832 221.331 29.0643 223.913 29.0643C226.496 29.0643 228.593 29.0864 228.593 29.1117Z" fill="#E0E0E0"/>
<path id="Vector_72" d="M228.593 30.5077C228.593 30.5361 226.482 30.5582 223.917 30.5582C221.352 30.5582 219.241 30.5361 219.241 30.5077C219.241 30.4792 221.331 30.4603 223.913 30.4603C226.496 30.4603 228.593 30.4824 228.593 30.5077Z" fill="#E0E0E0"/>
<path id="Vector_73" d="M228.593 31.9037C228.593 31.9321 226.482 31.9543 223.917 31.9543C221.352 31.9543 219.244 31.9321 219.244 31.9037C219.244 31.8753 221.334 31.8563 223.917 31.8563C226.499 31.8563 228.593 31.8784 228.593 31.9037Z" fill="#E0E0E0"/>
<path id="Vector_74" d="M227.308 36.7469C227.308 36.7753 225.504 36.7974 223.276 36.7974C221.049 36.7974 219.244 36.7753 219.244 36.7469C219.244 36.7184 221.049 36.6995 223.276 36.6995C225.504 36.6995 227.308 36.7216 227.308 36.7469Z" fill="#E0E0E0"/>
<path id="Vector_75" d="M228.593 38.1397C228.593 38.1681 226.482 38.1871 223.917 38.1871C221.352 38.1871 219.241 38.1713 219.241 38.1397C219.241 38.1081 221.331 38.0923 223.913 38.0923C226.496 38.0923 228.593 38.1176 228.593 38.1397Z" fill="#E0E0E0"/>
<path id="Vector_76" d="M228.593 39.5388C228.593 39.5641 226.482 39.5862 223.917 39.5862C221.352 39.5862 219.241 39.5641 219.241 39.5388C219.241 39.5136 221.331 39.4915 223.913 39.4915C226.496 39.4915 228.593 39.5104 228.593 39.5388Z" fill="#E0E0E0"/>
<path id="Vector_77" d="M228.593 40.9349C228.593 40.9602 226.482 40.9823 223.917 40.9823C221.352 40.9823 219.244 40.9602 219.244 40.9349C219.244 40.9096 221.334 40.8843 223.917 40.8843C226.499 40.8843 228.593 40.9065 228.593 40.9349Z" fill="#E0E0E0"/>
<path id="Vector_78" d="M228.593 42.3309C228.593 42.3561 226.482 42.3783 223.917 42.3783C221.352 42.3783 219.244 42.3561 219.244 42.3309C219.244 42.3056 221.352 42.274 223.917 42.274C226.482 42.274 228.593 42.3024 228.593 42.3309Z" fill="#E0E0E0"/>
<path id="Vector_79" d="M227.308 47.174C227.308 47.1993 225.504 47.2214 223.276 47.2214C221.049 47.2214 219.244 47.1993 219.244 47.174C219.244 47.1488 221.049 47.1235 223.276 47.1235C225.504 47.1235 227.308 47.1456 227.308 47.174Z" fill="#E0E0E0"/>
<path id="Vector_80" d="M228.593 48.5701C228.593 48.5954 226.482 48.6175 223.917 48.6175C221.352 48.6175 219.241 48.5954 219.241 48.5701C219.241 48.5448 221.331 48.5195 223.913 48.5195C226.496 48.5195 228.593 48.5416 228.593 48.5701Z" fill="#E0E0E0"/>
<path id="Vector_81" d="M228.593 49.966C228.593 49.9913 226.482 50.0134 223.917 50.0134C221.352 50.0134 219.244 49.9913 219.244 49.966C219.244 49.9408 221.352 49.906 223.917 49.906C226.482 49.906 228.593 49.9376 228.593 49.966Z" fill="#E0E0E0"/>
<path id="Vector_82" d="M228.593 51.3589C228.593 51.3873 226.482 51.4095 223.917 51.4095C221.352 51.4095 219.244 51.3873 219.244 51.3589C219.244 51.3305 221.334 51.3115 223.917 51.3115C226.499 51.3115 228.593 51.3336 228.593 51.3589Z" fill="#E0E0E0"/>
<path id="Vector_83" d="M228.593 52.7677C228.593 52.7961 226.482 52.8182 223.917 52.8182C221.352 52.8182 219.241 52.7835 219.241 52.7677C219.241 52.7519 221.331 52.7203 223.913 52.7203C226.496 52.7203 228.593 52.7298 228.593 52.7677Z" fill="#E0E0E0"/>
<path id="Vector_84" d="M227.308 57.5981C227.308 57.6265 225.504 57.6487 223.276 57.6487C221.049 57.6487 219.244 57.6265 219.244 57.5981C219.244 57.5697 221.049 57.5507 223.276 57.5507C225.504 57.5507 227.308 57.5728 227.308 57.5981Z" fill="#E0E0E0"/>
<path id="Vector_85" d="M228.593 58.9941C228.593 59.0225 226.482 59.0447 223.917 59.0447C221.352 59.0447 219.244 59.0225 219.244 58.9941C219.244 58.9657 221.334 58.9467 223.917 58.9467C226.499 58.9467 228.593 58.9688 228.593 58.9941Z" fill="#E0E0E0"/>
<path id="Vector_86" d="M228.593 60.3997C228.593 60.4281 226.482 60.4471 223.917 60.4471C221.352 60.4471 219.241 60.4186 219.241 60.3997C219.241 60.3807 221.331 60.3523 223.913 60.3523C226.496 60.3523 228.593 60.3649 228.593 60.3997Z" fill="#E0E0E0"/>
<path id="Vector_87" d="M228.593 61.7862C228.593 61.8114 226.482 61.8336 223.917 61.8336C221.352 61.8336 219.244 61.8114 219.244 61.7862C219.244 61.7609 221.334 61.7388 223.917 61.7388C226.499 61.7388 228.593 61.7577 228.593 61.7862Z" fill="#E0E0E0"/>
<path id="Vector_88" d="M228.593 63.1821C228.593 63.2074 226.482 63.2295 223.917 63.2295C221.352 63.2295 219.244 63.2074 219.244 63.1821C219.244 63.1569 221.334 63.1316 223.917 63.1316C226.499 63.1316 228.593 63.1537 228.593 63.1821Z" fill="#E0E0E0"/>
<path id="Vector_89" d="M227.308 68.1207C227.308 68.1491 225.504 68.1681 223.276 68.1681C221.049 68.1681 219.244 68.1491 219.244 68.1207C219.244 68.0923 221.049 68.0733 223.276 68.0733C225.504 68.0733 227.308 68.0954 227.308 68.1207Z" fill="#E0E0E0"/>
<path id="Vector_90" d="M228.593 69.4945C228.593 69.5197 226.482 69.5419 223.917 69.5419C221.352 69.5419 219.241 69.5197 219.241 69.4945C219.241 69.4692 221.331 69.4471 223.913 69.4471C226.496 69.4471 228.593 69.466 228.593 69.4945Z" fill="#E0E0E0"/>
<path id="Vector_91" d="M228.593 70.8651C228.593 70.8904 226.482 70.9125 223.917 70.9125C221.352 70.9125 219.241 70.8935 219.241 70.8651C219.241 70.8366 221.331 70.8177 223.913 70.8177C226.496 70.8177 228.593 70.8398 228.593 70.8651Z" fill="#E0E0E0"/>
<path id="Vector_92" d="M228.593 72.2356C228.593 72.2641 226.482 72.283 223.917 72.283C221.352 72.283 219.244 72.2641 219.244 72.2356C219.244 72.2072 221.334 72.1882 223.917 72.1882C226.499 72.1882 228.593 72.2103 228.593 72.2356Z" fill="#E0E0E0"/>
<path id="Vector_93" d="M228.593 73.6094C228.593 73.6347 226.482 73.6568 223.917 73.6568C221.352 73.6568 219.244 73.6347 219.244 73.6094C219.244 73.5841 221.334 73.562 223.917 73.562C226.499 73.562 228.593 73.581 228.593 73.6094Z" fill="#E0E0E0"/>
<path id="Vector_94" d="M120.635 17.7626C120.635 17.8544 120.605 17.9441 120.548 18.0205C120.492 18.0968 120.412 18.1564 120.318 18.1915C120.224 18.2266 120.121 18.2358 120.021 18.2179C119.921 18.2 119.83 18.1558 119.758 18.0909C119.686 18.0259 119.637 17.9432 119.617 17.8531C119.597 17.7631 119.608 17.6697 119.647 17.5849C119.685 17.5 119.751 17.4275 119.836 17.3765C119.92 17.3255 120.02 17.2983 120.121 17.2983C120.257 17.2983 120.388 17.3472 120.484 17.4343C120.581 17.5213 120.635 17.6394 120.635 17.7626Z" fill="white"/>
<path id="Vector_95" d="M121.764 18.2268C122.048 18.2268 122.278 18.019 122.278 17.7626C122.278 17.5061 122.048 17.2983 121.764 17.2983C121.48 17.2983 121.25 17.5061 121.25 17.7626C121.25 18.019 121.48 18.2268 121.764 18.2268Z" fill="white"/>
<path id="Vector_96" d="M123.404 18.2268C123.688 18.2268 123.918 18.019 123.918 17.7626C123.918 17.5061 123.688 17.2983 123.404 17.2983C123.12 17.2983 122.89 17.5061 122.89 17.7626C122.89 18.019 123.12 18.2268 123.404 18.2268Z" fill="white"/>
<path id="Vector_97" d="M198.961 27.3884H125.402V65.7965H198.961V27.3884Z" fill="#E0E0E0"/>
</g>
</svg>
