<svg width="119" height="110" viewBox="0 0 119 110" fill="none" xmlns="http://www.w3.org/2000/svg">
<g id="freepik--character-1--inject-106">
<path id="Vector" d="M101.167 55.0979L106.797 63.5408C106.797 63.5408 112.795 72.5434 113.742 74.9697C114.688 77.3961 118.629 98.3395 118.636 99.9359C118.653 103.532 114.414 106.763 111.881 106.763C109.347 106.763 104.274 104.785 99.8548 102.645C95.4357 100.505 87.2097 91.8587 87.2097 91.8587L85.732 73.2875L83.804 56.2491L101.167 55.0979Z" fill="#E0FFFF"/>
<path id="Vector_2" d="M99.714 94.4027C99.6992 94.3722 99.6886 94.3401 99.6823 94.3073C99.6647 94.2373 99.6401 94.1451 99.6119 94.0306C99.5521 93.7731 99.4642 93.4137 99.3586 92.9526C99.1405 91.9986 98.8309 90.6567 98.4509 88.9903L97.135 83.1073C96.8922 82.0007 96.6319 80.8368 96.368 79.6316C96.0816 78.3865 95.8678 77.1287 95.7277 75.8633C95.6678 75.2114 95.6432 74.5627 95.6538 73.9235C95.6643 73.2843 95.7101 72.6515 95.7452 72.0473C95.7804 71.4431 95.8121 70.8325 95.8015 70.2442L95.7593 69.8118C95.7607 69.6713 95.7501 69.531 95.7277 69.392C95.6753 69.1134 95.6024 68.8382 95.5095 68.5684C95.152 67.5534 94.6804 66.5741 94.1022 65.646C93.5779 64.7619 93.0467 63.9669 92.54 63.2387C91.5408 61.7886 90.728 60.6152 90.2284 59.7725C89.9822 59.3464 89.7922 59.0188 89.6866 58.7867L89.5599 58.5228C89.5318 58.4623 89.5212 58.4305 89.5212 58.4305C89.5428 58.4576 89.5616 58.4863 89.5775 58.5164C89.6127 58.58 89.662 58.6659 89.7183 58.7708C89.8379 58.9998 90.0349 59.3241 90.2883 59.7407C90.8055 60.5739 91.6358 61.7346 92.6491 63.1783C93.1487 63.9033 93.7046 64.6951 94.2359 65.5792C94.8235 66.5139 95.3033 67.5006 95.6678 68.5239C95.7615 68.8004 95.8367 69.0819 95.893 69.3666C95.9278 69.51 95.9502 69.6557 95.9599 69.8022C95.9599 69.9517 95.9915 70.1011 96.0021 70.2474C96.0021 70.8421 96.0021 71.4495 95.9493 72.0632C95.8965 72.6769 95.8719 73.3002 95.8578 73.933C95.8438 74.5659 95.8754 75.205 95.9352 75.841C96.0698 77.1015 96.2753 78.355 96.551 79.5966C96.8113 80.8018 97.0682 81.9625 97.3074 83.0724C97.7894 85.2984 98.2257 87.2827 98.5881 88.9617C98.9505 90.6408 99.2355 91.9859 99.436 92.9335C99.531 93.3946 99.6049 93.7572 99.6577 94.0179C99.6823 94.1324 99.6999 94.2278 99.7105 94.2978C99.7181 94.3323 99.7192 94.3678 99.714 94.4027Z" fill="#263238"/>
<path id="Vector_3" d="M106.329 65.0259C106.247 65.14 106.152 65.2465 106.047 65.3439C105.952 65.4456 105.832 65.5665 105.695 65.7001C105.558 65.8336 105.382 65.9926 105.185 66.1484C104.728 66.525 104.242 66.8725 103.732 67.1883C103.104 67.5722 102.444 67.9113 101.758 68.2027C101.069 68.485 100.358 68.7199 99.6296 68.9055C99.0328 69.0519 98.4248 69.1582 97.8106 69.2235C97.5502 69.2616 97.311 69.2712 97.1069 69.2871C96.9292 69.302 96.7506 69.3083 96.5721 69.3062C96.42 69.3198 96.2668 69.3198 96.1147 69.3062C96.1147 69.2744 96.7621 69.268 97.7965 69.1217C98.3999 69.0354 98.9968 68.9153 99.5839 68.7624C100.305 68.5721 101.01 68.3362 101.695 68.0564C102.371 67.7661 103.025 67.4346 103.651 67.0643C104.161 66.7588 104.649 66.4242 105.111 66.0626C105.878 65.4488 106.304 65.0036 106.329 65.0259Z" fill="#263238"/>
<g id="Group" opacity="0.3">
<path id="Vector_4" d="M90.144 59.4005C91.8584 62.8708 93.2472 66.4652 94.2957 70.1457C95.2985 73.8218 95.6081 77.7236 94.5279 81.3806C93.8243 83.7624 92.8813 86.7198 94.1972 88.8791C94.0846 86.6944 94.6722 81.5333 95.9564 80.5729C97.0999 84.0709 98.2257 89.2797 99.3692 92.7936C98.5143 87.2763 96.8782 82.5 96.1112 76.9382C95.9001 75.4308 96.178 72.0282 95.9458 70.5273C95.2422 65.9799 94.6229 66.3933 90.1546 59.3973" fill="black"/>
</g>
<path id="Vector_5" d="M96.4315 79.7461C96.4596 79.7461 96.15 80.2581 95.7524 81.104C95.2365 82.2058 94.8509 83.3538 94.6019 84.5288C94.3573 85.7047 94.2524 86.9008 94.2888 88.0968C94.3169 89.0126 94.4014 89.5787 94.3662 89.585C94.3239 89.4564 94.2956 89.3243 94.2818 89.1907C94.2183 88.8295 94.1772 88.4653 94.1586 88.1C94.0118 85.6788 94.5177 83.2616 95.6328 81.0563C95.851 80.6365 96.0409 80.3058 96.1887 80.0832C96.2551 79.9628 96.3366 79.8497 96.4315 79.7461Z" fill="#263238"/>
<path id="Vector_6" d="M38.6246 76.5534C38.6668 76.5788 36.2848 80.0101 33.3083 84.2204C30.3317 88.4307 27.8794 91.8206 27.8372 91.7983C27.795 91.7761 30.1734 88.3417 33.1535 84.1313C36.1335 79.921 38.5823 76.5311 38.6246 76.5534Z" fill="#263238"/>
<path id="Vector_7" d="M31.7672 55.4287L51.3962 52.1564L72.5451 52.538H77.784L88.99 59.251C88.99 59.251 91.101 86.386 86.6573 95.0419C85.1902 97.9039 79.3848 106.77 79.3848 106.77L35.5283 106.916L24.2695 98.1361L28.467 81.8831L31.7672 55.4287Z" fill="#E0FFFF"/>
<g id="Group_2" opacity="0.3">
<path id="Vector_8" d="M63.429 96.6128L63.1968 96.581C61.0534 98.0917 59.5001 100.182 58.7637 102.547C61.6769 102.432 64.2488 100.62 65.8004 98.3872C67.352 96.1549 68.0205 93.5314 68.6151 90.9524C67.067 92.9781 65.5084 95.0355 63.429 96.6128Z" fill="black"/>
</g>
<path id="Vector_9" d="M1.43528 106.763C-1.1472 105.94 0.0701553 92.6728 6.60377 86.3605C7.45874 85.5337 21.9755 60.9046 28.1995 56.8946C32.7031 53.9913 36.816 55.1329 37.8786 60.9014C38.9411 66.67 38.6386 76.5534 38.6386 76.5534L27.8231 91.7983L31.1655 93.4456L42.5615 94.1324L40.4329 106.763H1.43528Z" fill="#E0FFFF"/>
<path id="Vector_10" d="M40.447 106.763C40.447 106.763 40.447 106.744 40.447 106.706L40.4681 106.538C40.4927 106.379 40.5244 106.159 40.5666 105.879C40.6581 105.294 40.7918 104.458 40.9571 103.408C41.309 101.281 41.8016 98.2823 42.3645 94.7589L42.4384 94.8447L33.7093 93.8271L31.1514 93.525H31.1339L29.35 92.606C28.7589 92.3198 28.2277 91.97 27.6507 91.6997C26.5661 91.1666 25.4296 90.7249 24.2554 90.38C23.1963 90.079 22.1145 89.8473 21.0185 89.6868C20.0677 89.5599 19.1086 89.4909 18.1475 89.4801C16.7637 89.459 15.3812 89.572 14.024 89.8172C13.542 89.8871 13.1796 89.9857 12.9298 90.0334L12.6448 90.0906L12.5498 90.1065C12.5498 90.1065 12.578 90.1065 12.6413 90.0779L12.9228 90.0048C13.169 89.9444 13.5314 89.8394 14.0099 89.7567C15.3685 89.4859 16.7564 89.3536 18.1475 89.3624C19.1153 89.366 20.0816 89.4297 21.0396 89.5532C22.1455 89.7049 23.237 89.9324 24.3047 90.2337C25.4902 90.5784 26.6374 91.0223 27.7316 91.5598C28.3192 91.8206 28.8504 92.1958 29.4415 92.4661L31.2253 93.3724H31.1901L33.748 93.6713L42.4771 94.7048H42.5615V94.7811C41.9528 98.3014 41.4392 101.297 41.0733 103.421C40.8868 104.471 40.7214 105.304 40.6335 105.886C40.5807 106.166 40.5385 106.382 40.5103 106.541C40.5103 106.608 40.4822 106.665 40.4751 106.709C40.4681 106.754 40.4505 106.767 40.447 106.763Z" fill="#263238"/>
<path id="Vector_11" d="M31.5032 93.5601C30.8915 93.7363 30.2932 93.9487 29.7124 94.1961C28.317 94.8084 27.1339 95.7547 26.2915 96.932C25.4492 98.1093 24.9798 99.4726 24.9344 100.874C24.9263 101.454 24.9615 102.034 25.04 102.61C25.04 102.61 25.0189 102.572 24.9978 102.493C24.964 102.381 24.937 102.267 24.9168 102.152C24.8351 101.733 24.7974 101.307 24.8043 100.88C24.8163 99.4508 25.2792 98.0539 26.1385 96.8537C26.9979 95.6534 28.2181 94.6995 29.6561 94.1038C30.0855 93.9207 30.5332 93.7748 30.9931 93.6682C31.1549 93.6268 31.2851 93.6109 31.3695 93.595C31.454 93.5791 31.5032 93.5601 31.5032 93.5601Z" fill="#263238"/>
<g id="Group_3" opacity="0.3">
<path id="Vector_12" d="M27.9075 91.6965C24.368 88.2462 18.7316 86.8025 13.834 88.3671C13.3731 88.5133 12.8348 88.8091 12.9052 89.2447C12.9896 89.7949 13.8516 89.8203 14.4533 89.7217C19.0281 88.9371 23.7626 89.6364 27.8231 91.6965" fill="black"/>
</g>
<path id="Vector_13" d="M39.184 69.9485C39.184 69.9485 39.2157 69.7291 39.2755 69.3443C39.3609 68.7988 39.3997 68.2481 39.3916 67.6971C39.3804 65.8752 38.8308 64.0892 37.7996 62.5237C36.7684 60.9582 35.2932 59.6703 33.5264 58.7931C32.9943 58.5245 32.4403 58.2927 31.8693 58.0998C31.6551 58.0384 31.4448 57.9662 31.2395 57.8836C31.2972 57.887 31.354 57.8977 31.4084 57.9154C31.5716 57.9483 31.7325 57.9897 31.8904 58.0394C32.477 58.2084 33.0447 58.4266 33.5863 58.6913C35.3986 59.5538 36.9121 60.8522 37.9595 62.4431C39.0069 64.034 39.5475 65.8555 39.5218 67.7066C39.5176 68.2625 39.4588 68.817 39.3458 69.3634C39.3106 69.5574 39.2614 69.7037 39.2368 69.8054C39.2266 69.8551 39.2088 69.9033 39.184 69.9485Z" fill="#263238"/>
<path id="Vector_14" d="M87.3259 64.657C87.34 64.6864 87.3494 64.7174 87.3541 64.7492L87.4104 65.029C87.4596 65.2866 87.5265 65.646 87.6144 66.1071C87.7833 67.042 88.0261 68.3935 88.2935 70.0725C88.5609 71.7516 88.8494 73.7518 89.057 75.9873C89.2946 78.4105 89.3686 80.8446 89.2786 83.2759C89.1745 85.7107 88.8271 88.1321 88.2407 90.5104C87.7627 92.4521 87.0757 94.3468 86.1895 96.1676C85.5944 97.3967 84.8883 98.5794 84.0785 99.7038C83.804 100.111 83.5507 100.397 83.3959 100.604C83.3185 100.699 83.2587 100.775 83.2094 100.833C83.1906 100.86 83.1682 100.886 83.1426 100.909C83.1426 100.909 83.1426 100.877 83.1954 100.823L83.3642 100.585C83.5085 100.375 83.7548 100.079 84.0186 99.672C84.7976 98.5359 85.4809 97.3486 86.0628 96.1199C86.9289 94.3005 87.6004 92.4104 88.0683 90.4754C88.6439 88.1056 88.9842 85.6941 89.0851 83.2695C89.2997 78.1052 88.6453 73.4401 88.1563 70.0884C87.8959 68.4189 87.6848 67.0643 87.5335 66.1166C87.4631 65.6555 87.4068 65.293 87.3681 65.0354L87.3259 64.7524C87.322 64.7207 87.322 64.6887 87.3259 64.657Z" fill="#263238"/>
<path id="Vector_15" d="M98.7957 105.698H49.834V108.84H98.7957V105.698Z" fill="#EBEBEB"/>
<path id="Vector_16" d="M110.519 101.192L60.178 102.321L51.8887 104.521L49.834 105.698H98.7957L103.165 106.989L109.418 105.307L110.519 101.192Z" fill="white"/>
<path id="Vector_17" d="M98.7958 105.698C98.7958 105.698 104.232 106.455 106.364 105.698C108.496 104.941 110.505 101.192 110.505 101.192L110.744 106.989L98.7817 108.84L98.7958 105.698Z" fill="#E0E0E0"/>
<path id="Vector_18" d="M98.7923 105.679C98.8901 106.204 98.9254 106.737 98.8978 107.269C98.9361 107.8 98.9101 108.333 98.8204 108.859C98.7268 108.334 98.6915 107.801 98.7149 107.269C98.6809 106.738 98.7069 106.205 98.7923 105.679Z" fill="#263238"/>
<path id="Vector_19" d="M110.283 101.828C110.28 101.87 110.269 101.91 110.252 101.949C110.216 102.057 110.175 102.163 110.128 102.267C109.949 102.666 109.713 103.043 109.425 103.386C108.452 104.522 107.106 105.348 105.579 105.746C104.061 106.122 102.475 106.22 100.914 106.035C100.316 105.972 99.8371 105.895 99.5064 105.832C99.3336 105.808 99.1639 105.768 98.9998 105.714C99.1733 105.721 99.3461 105.739 99.517 105.768C99.8477 105.809 100.33 105.87 100.924 105.917C102.467 106.071 104.028 105.964 105.526 105.599C107.017 105.208 108.342 104.418 109.326 103.332C109.71 102.867 110.032 102.362 110.283 101.828Z" fill="#263238"/>
<path id="Vector_20" d="M105.896 106.35C105.592 106.479 105.273 106.579 104.946 106.646C103.385 107.037 101.777 107.257 100.157 107.301C99.8219 107.325 99.4846 107.316 99.1511 107.275C99.481 107.221 99.8152 107.192 100.15 107.186C100.766 107.142 101.614 107.069 102.546 106.941C103.479 106.814 104.306 106.655 104.914 106.531C105.236 106.451 105.564 106.39 105.896 106.35Z" fill="#263238"/>
<path id="Vector_21" d="M105.692 107.603C105.374 107.675 105.048 107.719 104.721 107.733C104.116 107.787 103.278 107.841 102.349 107.867C101.42 107.892 100.59 107.883 99.978 107.867C99.6486 107.871 99.3196 107.845 98.9963 107.787C99.322 107.752 99.6502 107.74 99.978 107.752C100.587 107.752 101.42 107.736 102.346 107.711C103.271 107.686 104.105 107.651 104.71 107.625C105.036 107.59 105.365 107.583 105.692 107.603Z" fill="#263238"/>
<path id="Vector_22" d="M96.4946 109.005C96.2395 108.959 96.0077 108.839 95.8331 108.665C95.5987 108.473 95.4179 108.233 95.3055 107.966C95.1932 107.698 95.1526 107.41 95.1869 107.126C95.2212 106.842 95.3295 106.569 95.503 106.329C95.6765 106.09 95.9102 105.891 96.185 105.749C96.3991 105.616 96.6535 105.546 96.9133 105.549C96.6882 105.638 96.4686 105.737 96.2554 105.848C96.0151 105.995 95.8117 106.186 95.6583 106.409C95.505 106.632 95.4051 106.882 95.3652 107.142C95.3393 107.404 95.3751 107.667 95.4703 107.916C95.5655 108.164 95.718 108.391 95.9176 108.582C96.098 108.736 96.2909 108.878 96.4946 109.005Z" fill="#263238"/>
<path id="Vector_23" d="M96.0197 109.142C95.7799 109.094 95.561 108.983 95.3899 108.824C94.931 108.482 94.6375 107.992 94.5719 107.457C94.5062 106.923 94.6734 106.387 95.0381 105.962C95.17 105.779 95.355 105.633 95.5729 105.539C95.594 105.561 95.3758 105.708 95.1436 106.029C94.835 106.443 94.7008 106.944 94.7654 107.441C94.8299 107.937 95.0889 108.396 95.4955 108.735C95.7804 109.021 96.0338 109.12 96.0197 109.142Z" fill="#263238"/>
<path id="Vector_24" d="M93.4372 109.005C93.1822 108.959 92.9503 108.839 92.7758 108.665C92.5406 108.473 92.3591 108.234 92.2464 107.966C92.1336 107.698 92.0927 107.41 92.127 107.126C92.1614 106.841 92.27 106.568 92.4439 106.328C92.6179 106.089 92.8522 105.891 93.1276 105.749C93.3415 105.615 93.596 105.545 93.8559 105.549C93.629 105.636 93.4081 105.736 93.1945 105.848C92.9478 105.989 92.7393 106.178 92.584 106.402C92.4287 106.625 92.3306 106.877 92.2969 107.139C92.2631 107.401 92.2946 107.667 92.3891 107.917C92.4835 108.166 92.6384 108.394 92.8426 108.582C93.0287 108.737 93.2274 108.878 93.4372 109.005Z" fill="#263238"/>
<path id="Vector_25" d="M92.9623 109.142C92.7226 109.094 92.5037 108.983 92.3325 108.824C91.8736 108.482 91.5802 107.992 91.5145 107.457C91.4488 106.923 91.616 106.387 91.9807 105.962C92.1125 105.778 92.2991 105.631 92.519 105.539C92.5366 105.561 92.3185 105.708 92.0862 106.029C91.7776 106.443 91.6435 106.944 91.708 107.441C91.7725 107.937 92.0315 108.396 92.4381 108.735C92.7266 109.021 92.9764 109.12 92.9623 109.142Z" fill="#263238"/>
<path id="Vector_26" d="M90.3798 109.005C90.1248 108.959 89.893 108.839 89.7184 108.665C89.4832 108.473 89.3018 108.234 89.189 107.966C89.0762 107.698 89.0353 107.41 89.0697 107.126C89.104 106.841 89.2126 106.568 89.3866 106.328C89.5605 106.089 89.7948 105.891 90.0702 105.749C90.2841 105.615 90.5386 105.545 90.7985 105.549C90.5717 105.636 90.3508 105.736 90.1371 105.848C89.8905 105.989 89.6819 106.178 89.5266 106.402C89.3713 106.625 89.2732 106.877 89.2395 107.139C89.2058 107.401 89.2373 107.667 89.3317 107.917C89.4261 108.166 89.5811 108.394 89.7852 108.582C89.9713 108.737 90.1701 108.878 90.3798 109.005Z" fill="#263238"/>
<path id="Vector_27" d="M89.9047 109.142C89.6653 109.093 89.4465 108.983 89.2749 108.824C88.816 108.482 88.5226 107.992 88.4569 107.457C88.3912 106.923 88.5584 106.387 88.9231 105.962C89.0549 105.778 89.2415 105.631 89.4614 105.539C89.479 105.561 89.2608 105.708 89.0286 106.029C88.72 106.443 88.5859 106.944 88.6504 107.441C88.7149 107.937 88.9739 108.396 89.3805 108.735C89.669 109.021 89.9188 109.12 89.9047 109.142Z" fill="#263238"/>
<path id="Vector_28" d="M87.3258 109.005C87.0692 108.96 86.8358 108.841 86.6608 108.665C86.4256 108.473 86.2442 108.234 86.1314 107.966C86.0186 107.698 85.9777 107.41 86.012 107.126C86.0464 106.841 86.155 106.568 86.329 106.328C86.5029 106.089 86.7372 105.891 87.0126 105.749C87.2265 105.615 87.481 105.545 87.7409 105.549C87.515 105.636 87.2953 105.736 87.083 105.848C86.8353 105.988 86.6257 106.177 86.4696 106.4C86.3136 106.624 86.215 106.876 86.1812 107.139C86.1475 107.401 86.1793 107.667 86.2745 107.917C86.3697 108.167 86.5257 108.394 86.7311 108.582C86.9153 108.739 87.1143 108.88 87.3258 109.005Z" fill="#263238"/>
<path id="Vector_29" d="M86.8474 109.142C86.6088 109.093 86.3912 108.983 86.2211 108.824C85.7614 108.482 85.4674 107.992 85.4017 107.458C85.336 106.923 85.5037 106.386 85.8693 105.962C86.0011 105.778 86.1877 105.631 86.4076 105.539C86.4287 105.561 86.207 105.708 85.9748 106.029C85.6662 106.443 85.532 106.944 85.5966 107.441C85.6611 107.937 85.9201 108.396 86.3266 108.735C86.6116 109.021 86.8614 109.12 86.8474 109.142Z" fill="#263238"/>
<path id="Vector_30" d="M84.2683 109.005C84.0126 108.96 83.7803 108.841 83.6068 108.665C83.3723 108.473 83.1916 108.233 83.0792 107.966C82.9669 107.698 82.9262 107.41 82.9605 107.126C82.9949 106.842 83.1032 106.569 83.2767 106.329C83.4502 106.09 83.6839 105.891 83.9587 105.749C84.1728 105.616 84.4271 105.546 84.687 105.549C84.4611 105.636 84.2413 105.736 84.029 105.848C83.7814 105.988 83.5718 106.177 83.4157 106.4C83.2596 106.624 83.161 106.876 83.1273 107.139C83.0935 107.401 83.1254 107.667 83.2206 107.917C83.3157 108.167 83.4718 108.394 83.6772 108.582C83.8603 108.739 84.058 108.88 84.2683 109.005Z" fill="#263238"/>
<path id="Vector_31" d="M83.7898 109.142C83.5513 109.093 83.3336 108.983 83.1636 108.824C82.7076 108.481 82.4153 107.992 82.3473 107.46C82.2866 106.927 82.4513 106.393 82.8082 105.965C82.941 105.782 83.1273 105.636 83.3465 105.542C83.3676 105.564 83.146 105.711 82.9138 106.032C82.603 106.445 82.4659 106.945 82.5272 107.441C82.5885 107.937 82.8442 108.397 83.248 108.738C83.5541 109.021 83.8039 109.12 83.7898 109.142Z" fill="#263238"/>
<path id="Vector_32" d="M81.2109 109.005C80.9555 108.96 80.7234 108.84 80.5494 108.665C80.315 108.473 80.1342 108.233 80.0218 107.966C79.9095 107.698 79.8689 107.41 79.9032 107.126C79.9375 106.842 80.0458 106.569 80.2193 106.329C80.3928 106.09 80.6265 105.891 80.9013 105.749C81.1154 105.616 81.3698 105.546 81.6296 105.549C81.4041 105.637 81.1844 105.737 80.9717 105.848C80.724 105.988 80.5144 106.177 80.3583 106.4C80.2022 106.624 80.1037 106.876 80.0699 107.139C80.0361 107.401 80.068 107.667 80.1632 107.917C80.2584 108.167 80.4144 108.394 80.6198 108.582C80.8029 108.739 81.0007 108.88 81.2109 109.005Z" fill="#263238"/>
<path id="Vector_33" d="M80.7323 109.142C80.4938 109.093 80.2761 108.983 80.1061 108.824C79.6479 108.482 79.3551 107.991 79.2894 107.457C79.2237 106.923 79.3904 106.387 79.7542 105.962C79.887 105.779 80.0734 105.632 80.2926 105.539C80.3137 105.561 80.092 105.708 79.8598 106.029C79.5491 106.442 79.412 106.941 79.4732 107.438C79.5345 107.934 79.7902 108.394 80.194 108.735C80.4966 109.021 80.7464 109.12 80.7323 109.142Z" fill="#263238"/>
<path id="Vector_34" d="M78.1533 109.005C77.8979 108.96 77.6658 108.84 77.4918 108.665C77.2574 108.473 77.0766 108.233 76.9642 107.966C76.8519 107.698 76.8112 107.41 76.8456 107.126C76.8799 106.842 76.9882 106.569 77.1617 106.329C77.3352 106.09 77.5689 105.891 77.8437 105.749C78.0578 105.616 78.3122 105.546 78.572 105.549C78.3465 105.637 78.1268 105.737 77.914 105.848C77.6674 105.989 77.4588 106.178 77.3036 106.402C77.1483 106.625 77.0502 106.877 77.0164 107.139C76.9827 107.401 77.0142 107.667 77.1086 107.917C77.2031 108.166 77.358 108.394 77.5622 108.582C77.7462 108.738 77.9439 108.879 78.1533 109.005Z" fill="#263238"/>
<path id="Vector_35" d="M77.675 109.142C77.4364 109.093 77.2188 108.983 77.0487 108.824C76.5906 108.482 76.2977 107.991 76.232 107.457C76.1664 106.923 76.3331 106.387 76.6969 105.962C76.8297 105.779 77.016 105.632 77.2352 105.539C77.2563 105.561 77.0346 105.708 76.8024 106.029C76.5005 106.445 76.3652 106.942 76.4189 107.438C76.4811 107.93 76.7297 108.389 77.1226 108.735C77.4322 109.021 77.6926 109.12 77.675 109.142Z" fill="#263238"/>
<path id="Vector_36" d="M75.0959 109.005C74.8409 108.959 74.609 108.839 74.4345 108.665C74.2 108.473 74.0192 108.233 73.9069 107.966C73.7945 107.698 73.7539 107.41 73.7882 107.126C73.8225 106.842 73.9308 106.569 74.1043 106.329C74.2778 106.09 74.5115 105.891 74.7863 105.749C75.0004 105.616 75.2548 105.546 75.5146 105.549C75.2891 105.637 75.0694 105.737 74.8567 105.848C74.6101 105.989 74.4015 106.178 74.2462 106.402C74.0909 106.625 73.9928 106.877 73.9591 107.139C73.9253 107.401 73.9568 107.667 74.0513 107.917C74.1457 108.166 74.3007 108.394 74.5048 108.582C74.6888 108.738 74.8865 108.879 75.0959 109.005Z" fill="#263238"/>
<path id="Vector_37" d="M74.6175 109.142C74.3777 109.094 74.1588 108.983 73.9877 108.824C73.5295 108.482 73.2367 107.991 73.171 107.457C73.1053 106.923 73.272 106.387 73.6358 105.962C73.7686 105.779 73.955 105.632 74.1742 105.539C74.1953 105.561 73.9736 105.708 73.7414 106.029C73.4335 106.444 73.2997 106.944 73.3643 107.441C73.4288 107.937 73.6873 108.396 74.0932 108.735C74.3817 109.021 74.6351 109.12 74.6175 109.142Z" fill="#263238"/>
<path id="Vector_38" d="M72.0385 109.005C71.7835 108.959 71.5517 108.839 71.3771 108.665C71.1426 108.473 70.9618 108.233 70.8495 107.966C70.7372 107.698 70.6965 107.41 70.7308 107.126C70.7651 106.842 70.8735 106.568 71.0469 106.329C71.2204 106.09 71.4541 105.891 71.7289 105.749C71.9431 105.616 72.1974 105.546 72.4572 105.549C72.2321 105.638 72.0125 105.737 71.7993 105.848C71.5527 105.989 71.3441 106.178 71.1888 106.402C71.0335 106.625 70.9354 106.877 70.9017 107.139C70.868 107.401 70.8995 107.667 70.9939 107.917C71.0883 108.166 71.2433 108.394 71.4475 108.582C71.6324 108.737 71.83 108.878 72.0385 109.005Z" fill="#263238"/>
<path id="Vector_39" d="M71.5634 109.142C71.3237 109.094 71.1047 108.983 70.9336 108.824C70.4747 108.482 70.1812 107.992 70.1156 107.457C70.0499 106.923 70.2171 106.387 70.5818 105.962C70.7137 105.779 70.8988 105.633 71.1166 105.539C71.1377 105.561 70.9195 105.708 70.6873 106.029C70.3766 106.442 70.2395 106.941 70.3008 107.438C70.3621 107.934 70.6177 108.394 71.0216 108.735C71.3277 109.021 71.5775 109.12 71.5634 109.142Z" fill="#263238"/>
<path id="Vector_40" d="M68.988 109.005C68.733 108.959 68.5011 108.839 68.3266 108.665C68.0914 108.473 67.9099 108.234 67.7971 107.966C67.6844 107.698 67.6435 107.41 67.6778 107.126C67.7122 106.841 67.8208 106.568 67.9947 106.328C68.1687 106.089 68.403 105.891 68.6784 105.749C68.8923 105.615 69.1468 105.545 69.4067 105.549C69.1798 105.636 68.9589 105.736 68.7452 105.848C68.4986 105.989 68.29 106.178 68.1347 106.402C67.9794 106.625 67.8814 106.877 67.8476 107.139C67.8139 107.401 67.8454 107.667 67.9398 107.917C68.0343 108.166 68.1892 108.394 68.3934 108.582C68.5794 108.737 68.7782 108.878 68.988 109.005Z" fill="#263238"/>
<path id="Vector_41" d="M68.506 109.142C68.2666 109.093 68.0479 108.983 67.8762 108.824C67.4173 108.482 67.1239 107.992 67.0582 107.457C66.9925 106.923 67.1597 106.387 67.5244 105.962C67.6562 105.778 67.8428 105.631 68.0627 105.539C68.0627 105.561 67.8622 105.708 67.6299 106.029C67.3213 106.443 67.1872 106.944 67.2517 107.441C67.3162 107.937 67.5752 108.396 67.9818 108.735C68.2844 109.021 68.5201 109.12 68.506 109.142Z" fill="#263238"/>
<path id="Vector_42" d="M65.9235 109.005C65.6685 108.959 65.4367 108.839 65.2621 108.665C65.0269 108.473 64.8455 108.234 64.7327 107.966C64.6199 107.698 64.579 107.41 64.6134 107.126C64.6477 106.841 64.7563 106.568 64.9303 106.328C65.1042 106.089 65.3385 105.891 65.6139 105.749C65.8278 105.615 66.0824 105.545 66.3422 105.549C66.1163 105.636 65.8966 105.736 65.6843 105.848C65.4372 105.988 65.2281 106.178 65.0724 106.401C64.9167 106.624 64.8184 106.877 64.7846 107.139C64.7509 107.401 64.7826 107.667 64.8774 107.917C64.9722 108.167 65.1277 108.394 65.3325 108.582C65.5174 108.737 65.715 108.878 65.9235 109.005Z" fill="#263238"/>
<path id="Vector_43" d="M65.4487 109.142C65.2092 109.093 64.9905 108.983 64.8189 108.824C64.3599 108.482 64.0665 107.992 64.0008 107.457C63.9351 106.923 64.1024 106.387 64.467 105.962C64.5988 105.778 64.7854 105.631 65.0053 105.539C65.0264 105.561 64.8048 105.708 64.5726 106.029C64.264 106.443 64.1298 106.944 64.1943 107.441C64.2589 107.937 64.5178 108.396 64.9244 108.735C65.2129 109.021 65.4698 109.12 65.4487 109.142Z" fill="#263238"/>
<path id="Vector_44" d="M62.8697 109.005C62.6131 108.96 62.3798 108.841 62.2047 108.665C61.9695 108.473 61.7881 108.234 61.6753 107.966C61.5625 107.698 61.5216 107.41 61.556 107.126C61.5903 106.841 61.6989 106.568 61.8729 106.328C62.0468 106.089 62.2811 105.891 62.5566 105.749C62.7705 105.615 63.025 105.545 63.2849 105.549C63.059 105.636 62.8392 105.736 62.6269 105.848C62.3793 105.988 62.1697 106.177 62.0136 106.4C61.8575 106.624 61.7589 106.876 61.7252 107.139C61.6914 107.401 61.7233 107.667 61.8185 107.917C61.9136 108.167 62.0697 108.394 62.2751 108.582C62.4593 108.739 62.6582 108.88 62.8697 109.005Z" fill="#263238"/>
<path id="Vector_45" d="M62.391 109.142C62.1524 109.093 61.9348 108.983 61.7647 108.824C61.3089 108.48 61.0156 107.992 60.9449 107.46C60.887 106.927 61.0527 106.393 61.4094 105.965C61.5412 105.781 61.7277 105.635 61.9477 105.542C61.9688 105.564 61.7471 105.711 61.5149 106.032C61.2063 106.447 61.0721 106.948 61.1367 107.444C61.2012 107.94 61.4602 108.399 61.8667 108.738C62.1552 109.021 62.4051 109.12 62.391 109.142Z" fill="#263238"/>
<path id="Vector_46" d="M59.8121 109.005C59.5514 108.963 59.3137 108.843 59.1366 108.665C58.9021 108.473 58.7213 108.233 58.609 107.966C58.4967 107.698 58.456 107.41 58.4903 107.126C58.5247 106.842 58.633 106.569 58.8065 106.329C58.9799 106.09 59.2136 105.891 59.4884 105.749C59.7025 105.616 59.9569 105.546 60.2168 105.549C59.9909 105.636 59.7711 105.736 59.5588 105.848C59.3111 105.988 59.1015 106.177 58.9455 106.4C58.7894 106.624 58.6908 106.876 58.6571 107.139C58.6233 107.401 58.6552 107.667 58.7503 107.917C58.8455 108.167 59.0016 108.394 59.207 108.582C59.3945 108.739 59.597 108.881 59.8121 109.005Z" fill="#263238"/>
<path id="Vector_47" d="M59.3335 109.142C59.095 109.093 58.8773 108.983 58.7073 108.824C58.2513 108.481 57.959 107.992 57.891 107.46C57.8303 106.927 57.995 106.393 58.3519 105.965C58.4847 105.782 58.671 105.636 58.8902 105.542C58.9113 105.564 58.6897 105.711 58.4575 106.032C58.1489 106.447 58.0147 106.948 58.0792 107.444C58.1438 107.94 58.4027 108.399 58.8093 108.738C59.0978 109.021 59.3476 109.12 59.3335 109.142Z" fill="#263238"/>
<path id="Vector_48" d="M56.7546 109.005C56.4992 108.96 56.2671 108.84 56.0932 108.665C55.8587 108.473 55.6779 108.233 55.5656 107.966C55.4532 107.698 55.4126 107.41 55.4469 107.126C55.4812 106.842 55.5895 106.569 55.763 106.329C55.9365 106.09 56.1702 105.891 56.445 105.749C56.6591 105.616 56.9135 105.546 57.1733 105.549C56.9478 105.637 56.7281 105.737 56.5154 105.848C56.2687 105.989 56.0602 106.178 55.9049 106.402C55.7496 106.625 55.6515 106.877 55.6178 107.139C55.584 107.401 55.6155 107.667 55.71 107.917C55.8044 108.166 55.9593 108.394 56.1635 108.582C56.3475 108.738 56.5452 108.879 56.7546 109.005Z" fill="#263238"/>
<path id="Vector_49" d="M56.2761 109.142C56.0375 109.093 55.8198 108.983 55.6498 108.824C55.1916 108.482 54.8988 107.991 54.8331 107.457C54.7675 106.923 54.9341 106.387 55.2979 105.962C55.4307 105.779 55.6171 105.632 55.8363 105.539C55.8574 105.561 55.6357 105.708 55.4035 106.029C55.097 106.444 54.9641 106.945 55.0286 107.44C55.093 107.936 55.3507 108.395 55.7553 108.735C56.0403 109.021 56.2901 109.12 56.2761 109.142Z" fill="#263238"/>
<path id="Vector_50" d="M53.6972 109.005C53.4418 108.96 53.2097 108.84 53.0358 108.665C52.8013 108.473 52.6205 108.233 52.5082 107.966C52.3959 107.698 52.3552 107.41 52.3895 107.126C52.4238 106.842 52.5322 106.569 52.7056 106.329C52.8791 106.09 53.1128 105.891 53.3876 105.749C53.6017 105.616 53.8561 105.546 54.1159 105.549C53.8904 105.637 53.6707 105.737 53.458 105.848C53.2114 105.989 53.0028 106.178 52.8475 106.402C52.6922 106.625 52.5941 106.877 52.5604 107.139C52.5267 107.401 52.5582 107.667 52.6526 107.917C52.747 108.166 52.902 108.394 53.1061 108.582C53.2901 108.738 53.4878 108.879 53.6972 109.005Z" fill="#263238"/>
<path id="Vector_51" d="M53.2187 109.142C52.9801 109.093 52.7625 108.983 52.5924 108.824C52.1343 108.482 51.8414 107.991 51.7757 107.457C51.7101 106.923 51.8768 106.387 52.2406 105.962C52.3734 105.779 52.5597 105.632 52.7789 105.539C52.8 105.561 52.5783 105.708 52.3461 106.029C52.0442 106.445 51.9089 106.942 51.9626 107.438C52.0296 107.932 52.2845 108.391 52.6839 108.735C52.983 109.021 53.2363 109.12 53.2187 109.142Z" fill="#263238"/>
<path id="Vector_52" d="M50.6398 109.005C50.3885 108.957 50.1607 108.838 49.9889 108.665C49.7544 108.473 49.5736 108.233 49.4613 107.966C49.349 107.698 49.3083 107.41 49.3426 107.126C49.3769 106.842 49.4853 106.569 49.6588 106.329C49.8322 106.09 50.0659 105.891 50.3407 105.749C50.5548 105.616 50.8092 105.546 51.069 105.549C50.8435 105.637 50.6239 105.737 50.4111 105.848C50.1645 105.989 49.9559 106.178 49.8006 106.402C49.6453 106.625 49.5472 106.877 49.5135 107.139C49.4798 107.401 49.5113 107.667 49.6057 107.917C49.7001 108.166 49.8551 108.394 50.0593 108.582C50.2399 108.737 50.434 108.879 50.6398 109.005Z" fill="#263238"/>
<path id="Vector_53" d="M50.1648 109.142C49.9251 109.094 49.7062 108.983 49.535 108.824C49.0769 108.482 48.784 107.991 48.7184 107.457C48.6527 106.923 48.8194 106.387 49.1832 105.962C49.316 105.779 49.5023 105.632 49.7215 105.539C49.7426 105.561 49.5245 105.708 49.2923 106.029C48.9837 106.443 48.8495 106.944 48.914 107.441C48.9786 107.937 49.2375 108.396 49.6441 108.735C49.9256 109.021 50.1789 109.12 50.1648 109.142Z" fill="#263238"/>
<path id="Vector_54" d="M42.8149 84.5575C47.1284 88.3099 62.37 101.497 62.37 101.497L65.4486 102.521L64.4951 99.6434L44.9998 82.5159C44.8508 82.3845 44.6743 82.2812 44.4808 82.2119C44.2872 82.1427 44.0803 82.1088 43.8722 82.1124C43.664 82.1159 43.4587 82.1568 43.2681 82.2326C43.0776 82.3084 42.9056 82.4177 42.7621 82.5541C42.4755 82.8262 42.3201 83.19 42.33 83.5656C42.3399 83.9412 42.5143 84.2979 42.8149 84.5575Z" fill="#FF725E"/>
<path id="Vector_55" d="M64.1925 97.8594L59.6186 92.606L50.7241 90.4691L42.4525 95.2868L40.7566 105.167C40.7566 105.167 42.5791 105.167 43.4657 105.11C44.0463 105.072 48.5111 104.547 48.5111 104.547C48.5111 104.547 52.2159 104.506 53.8872 104.181C55.5584 103.857 56.1741 103.183 57.3563 103.183C58.5385 103.183 58.8481 101.949 58.8481 101.949C59.6017 101.726 60.3261 101.43 61.0084 101.065C61.8809 100.556 61.8809 99.3476 61.8809 99.3476C61.8809 99.3476 62.3453 99.5321 63.5275 99.3476C64.7097 99.1632 64.1925 97.8594 64.1925 97.8594Z" fill="#FFBE9D"/>
<path id="Vector_56" d="M61.9935 99.0805C61.8899 99.0012 61.7977 98.9104 61.7191 98.8102L61.0154 98.047C60.2619 97.1981 59.332 96.4906 58.2781 95.9641C57.1887 95.4953 56.0333 95.1636 54.8442 94.9783L53.764 94.7907C53.6286 94.7747 53.4953 94.7459 53.3665 94.7048C53.503 94.6967 53.6401 94.7042 53.7746 94.7271C54.0314 94.7525 54.4079 94.7971 54.8688 94.8638C56.081 95.0165 57.2596 95.3383 58.3625 95.8178C59.4393 96.3522 60.3783 97.0871 61.1174 97.9739C61.4095 98.2919 61.6311 98.5781 61.7824 98.7721C61.8636 98.8685 61.9343 98.9718 61.9935 99.0805Z" fill="#EB996E"/>
<path id="Vector_57" d="M59.4217 101.287C59.2875 100.976 59.0713 100.699 58.7919 100.48C58.2747 100.069 57.3318 99.8246 56.3501 99.4621C55.3685 99.0996 54.4643 98.7816 53.8204 98.5367C53.4643 98.4209 53.1194 98.2784 52.7896 98.1106C53.1578 98.1887 53.518 98.2951 53.8662 98.4286C54.5206 98.6448 55.4248 98.9533 56.417 99.3063C56.9096 99.4844 57.381 99.6497 57.8243 99.8119C58.211 99.9488 58.5683 100.146 58.8799 100.394C59.0921 100.564 59.2572 100.776 59.3619 101.014C59.4094 101.098 59.4301 101.193 59.4217 101.287Z" fill="#EB996E"/>
<path id="Vector_58" d="M56.8637 102.903C56.597 102.897 56.3322 102.861 56.0756 102.795C55.5936 102.706 54.9321 102.556 54.2109 102.362C53.4896 102.168 52.8493 101.962 52.3919 101.799C52.1349 101.722 51.89 101.616 51.6636 101.481C51.9273 101.52 52.1856 101.584 52.4341 101.672C52.902 101.809 53.5459 101.99 54.2637 102.187C54.9814 102.385 55.6323 102.547 56.1073 102.668C56.3682 102.721 56.6219 102.8 56.8637 102.903Z" fill="#EB996E"/>
<path id="Vector_59" d="M67.8869 102.515C67.703 102.659 67.4997 102.782 67.2817 102.881C66.8947 103.084 66.3529 103.358 65.7407 103.637C65.1285 103.917 64.5691 104.159 64.1574 104.321C63.9428 104.425 63.713 104.501 63.4749 104.547C64.1803 104.16 64.9085 103.807 65.6562 103.491C66.3785 103.127 67.1233 102.801 67.8869 102.515Z" fill="#263238"/>
<path id="Vector_60" d="M70.3495 102.327C69.61 102.799 68.8353 103.224 68.0309 103.599C67.2574 104.025 66.4521 104.401 65.6208 104.725C66.3619 104.255 67.1364 103.83 67.9395 103.453C68.7149 103.031 69.52 102.655 70.3495 102.327Z" fill="#263238"/>
<path id="Vector_61" d="M71.2257 102.464C70.6879 102.89 70.1112 103.274 69.5017 103.612C68.9242 103.994 68.3122 104.331 67.6721 104.62C68.2107 104.194 68.7887 103.81 69.3996 103.472C69.9756 103.09 70.5865 102.753 71.2257 102.464Z" fill="#263238"/>
<path id="Vector_62" d="M75.673 102.327C74.9449 102.828 74.1809 103.285 73.3861 103.695C72.6234 104.151 71.8277 104.56 71.0042 104.919C71.7327 104.419 72.4967 103.962 73.2911 103.552C74.0548 103.097 74.8505 102.688 75.673 102.327Z" fill="#263238"/>
<path id="Vector_63" d="M77.2315 102.391C77.2527 102.435 76.2288 102.89 75.0361 103.564C73.8434 104.238 72.9427 104.865 72.9075 104.836C73.0664 104.66 73.2524 104.504 73.4599 104.375C73.9329 104.032 74.4274 103.713 74.9411 103.421C75.4534 103.132 75.9844 102.871 76.5314 102.639C76.7512 102.528 76.9868 102.444 77.2315 102.391Z" fill="#263238"/>
<path id="Vector_64" d="M78.8959 102.21C78.2417 102.697 77.5504 103.142 76.8271 103.542C76.1364 103.988 75.4109 104.387 74.6562 104.738C75.3115 104.254 76.004 103.813 76.7286 103.418C77.4177 102.968 78.142 102.564 78.8959 102.21Z" fill="#263238"/>
<path id="Vector_65" d="M81.165 101.949C80.4688 102.468 79.7341 102.944 78.9661 103.373C78.2316 103.844 77.4629 104.269 76.665 104.645C77.3623 104.127 78.0969 103.651 78.864 103.221C79.5984 102.75 80.3672 102.325 81.165 101.949Z" fill="#263238"/>
<path id="Vector_66" d="M84.0467 101.873C84.0748 101.914 83.16 102.435 82.1151 103.176C81.0701 103.917 80.2855 104.588 80.2468 104.553C80.3774 104.373 80.5349 104.211 80.7148 104.07C81.1202 103.705 81.5503 103.363 82.0025 103.046C82.4519 102.727 82.9218 102.433 83.4098 102.165C83.6042 102.039 83.819 101.94 84.0467 101.873Z" fill="#263238"/>
<path id="Vector_67" d="M85.3238 102.098C85.3555 102.136 84.5251 102.687 83.5646 103.418C82.6041 104.149 81.8441 104.785 81.8054 104.754C82.8047 103.696 83.9942 102.798 85.3238 102.098Z" fill="#263238"/>
<path id="Vector_68" d="M88.0611 102.098C88.0928 102.136 87.2624 102.687 86.3019 103.418C85.3414 104.149 84.5814 104.785 84.5427 104.754C85.0223 104.208 85.5728 103.717 86.1823 103.291C86.7521 102.825 87.3831 102.425 88.0611 102.098Z" fill="#263238"/>
<path id="Vector_69" d="M90.1229 102.098C90.1545 102.136 89.3242 102.687 88.3637 103.418C87.4032 104.149 86.6432 104.785 86.6045 104.754C87.0841 104.208 87.6346 103.717 88.2441 103.291C88.8138 102.825 89.4448 102.425 90.1229 102.098Z" fill="#263238"/>
<path id="Vector_70" d="M91.1854 102.098C91.2135 102.136 90.3867 102.687 89.4262 103.418C88.4657 104.149 87.7092 104.785 87.667 104.754C88.6663 103.696 89.8558 102.798 91.1854 102.098Z" fill="#263238"/>
<path id="Vector_71" d="M94.9395 102.003C94.9712 102.041 94.1408 102.591 93.1803 103.323C92.2198 104.054 91.4634 104.693 91.4211 104.658C91.8995 104.112 92.4501 103.621 93.0607 103.195C93.6298 102.729 94.2609 102.328 94.9395 102.003Z" fill="#263238"/>
<path id="Vector_72" d="M98.6937 101.908C98.7253 101.949 97.895 102.496 96.9345 103.23C95.974 103.965 95.214 104.598 95.1753 104.563C95.6554 104.019 96.2059 103.529 96.8149 103.103C97.3851 102.637 98.016 102.236 98.6937 101.908Z" fill="#263238"/>
<path id="Vector_73" d="M102.448 101.828C102.479 101.866 101.649 102.416 100.689 103.148C99.7281 103.879 98.9681 104.515 98.9294 104.483C99.4091 103.938 99.9595 103.447 100.569 103.021C101.139 102.555 101.77 102.154 102.448 101.828Z" fill="#263238"/>
<path id="Vector_74" d="M106.202 101.72C106.234 101.758 105.403 102.308 104.443 103.04C103.482 103.771 102.722 104.41 102.684 104.375C103.682 103.316 104.871 102.419 106.202 101.72Z" fill="#263238"/>
<path id="Vector_75" d="M86.1856 34.7184C90.5734 32.0363 91.7249 26.6472 88.7575 22.6814C85.7901 18.7156 79.8275 17.6749 75.4397 20.3569C71.0519 23.0389 69.9004 28.4281 72.8678 32.3939C75.8353 36.3597 81.7978 37.4004 86.1856 34.7184Z" fill="#FF725E"/>
<path id="Vector_76" d="M83.9727 19.749C83.9727 19.749 85.5665 34.1004 85.7636 43.8502L86.4672 55.3587C86.4672 55.3587 78.9977 53.2122 71.4473 53.5302L65.3464 39.3951L83.9727 19.749Z" fill="#263238"/>
<path id="Vector_77" d="M41.7663 22.2517C43.2088 16.2097 44.6865 9.93236 50.1224 6.19268C54.9672 2.85686 60.4383 1.976 66.5251 2.294C69.5192 2.44346 72.8793 3.73772 75.4688 5.10512C79.0153 6.98132 80.4719 10.7115 82.1537 14.1077C85.5032 20.9065 84.9227 30.0459 82.5407 32.5517L51.0759 47.0557C45.5908 44.3845 41.9105 43.122 40.5208 37.6302C39.5814 33.8905 40.8691 26.0009 41.7663 22.2517Z" fill="#263238"/>
<path id="Vector_78" d="M50.7101 11.7768L70.4447 6.78738C76.7777 6.0369 81.2144 13.0202 81.7773 18.7792C82.4036 25.1805 82.8856 33.016 82.1784 37.8178C80.7711 47.4723 72.6331 48.881 72.6331 48.881C72.6331 48.881 72.612 49.0273 72.6331 51.8861L72.8196 58.3161C70.3567 66.1643 61.5924 65.3693 49.9888 52.7479L47.6104 17.558C47.4521 14.7946 48.782 12.0058 50.7101 11.7768Z" fill="#FFBE9D"/>
<path id="Vector_79" d="M79.9936 26.691C80.0044 27.0122 79.8763 27.3247 79.6366 27.5621C79.3969 27.7995 79.0644 27.9433 78.7094 27.963C78.5361 27.9796 78.3609 27.9646 78.1942 27.9189C78.0274 27.8732 77.8725 27.7977 77.7386 27.6968C77.6047 27.596 77.4946 27.4719 77.4148 27.3319C77.335 27.1919 77.2871 27.0388 77.2739 26.8818C77.2623 26.5608 77.3895 26.2484 77.6287 26.0109C77.8678 25.7734 78.2 25.6295 78.5546 25.6098C78.728 25.5936 78.9032 25.6089 79.07 25.6547C79.2368 25.7006 79.3917 25.7761 79.5258 25.8768C79.6598 25.9775 79.7702 26.1014 79.8506 26.2412C79.9309 26.381 79.9796 26.5339 79.9936 26.691Z" fill="#263238"/>
<path id="Vector_80" d="M80.0428 24.554C79.8774 24.7194 78.8254 24.0516 77.3547 24.0866C75.8841 24.1216 74.8285 24.8116 74.6667 24.6526C74.5858 24.5827 74.7511 24.2901 75.212 23.9689C75.8383 23.5628 76.5876 23.3408 77.3583 23.3329C78.1217 23.3128 78.8723 23.5133 79.5009 23.9053C79.9619 24.1915 80.1237 24.4809 80.0428 24.554Z" fill="#263238"/>
<path id="Vector_81" d="M66.1101 26.691C66.1227 27.0122 65.9957 27.325 65.7564 27.5627C65.5171 27.8004 65.1844 27.9441 64.8294 27.963C64.6561 27.9796 64.4809 27.9646 64.3141 27.9189C64.1474 27.8732 63.9925 27.7977 63.8586 27.6968C63.7247 27.596 63.6146 27.4719 63.5348 27.3319C63.455 27.1919 63.4071 27.0388 63.3939 26.8818C63.3814 26.5606 63.5083 26.2477 63.7476 26.01C63.9869 25.7723 64.3196 25.6287 64.6746 25.6098C64.8479 25.5932 65.0231 25.6081 65.1899 25.6539C65.3566 25.6996 65.5115 25.7751 65.6454 25.8759C65.7793 25.9767 65.8894 26.1008 65.9692 26.2409C66.049 26.3809 66.0969 26.5339 66.1101 26.691Z" fill="#263238"/>
<path id="Vector_82" d="M65.6033 24.5254C65.4379 24.6908 64.3824 24.023 62.9153 24.058C61.4481 24.0929 60.3891 24.783 60.2272 24.624C60.1463 24.554 60.3082 24.2615 60.7726 23.9403C61.3978 23.5325 62.1478 23.3103 62.9188 23.3043C63.6822 23.2842 64.4328 23.4847 65.0615 23.8767C65.5224 24.1629 65.6842 24.4523 65.6033 24.5254Z" fill="#263238"/>
<path id="Vector_83" d="M71.1834 33.2005C71.1834 33.1241 72.0841 32.962 73.5583 32.7553C73.9313 32.7139 74.2866 32.6376 74.3429 32.4055C74.3992 32.1733 74.2585 31.7949 74.065 31.4069L72.8828 28.8629C71.2397 25.2218 70.0435 22.2263 70.2053 22.1849C70.3672 22.1436 71.8308 25.0279 73.4739 28.669C73.868 29.5657 74.2479 30.4211 74.6068 31.2416C74.7616 31.6232 75.015 32.0525 74.839 32.5645C74.7886 32.6856 74.7081 32.7947 74.6038 32.8835C74.4996 32.9722 74.3742 33.0382 74.2374 33.0764C74.0303 33.1314 73.8163 33.1624 73.6006 33.1687C72.1158 33.2482 71.1905 33.2736 71.1834 33.2005Z" fill="#263238"/>
<path id="Vector_84" d="M72.633 48.881C67.6251 49.0652 62.659 47.9885 58.2886 45.771C58.2886 45.771 61.9969 52.4204 72.6224 51.2788L72.633 48.881Z" fill="#EB996E"/>
<path id="Vector_85" d="M66.4019 35.7858C66.6069 35.4861 66.891 35.2371 67.2288 35.0611C67.5665 34.8852 67.9473 34.7878 68.337 34.7777C68.8806 34.7306 69.4282 34.8157 69.9232 35.0242C70.4181 35.2328 70.8423 35.5572 71.1517 35.9639C71.4086 36.231 71.4086 36.9942 71.3101 37.2073C71.2115 37.4203 71.3101 37.3154 71.113 37.4649C70.4727 38.0023 69.7936 38.5429 68.9527 38.7369C68.506 38.8499 68.0319 38.8384 67.5925 38.7039C67.1531 38.5695 66.7688 38.3183 66.4899 37.9832C66.2545 37.6592 66.1218 37.283 66.1063 36.8956C66.0908 36.5082 66.193 36.1244 66.4019 35.7858Z" fill="#EB996E"/>
<path id="Vector_86" d="M66.6236 34.2689C66.8629 34.2498 66.9156 35.6904 68.3124 36.6762C69.7092 37.662 71.4016 37.4521 71.4227 37.6556C71.4473 37.7447 71.0708 37.945 70.339 37.9736C69.4054 38.0121 68.4869 37.7508 67.746 37.2359C67.034 36.7427 66.5621 36.0185 66.4301 35.2166C66.3492 34.6251 66.5251 34.2626 66.6236 34.2689Z" fill="#263238"/>
<path id="Vector_87" d="M66.2331 19.6759C66.1241 20.048 64.6463 19.9939 62.947 20.3119C61.2476 20.6299 59.8965 21.1546 59.6362 20.8493C59.5201 20.703 59.7312 20.3437 60.2589 19.9557C60.9678 19.4731 61.7887 19.1424 62.6598 18.9887C63.5308 18.835 64.4291 18.8623 65.2867 19.0685C65.9376 19.2434 66.2824 19.501 66.2331 19.6759Z" fill="#263238"/>
<path id="Vector_88" d="M79.9759 20.9829C79.6241 21.2373 78.5686 20.7698 77.2386 20.5599C75.9087 20.35 74.723 20.4041 74.5154 20.0543C74.4275 19.889 74.6597 19.6155 75.2191 19.4183C75.9589 19.1657 76.7627 19.1072 77.5377 19.2498C78.315 19.3677 79.0381 19.6857 79.6206 20.1656C80.0287 20.5249 80.1272 20.8557 79.9759 20.9829Z" fill="#263238"/>
<path id="Vector_89" d="M70.1877 5.7475C70.2052 5.81746 70.2157 5.88742 70.2332 5.95738H70.1947C70.1947 5.89696 70.1912 5.82382 70.1877 5.7475Z" fill="#263238"/>
<path id="Vector_90" d="M49.4328 52.4871C49.6122 52.5698 49.9993 62.4247 51.4136 66.6509C51.9168 68.155 57.219 68.1328 57.219 68.1328C57.8417 68.1328 56.5997 49.2213 56.3218 44.9823C56.1423 42.2984 52.7612 38.3997 52.0153 35.7953C50.8261 31.6295 52.5958 29.0442 53.296 24.7639C55.9629 24.5 59.8718 22.875 61.6732 21.0306C63.8405 18.8046 65.174 16.0412 66.4758 13.3223C66.3514 16.0233 65.2987 18.622 63.4641 20.7571C64.6392 20.9956 65.8953 20.5536 66.7925 19.8254C67.6583 19.0597 68.3356 18.1376 68.7803 17.1192C69.9708 14.6997 70.6509 12.1005 70.7858 9.45539C71.1246 13.2495 70.5916 17.0659 69.2201 20.6649C69.9695 20.4677 70.7612 20.6649 71.5317 20.7762C72.3022 20.8875 73.1853 20.878 73.7377 20.3819C74.074 20.0195 74.2899 19.5785 74.3605 19.1099C75.1449 15.9004 75.3175 12.5934 74.8706 9.33137C75.7889 11.0994 76.7037 12.8866 77.2244 14.7851C77.7452 16.6835 77.8542 18.7124 77.1787 20.5695C77.4778 20.9256 78.1287 20.8875 78.4981 20.5695C78.8394 20.2411 79.0499 19.8192 79.0962 19.3706C79.4023 17.7584 79.0962 16.1079 78.8218 14.4957C79.8597 16.2129 80.1799 18.194 80.7393 20.0861C81.2987 21.9782 82.2029 23.918 83.9973 25.0151C84.3422 22.5602 84.2925 20.0732 83.8495 17.6312C83.5223 15.6119 82.495 13.5989 81.5485 11.745C80.493 9.67163 78.9977 7.63325 77.3265 6.26585C74.2338 3.74411 72.9039 4.79669 70.8878 5.71571L70.6521 5.80157C70.6521 5.75705 70.6521 5.71253 70.6521 5.66801L70.5677 5.28323C65.3394 4.15345 59.8713 4.3138 54.735 5.74751C50.9457 6.80963 46.2487 10.2567 44.2784 13.3795C44.2432 13.4367 44.201 13.494 44.1658 13.5576C39.9437 21.1514 34.7999 39.7735 35.1341 54.8721L40.2041 54.0263L49.4328 52.4871Z" fill="#263238"/>
<path id="Vector_91" d="M52.2288 35.8542C55.9744 32.4689 55.9744 26.9802 52.2288 23.5949C48.4833 20.2095 42.4105 20.2095 38.665 23.5949C34.9194 26.9802 34.9194 32.4689 38.665 35.8542C42.4105 39.2396 48.4833 39.2396 52.2288 35.8542Z" fill="#FF725E"/>
<path id="Vector_92" d="M45.2742 21.056C45.2742 21.056 45.7456 3.17171 63.1581 0.843949C63.1581 0.843949 71.9997 0.207949 73.203 4.02395C73.203 4.02395 68.6678 1.79795 64.1573 2.86643C61.1843 3.56921 50.3301 7.92581 49.8199 22.4902L45.3375 24.236L45.2742 21.056Z" fill="#FF725E"/>
<path id="Vector_93" d="M52.2477 29.677C52.2477 29.677 52.2477 29.642 52.2477 29.5752C52.2477 29.5085 52.2477 29.3972 52.2231 29.2731C52.2159 29.1097 52.1947 28.9471 52.1598 28.7866C52.1257 28.5654 52.0752 28.3465 52.0085 28.1315C51.841 27.5396 51.5765 26.9737 51.2239 26.4525C50.7624 25.7602 50.158 25.1545 49.4436 24.6685C48.5818 24.0759 47.5778 23.675 46.5128 23.4983C45.2887 23.2949 44.0268 23.3904 42.8572 23.7749C42.2258 23.9771 41.6325 24.2656 41.098 24.6303C40.821 24.8171 40.5577 25.02 40.3099 25.2377C40.0637 25.4657 39.8356 25.709 39.6273 25.9659C38.7541 27.0427 38.2811 28.342 38.2763 29.677C38.284 30.3495 38.4025 31.0172 38.6281 31.6581C38.8546 32.2789 39.1895 32.863 39.6203 33.3881C40.0274 33.9022 40.524 34.3533 41.091 34.7237C41.6255 35.0884 42.2188 35.3769 42.8501 35.5791C43.943 35.9402 45.1187 36.0476 46.2694 35.8915C47.4202 35.7354 48.5091 35.3207 49.4365 34.6855C50.1525 34.201 50.7572 33.595 51.2168 32.9015C51.566 32.3829 51.8281 31.8202 51.9944 31.232C52.0611 31.017 52.1117 30.7981 52.1457 30.5769C52.1806 30.4165 52.2018 30.2538 52.209 30.0904C52.209 29.9664 52.2266 29.8678 52.2336 29.7883C52.2407 29.7088 52.2336 29.6865 52.2336 29.6865C52.239 29.7213 52.239 29.7567 52.2336 29.7915C52.2336 29.8678 52.2336 29.9664 52.2336 30.0936C52.2351 30.2577 52.2198 30.4217 52.1879 30.5833C52.1624 30.8076 52.1177 31.0298 52.0542 31.2479C51.8981 31.8507 51.6394 32.4278 51.2872 32.9588C50.7775 33.7418 50.0895 34.418 49.2688 34.9427C48.4481 35.4673 47.5135 35.8284 46.5268 36.002C45.2759 36.217 43.984 36.1236 42.7868 35.7317C42.1396 35.5261 41.5309 35.2323 40.9819 34.8604C40.6977 34.6696 40.4274 34.4624 40.1727 34.2403C39.9196 34.006 39.6845 33.7563 39.469 33.493C39.0248 32.9554 38.6802 32.3561 38.4487 31.7186C37.9569 30.4003 37.9569 28.9727 38.4487 27.6545C38.6802 27.017 39.0248 26.4177 39.469 25.8801C39.6854 25.6174 39.9204 25.3678 40.1727 25.1328C40.4274 24.9106 40.6977 24.7035 40.9819 24.5127C41.5313 24.1414 42.1399 23.8476 42.7868 23.6414C43.9836 23.2526 45.2734 23.1593 46.5233 23.3711C47.6109 23.558 48.6343 23.9742 49.5104 24.5858C50.2327 25.0839 50.84 25.7051 51.2978 26.4143C51.6499 26.9452 51.9087 27.5224 52.0648 28.1252C52.1282 28.3432 52.1729 28.5655 52.1985 28.7898C52.2304 28.9514 52.2457 29.1153 52.2442 29.2795C52.2442 29.4067 52.2442 29.5053 52.2442 29.5975C52.2486 29.6238 52.2498 29.6505 52.2477 29.677Z" fill="#263238"/>
<path id="Vector_94" d="M47.4768 27.0662C47.512 27.098 46.2559 28.2841 44.6621 29.7183C43.0683 31.1525 41.763 32.2846 41.7278 32.2623C41.6926 32.2401 42.9451 31.0412 44.5425 29.6102C46.1398 28.1792 47.4416 27.0344 47.4768 27.0662Z" fill="#263238"/>
<path id="Vector_95" d="M46.3721 29.324C46.067 29.7101 45.7127 30.0623 45.3165 30.3734C44.9621 30.724 44.5642 31.0366 44.1309 31.3052C44.7895 30.5688 45.5404 29.904 46.3685 29.324H46.3721Z" fill="#263238"/>
<path id="Vector_96" d="M69.5616 26.5065C69.5256 26.0504 69.4503 25.5974 69.3364 25.1519C69.1845 24.6331 68.9473 24.1378 68.6327 23.6827C68.2279 23.0754 67.6975 22.5443 67.0706 22.1181C66.3153 21.5993 65.4354 21.2485 64.5022 21.0942C63.4309 20.918 62.3272 21.0025 61.304 21.339C60.7503 21.5153 60.2304 21.7685 59.7629 22.0895C59.2672 22.4125 58.8334 22.8068 58.4787 23.2566C57.7107 24.198 57.2963 25.3369 57.2963 26.5065C57.2963 27.6762 57.7107 28.8151 58.4787 29.7565C58.8334 30.2063 59.2672 30.6005 59.7629 30.9236C60.2304 31.2445 60.7503 31.4977 61.304 31.674C62.3272 32.0105 63.4309 32.095 64.5022 31.9189C65.4354 31.7646 66.3153 31.4138 67.0706 30.8949C67.6995 30.4672 68.2311 29.9338 68.6363 29.324C68.9508 28.8689 69.188 28.3736 69.3399 27.8549C69.4536 27.4092 69.5289 26.9563 69.5651 26.5002C69.5702 26.5297 69.5702 26.5597 69.5651 26.5892C69.5651 26.6592 69.5651 26.7482 69.5651 26.8563C69.5657 27.0012 69.5527 27.1459 69.5264 27.2888C69.5023 27.4852 69.4623 27.6797 69.4068 27.8708C69.2699 28.399 69.0445 28.9051 68.7383 29.3717C68.2909 30.0616 67.6856 30.657 66.9629 31.1183C66.2402 31.5795 65.4168 31.8958 64.5479 32.0461C63.449 32.2351 62.314 32.1538 61.2617 31.8108C60.6935 31.6305 60.1594 31.372 59.6785 31.0444C59.1645 30.7155 58.716 30.3101 58.3521 29.8455C57.5623 28.8786 57.1362 27.7084 57.1362 26.5065C57.1362 25.3047 57.5623 24.1345 58.3521 23.1675C58.5399 22.9372 58.7444 22.7183 58.9642 22.5125C59.1847 22.3168 59.4198 22.1351 59.6679 21.9687C60.148 21.6399 60.6823 21.3813 61.2512 21.2023C62.2337 20.8808 63.29 20.7883 64.3225 20.9334C65.355 21.0785 66.3304 21.4564 67.1585 22.0323C67.7926 22.4711 68.3256 23.0177 68.7277 23.6414C69.0345 24.1077 69.26 24.6139 69.3962 25.1423C69.4518 25.3334 69.4918 25.5279 69.5159 25.7243C69.5424 25.8672 69.5553 26.0118 69.5546 26.1567C69.5546 26.2649 69.5546 26.3539 69.5546 26.4207C69.5615 26.4488 69.5638 26.4778 69.5616 26.5065Z" fill="#455A64"/>
<path id="Vector_97" d="M85.5245 26.5066C85.4858 26.0505 85.4094 25.5976 85.2958 25.1519C85.1439 24.6331 84.9067 24.1379 84.5921 23.6827C84.1876 23.0762 83.6585 22.5452 83.0335 22.1182C82.2765 21.5999 81.3956 21.2492 80.4615 21.0942C79.3903 20.9181 78.2865 21.0026 77.2633 21.3391C76.7096 21.5154 76.1897 21.7686 75.7223 22.0895C75.2266 22.4126 74.7927 22.8068 74.4381 23.2566C73.67 24.198 73.2556 25.3369 73.2556 26.5066C73.2556 27.6762 73.67 28.8151 74.4381 29.7565C74.62 29.9805 74.8187 30.193 75.0327 30.3925C75.2545 30.5829 75.4895 30.7603 75.7364 30.9236C76.2038 31.2446 76.7237 31.4978 77.2774 31.6741C78.3006 32.0106 79.4044 32.0951 80.4756 31.9189C81.4097 31.764 82.2905 31.4133 83.0475 30.895C83.6726 30.4679 84.2016 29.9369 84.6062 29.3304C84.9208 28.8753 85.158 28.38 85.3098 27.8612C85.4232 27.4154 85.4997 26.9626 85.5385 26.5066C85.5423 26.5361 85.5423 26.566 85.5385 26.5956C85.5385 26.6656 85.5385 26.7546 85.5385 26.8627C85.5391 27.0076 85.5262 27.1523 85.4998 27.2952C85.4771 27.4915 85.4383 27.686 85.3837 27.8771C85.2471 28.4059 85.0204 28.9123 84.7117 29.3781C83.9778 30.5099 82.8285 31.3736 81.4633 31.8192C80.0981 32.2648 78.6034 32.2641 77.2387 31.8172C76.6693 31.637 76.1341 31.3785 75.6519 31.0508C75.4031 30.8852 75.1679 30.7035 74.9482 30.507C74.7272 30.3012 74.5216 30.0823 74.3325 29.8519C73.5428 28.885 73.1167 27.7148 73.1167 26.5129C73.1167 25.3111 73.5428 24.1409 74.3325 23.1739C74.5216 22.9435 74.7272 22.7247 74.9482 22.5188C75.1679 22.3224 75.4031 22.1407 75.6519 21.9751C76.1333 21.6462 76.6687 21.3876 77.2387 21.2087C78.2898 20.8658 79.4236 20.7845 80.5213 20.9734C81.3903 21.1236 82.2137 21.44 82.9363 21.9012C83.659 22.3624 84.2643 22.9579 84.7117 23.6477C85.0209 24.1133 85.2477 24.6198 85.3837 25.1487C85.4383 25.3398 85.4771 25.5343 85.4998 25.7306C85.5205 25.8676 85.5287 26.0059 85.5245 26.144C85.5245 26.2522 85.5245 26.3412 85.5245 26.408C85.5288 26.4407 85.5288 26.4738 85.5245 26.5066Z" fill="#455A64"/>
<path id="Vector_98" d="M73.495 24.818C73.283 24.7673 73.0739 24.7068 72.8688 24.6367C71.8578 24.3782 70.7748 24.4926 69.857 24.9547C69.5052 25.1296 69.3187 25.2727 69.2976 25.2727C69.4248 25.1045 69.5934 24.9651 69.7902 24.8657C70.2484 24.5996 70.7683 24.4326 71.3095 24.3774C71.8507 24.3223 72.3987 24.3805 72.911 24.5477C73.1257 24.5969 73.3253 24.6893 73.495 24.818Z" fill="#455A64"/>
<path id="Vector_99" d="M49.9889 22.1563C49.178 21.864 48.3456 21.6228 47.4979 21.4344C46.637 21.3014 45.7671 21.2217 44.8943 21.1959C45.1456 21.1305 45.4071 21.1026 45.6683 21.1132C46.9265 21.092 48.1737 21.3279 49.3169 21.8033C49.5606 21.8873 49.7875 22.0065 49.9889 22.1563Z" fill="#263238"/>
<path id="Vector_100" d="M72.8265 3.92536C72.6011 3.52624 72.2929 3.16998 71.9188 2.87596C71.4738 2.53974 70.963 2.28194 70.4129 2.11594C69.6808 1.90725 68.914 1.81578 68.1471 1.84564C67.2145 1.87895 66.2868 1.98535 65.3746 2.16364C64.33 2.34557 63.303 2.60183 62.3031 2.93002C59.9906 3.68684 57.8355 4.78978 55.9278 6.1927C54.0139 7.59578 52.3852 9.28956 51.1146 11.198C50.0892 12.7578 49.2999 14.4348 48.7679 16.1843C48.4121 17.3655 48.1765 18.5736 48.0642 19.7936C48.0185 20.226 48.0079 20.5599 47.9938 20.7889V21.0497C47.9959 21.0793 47.9959 21.1091 47.9938 21.1387C47.9887 21.1092 47.9887 21.0792 47.9938 21.0497C47.9938 20.9797 47.9938 20.897 47.9938 20.7889C47.9938 20.5599 47.9938 20.2229 48.029 19.7872C48.1123 18.5604 48.3292 17.344 48.6764 16.1556C49.1919 14.388 49.9744 12.693 51.0021 11.1185C52.269 9.19113 53.9019 7.48062 55.8257 6.0655C57.7498 4.65362 59.9244 3.54619 62.2573 2.7901C63.273 2.45748 64.3167 2.19907 65.3781 2.01736C66.2992 1.84564 67.2351 1.74669 68.1752 1.72162C68.9571 1.69835 69.7374 1.80064 70.4798 2.02372C71.0384 2.19703 71.5537 2.46828 71.9962 2.8219C72.2766 3.04478 72.5144 3.30803 72.6999 3.601C72.7554 3.70449 72.7979 3.81329 72.8265 3.92536Z" fill="#263238"/>
<path id="Vector_101" d="M82.6499 48.5503L70.6874 49.1322L67.454 54.4937C67.3984 54.5839 67.3698 54.6856 67.3709 54.7889C67.372 54.8921 67.4028 54.9933 67.4603 55.0825C67.5178 55.1717 67.6001 55.2458 67.6989 55.2976C67.7977 55.3494 67.9098 55.377 68.024 55.3778C68.5975 55.3778 69.266 55.3046 69.6354 55.0057C70.3707 54.4079 71.7675 52.6112 71.7675 52.6112L71.0322 56.6021L74.4204 59.9283L75.1593 60.5993C75.2344 60.6673 75.3248 60.7201 75.4243 60.7541C75.5238 60.7882 75.6302 60.8026 75.7363 60.7966C75.8425 60.7906 75.946 60.7642 76.0401 60.7192C76.1341 60.6743 76.2164 60.6117 76.2816 60.5357C76.651 60.1001 77.0697 59.534 77.0697 59.1969C77.0697 59.1969 78.6882 58.7963 78.7621 57.8645C78.783 57.0419 78.7336 56.219 78.6143 55.4032C78.6143 55.4032 79.7191 54.8054 79.8668 54.2075L81.626 55.8707L89.5177 58.4147L94.2042 57.1427L100.615 55.0184C100.615 55.0184 96.7163 51.9465 95.9036 51.4155C95.0908 50.8844 82.6499 48.5503 82.6499 48.5503Z" fill="#FFBE9D"/>
<path id="Vector_102" d="M82.65 48.5503C82.65 48.5503 82.7696 48.5662 83.0018 48.6075L84.0327 48.7952C84.9369 48.9605 86.2634 49.2086 87.9522 49.5393C89.641 49.87 91.6957 50.2707 94.039 50.8113C94.6524 50.9408 95.2545 51.1109 95.8404 51.3201C96.116 51.4818 96.3782 51.6614 96.625 51.8575L97.399 52.4394C98.4545 53.2313 99.51 54.0771 100.654 54.9612L100.752 55.0375L100.654 55.082L95.3759 56.831C94.915 56.9773 94.4541 57.149 93.9686 57.2826L92.519 57.6801L89.539 58.5005H89.5108H89.4827L81.5874 55.9565H81.5663L79.8071 54.2934L79.962 54.252C79.8817 54.4953 79.7311 54.7149 79.5257 54.888C79.3315 55.0687 79.1182 55.2316 78.8888 55.3746L78.6672 55.505L78.7129 55.4223C78.8293 56.1957 78.8811 56.9759 78.8677 57.7564C78.8718 57.9623 78.8147 58.1655 78.7024 58.3447C78.5861 58.5174 78.4344 58.6685 78.2555 58.7899C77.906 59.0215 77.5142 59.1959 77.098 59.3051L77.1684 59.2256C77.1492 59.4146 77.0856 59.5979 76.9819 59.763C76.8895 59.9207 76.7873 60.0736 76.6758 60.2209C76.5632 60.3672 76.4541 60.5071 76.324 60.6502C76.1795 60.7977 75.9774 60.8887 75.7601 60.9041C75.5429 60.9196 75.3275 60.8582 75.1594 60.7329C75.0081 60.6057 74.8849 60.488 74.7477 60.364C74.4733 60.1255 74.2129 59.8775 73.9631 59.6231L70.9725 56.6847L70.9444 56.6561V56.618L71.6832 52.6271L71.8345 52.6811C71.4686 53.1454 71.0957 53.5959 70.7157 54.0326C70.5257 54.2489 70.3322 54.4619 70.1316 54.6686C69.9415 54.8879 69.7134 55.078 69.4561 55.2315C69.1839 55.3561 68.8876 55.4317 68.5835 55.4541C68.4358 55.47 68.288 55.4763 68.1437 55.4795C67.9864 55.4933 67.8279 55.4668 67.6864 55.4032C67.546 55.3355 67.4335 55.2287 67.3657 55.0987C67.2979 54.9686 67.2783 54.8223 67.3099 54.6813C67.3483 54.5527 67.4089 54.4304 67.4893 54.3188L67.6899 54.0008L70.6277 49.1481L70.6453 49.1195H70.6805L79.4764 48.7188L81.8443 48.6203L82.46 48.598H82.6676L82.4565 48.6171L81.8443 48.6552L79.4729 48.7856L70.6946 49.2372L70.7438 49.2054L67.8271 54.0676L67.6301 54.3856C67.5569 54.4831 67.5011 54.5904 67.4647 54.7036C67.4386 54.8159 67.4536 54.9328 67.5076 55.0367C67.5615 55.1405 67.6515 55.2256 67.7638 55.2792C67.8831 55.3304 68.016 55.3503 68.1473 55.3364C68.288 55.3364 68.4322 55.3364 68.573 55.311C68.8571 55.2896 69.1341 55.2194 69.3892 55.1043C69.6282 54.9563 69.8406 54.7762 70.019 54.57C70.2161 54.3697 70.4061 54.1566 70.596 53.934C70.9725 53.5016 71.3419 53.05 71.7043 52.5889L71.9119 52.325L71.8556 52.643C71.6211 53.934 71.3759 55.2643 71.1203 56.6339L71.0992 56.5671L74.0898 59.5022C74.3431 59.7566 74.6035 60.0047 74.8744 60.2432C75.0081 60.3608 75.1488 60.4912 75.2755 60.5993C75.4067 60.6964 75.5743 60.7442 75.7434 60.7329C75.8283 60.7276 75.9112 60.7072 75.9873 60.6728C76.0634 60.6384 76.1312 60.5907 76.1867 60.5325C76.2993 60.4085 76.4154 60.2591 76.5386 60.1191C76.6471 59.9774 76.7458 59.8298 76.8341 59.6771C76.9252 59.5359 76.9816 59.3787 76.9995 59.216V59.1556L77.0663 59.1365C77.4593 59.0324 77.8294 58.8678 78.1605 58.65C78.3255 58.5488 78.4607 58.4128 78.5545 58.2538C78.6483 58.0948 78.6978 57.9175 78.6989 57.7373C78.7118 56.9674 78.66 56.1978 78.544 55.435V55.3809L78.5968 55.3523L78.8044 55.2283C79.0253 55.0927 79.2305 54.9371 79.4166 54.764C79.5961 54.6114 79.7293 54.4198 79.8036 54.2075L79.8458 54.0612L79.9584 54.1694C80.5671 54.7386 81.1688 55.3046 81.7176 55.8325L81.686 55.8102L89.5777 58.3542H89.5214L92.5014 57.5402L93.951 57.1427C94.4295 57.0155 94.8869 56.8406 95.3584 56.6975L100.636 54.958L100.611 55.0757C99.4854 54.1884 98.4017 53.3394 97.3673 52.5317L96.5968 51.9497C96.3557 51.7548 96.0981 51.5773 95.8263 51.4187C95.2539 51.2136 94.666 51.0456 94.0671 50.9162C91.7309 50.3629 89.6762 49.9622 87.9909 49.6092L84.082 48.827L83.0546 48.6234C82.7661 48.5821 82.65 48.5503 82.65 48.5503Z" fill="#EB996E"/>
<path id="Vector_103" d="M80.0954 49.7937C80.0446 49.821 79.9903 49.8423 79.9336 49.8573L79.4656 50.0131L77.724 50.5474L75.1416 51.3265C74.9044 51.3959 74.6919 51.521 74.5258 51.689C74.3666 51.8772 74.2538 52.094 74.1951 52.325C74.0477 52.8245 73.9302 53.3309 73.8433 53.8418C73.6592 54.8274 73.6273 55.8312 73.7483 56.8247C73.8829 57.6316 74.1361 58.4188 74.5012 59.1652C74.7403 59.6726 75.0263 60.1608 75.3562 60.6248C75.5954 60.9428 75.7502 61.1177 75.7362 61.1272C75.6901 61.0937 75.6488 61.0553 75.613 61.0127C75.4993 60.9021 75.3946 60.7841 75.2999 60.6598C74.9413 60.2069 74.6348 59.722 74.3851 59.2129C73.9953 58.4625 73.7252 57.6659 73.5829 56.8469C73.4483 55.8386 73.4744 54.818 73.6603 53.8164C73.7521 53.2987 73.8754 52.7859 74.0298 52.2805C74.0962 52.028 74.2222 51.7915 74.3992 51.5872C74.5892 51.3977 74.8323 51.2582 75.1029 51.1834C76.0845 50.894 76.9641 50.6491 77.7065 50.4361L79.4656 49.9495L79.9477 49.8255C79.9952 49.8093 80.0449 49.7986 80.0954 49.7937Z" fill="#EB996E"/>
<path id="Vector_104" d="M83.2304 50.789C83.0687 50.863 82.9004 50.9247 82.7273 50.9734L81.32 51.4186L79.2406 52.0546C78.8302 52.1624 78.4292 52.2974 78.0408 52.4585C77.6545 52.6656 77.3513 52.9786 77.1753 53.3521C76.7877 54.0763 76.4846 54.8352 76.2711 55.6162C76.1013 56.2532 76.0631 56.9129 76.1585 57.5624C76.257 58.1612 76.497 58.7339 76.8622 59.2414C76.8622 59.2414 76.8235 59.2128 76.7637 59.1492C76.6777 59.0552 76.6001 58.9553 76.5315 58.8503C76.2774 58.4584 76.1068 58.027 76.0283 57.5783C75.9094 56.9146 75.9345 56.2363 76.1022 55.5813C76.3093 54.7852 76.6125 54.012 77.0064 53.2758C77.2013 52.8747 77.5329 52.5404 77.9529 52.3218C78.3539 52.1549 78.7678 52.0146 79.1913 51.902L81.2813 51.2978L82.6886 50.9003C82.8647 50.8471 83.0462 50.8099 83.2304 50.789Z" fill="#EB996E"/>
<path id="Vector_105" d="M82.8047 53.1041C82.4662 53.5122 81.9951 53.8146 81.4572 53.969C80.9423 54.1746 80.37 54.2323 79.8176 54.1344C80.3521 54.069 80.8794 53.9626 81.3939 53.8164C81.8859 53.6161 82.358 53.3777 82.8047 53.1041Z" fill="#EB996E"/>
<path id="Vector_106" d="M90.3797 57.2667C90.0963 57.3516 89.7985 57.3904 89.5001 57.3812C88.7768 57.3883 88.0591 57.2651 87.3891 57.0186C86.719 56.7759 86.1099 56.4136 85.5982 55.9533C85.3782 55.7713 85.1949 55.5561 85.0564 55.3173C85.081 55.3014 85.2886 55.5399 85.6897 55.8675C86.7394 56.7203 88.0862 57.2141 89.4966 57.2635C90.0384 57.2794 90.3726 57.2381 90.3797 57.2667Z" fill="#EB996E"/>
<path id="Vector_107" d="M76.8376 49.2213C76.8376 49.2404 76.433 49.269 75.7821 49.3835C75.4584 49.4375 75.0784 49.5075 74.6492 49.5933C74.1896 49.6611 73.743 49.7875 73.3227 49.9686C72.9111 50.1524 72.5667 50.4394 72.3306 50.7954C72.143 51.0924 72.0088 51.4144 71.933 51.7494C71.7922 52.325 71.75 52.7034 71.7184 52.7034C71.7013 52.6171 71.7013 52.5289 71.7184 52.4426C71.7326 52.206 71.762 51.9703 71.8063 51.7367C71.8708 51.3836 72.0005 51.0428 72.1898 50.7286C72.4349 50.3405 72.8024 50.0272 73.2453 49.8287C73.6811 49.6435 74.1446 49.517 74.621 49.4534C75.0503 49.3771 75.4408 49.3167 75.768 49.2785C76.1189 49.2079 76.48 49.1885 76.8376 49.2213Z" fill="#EB996E"/>
<path id="Vector_108" d="M37.3226 78.3946C37.3648 78.42 35.1236 81.4346 32.323 85.1203C29.5223 88.8059 27.2108 91.7792 27.1686 91.7538C27.1263 91.7283 29.3675 88.7169 32.1717 85.0281C34.9758 81.3393 37.2733 78.3691 37.3226 78.3946Z" fill="#263238"/>
</g>
</svg>
