<svg width="20" height="40" viewBox="0 0 20 40" fill="none" xmlns="http://www.w3.org/2000/svg">
<g id="g2694">
<g id="Group 124">
<path id="rect2675" d="M5.88224 4.0542L14.1995 4.13958C18.5178 4.13958 18.4193 3.94584 18.4193 8.04736V12.5364C13.7864 19.5145 14.9417 19.9414 10.6238 19.9414H9.37559C5.05701 19.9414 5.8934 19.1927 1.58008 12.5364L1.66349 7.79778C1.66349 3.69627 1.56366 4.0542 5.88224 4.0542Z" fill="white" stroke="#228B22" stroke-width="2.96771" stroke-linecap="round" stroke-linejoin="round"/>
<path id="path2678" d="M9.91446 37.9671L10.2665 37.9802C14.5838 37.9802 18.4193 36.3055 18.4193 32.204V27.715C13.307 20.0997 14.9417 20.3099 10.6238 20.3099H9.37558C5.05701 20.3099 7.01188 19.7779 1.58008 27.715L1.66349 32.4535C1.66349 36.5551 5.59556 37.9671 9.91446 37.9671Z" fill="white" stroke="#228B22" stroke-width="2.96771" stroke-linecap="round" stroke-linejoin="round"/>
<path id="path2680" fill-rule="evenodd" clip-rule="evenodd" d="M8.37623 18.366C8.37623 18.366 6.40428 17.1313 5.83847 16.376C5.273 15.624 4.36403 13.6175 4.36403 13.6175L3.725 12.2055C3.725 12.2055 7.2919 12.1759 7.98348 12.7408C8.67473 13.3089 9.82177 13.0856 10.2618 12.9608C10.7018 12.8327 13.2159 12.3927 14.7229 12.3303C16.2335 12.2679 16.2959 12.4584 16.2959 12.4584C16.2959 12.4584 16.0102 14.1036 15.1925 14.8588C14.3748 15.6108 13.0902 18.0507 11.5189 18.4284C9.94754 18.806 11.1415 18.678 11.1415 18.678C11.1415 18.678 10.7018 18.806 10.5761 19.7485C10.4503 20.6909 10.2618 22.011 10.1988 22.763C10.136 23.5183 9.94754 28.5984 10.0103 29.0385C10.0733 29.4785 12.4777 30.6607 13.1693 31.2879C13.8606 31.9184 16.9789 33.7179 16.2565 34.2598C13.7627 36.125 10.1988 35.9444 10.1988 35.9444L6.51724 35.6193C6.51724 35.6193 0.430976 34.0496 5.04805 32.0727C6.65517 31.3864 8.9417 29.6657 9.50751 29.3537C10.0733 29.0384 10.0103 28.5984 10.0103 28.5984C10.0103 28.5984 9.88449 21.131 9.63328 20.4381C9.38174 19.7485 8.43895 18.5532 8.37623 18.366Z" fill="#228B22"/>
<path id="path2682" d="M18.0593 4.34242C18.0593 4.95843 17.2181 5.5492 15.7208 5.98478C14.2235 6.42036 12.1927 6.66507 10.0752 6.66507C7.95765 6.66507 5.92686 6.42036 4.42955 5.98478C2.93224 5.5492 2.09106 4.95843 2.09106 4.34242C2.09106 3.72642 2.93224 3.13564 4.42955 2.70006C5.92686 2.26448 7.95765 2.01978 10.0752 2.01978C12.1927 2.01978 14.2235 2.26448 15.7208 2.70006C17.2181 3.13564 18.0593 3.72642 18.0593 4.34242Z" fill="white" stroke="#228B22" stroke-width="2.96771" stroke-linecap="round" stroke-linejoin="round"/>
</g>
</g>
</svg>
