<svg width="32" height="32" viewBox="0 0 32 32" fill="none" xmlns="http://www.w3.org/2000/svg">
<g id="Group 112">
<g id="Group 101">
<rect id="Rectangle 151" y="8.6601" width="5.5869" height="5.55154" rx="1" fill="#FFFDD0"/>
<rect id="Rectangle 152" x="5.58789" y="0.777283" width="6.40018" height="6.43554" rx="1" fill="#001F3F"/>
<rect id="Rectangle 153" x="13.7539" y="7.20697" width="4.66753" height="4.66753" rx="1" fill="#FFA500"/>
<rect id="Rectangle 154" x="7.63672" y="11.8788" width="4.66753" height="4.70289" rx="1" fill="#FF6F61"/>
<rect id="Rectangle 156" x="3.39453" y="17.6054" width="4.66753" height="4.70289" rx="1" fill="#D3D3D3"/>
<rect id="Rectangle 157" x="0.884766" y="24.5742" width="3.78353" height="3.81889" rx="1" fill="#008080"/>
<rect id="Rectangle 158" x="12.2695" y="27.4335" width="3.81889" height="3.78353" rx="1" fill="#FF4500"/>
<rect id="Rectangle 159" x="9.65234" y="19.9413" width="4.70289" height="4.70289" rx="1" fill="#228B22"/>
<rect id="Rectangle 160" x="16.0879" y="22.2382" width="2.33377" height="2.33377" rx="0.5" fill="#0074CC"/>
<rect id="Rectangle 161" x="7.63672" y="26.2695" width="2.33377" height="2.33377" rx="0.5" fill="#E0FFFF"/>
</g>
<g id="Group 100">
<rect id="Rectangle 162" x="14.8281" y="14.8242" width="15.6102" height="3.90254" rx="1" fill="#0F4C81"/>
<rect id="Rectangle 163" width="30.4451" height="3.78353" rx="1" transform="matrix(0 -1 -1 0 32 31.2226)" fill="#0F4C81"/>
</g>
</g>
</svg>
