<svg width="35" height="36" viewBox="0 0 35 36" fill="none" xmlns="http://www.w3.org/2000/svg">
<g id="Group 148">
<g id="Group 101">
<rect id="Rectangle 151" y="9.27905" width="5.41203" height="6.53316" rx="1" fill="#FFFDD0"/>
<rect id="Rectangle 152" x="5.41211" width="6.19986" height="7.57347" rx="1" fill="#001F3F"/>
<rect id="Rectangle 153" x="13.325" y="7.57544" width="4.52144" height="5.49285" rx="1" fill="#FFA500"/>
<rect id="Rectangle 154" x="7.39868" y="13.0668" width="4.52144" height="5.53446" rx="1" fill="#FF6F61"/>
<rect id="Rectangle 156" x="3.28931" y="19.8085" width="4.52144" height="5.53446" rx="1" fill="#D3D3D3"/>
<rect id="Rectangle 157" x="0.858643" y="28.0092" width="3.66511" height="4.49415" rx="1" fill="#008080"/>
<rect id="Rectangle 158" x="11.8865" y="31.3711" width="3.69936" height="4.45254" rx="1" fill="#FF4500"/>
<rect id="Rectangle 159" x="9.34937" y="22.5542" width="4.5557" height="5.53446" rx="1" fill="#228B22"/>
<rect id="Rectangle 160" x="15.5859" y="25.2636" width="2.26072" height="2.74642" rx="0.5" fill="#0074CC"/>
<rect id="Rectangle 161" x="7.39868" y="30.0028" width="2.26072" height="2.74642" rx="0.5" fill="#E0FFFF"/>
</g>
<g id="Group 147">
<rect id="Rectangle 162" x="14" y="16" width="15" height="5" rx="1" fill="#0F4C81"/>
<rect id="Rectangle 163" width="36" height="8" rx="1" transform="matrix(0 -1 -1 0 35 36)" fill="#0F4C81"/>
</g>
</g>
</svg>
