<svg width="34" height="36" viewBox="0 0 34 36" fill="none" xmlns="http://www.w3.org/2000/svg">
<g id="Group 123">
<path id="Vector" d="M28.435 34.0947H6.1291C3.30557 34.0947 1.3291 31.8359 1.3291 29.2947V20.2594H31.2585C32.1056 20.2594 32.6703 20.8241 32.6703 21.6711V29.577C32.6703 32.1182 30.6938 34.0947 28.435 34.0947Z" fill="#F4B1B2"/>
<path id="Vector_2" d="M26.4588 35.5053H7.25878C3.30583 35.5053 0.199951 32.3995 0.199951 28.4465V10.6583C0.199951 6.70534 3.30583 3.59946 7.25878 3.59946H26.7411C30.6941 3.59946 33.8 6.70534 33.8 10.6583V28.4465C33.5176 32.1171 30.4117 35.5053 26.4588 35.5053ZM7.25878 5.57593C4.43525 5.57593 2.17642 7.83475 2.17642 10.6583V28.4465C2.17642 31.27 4.43525 33.5289 7.25878 33.5289H26.7411C29.5647 33.5289 31.8235 31.27 31.8235 28.4465V10.6583C31.8235 7.83475 29.5647 5.57593 26.7411 5.57593H7.25878Z" fill="#D72822"/>
<path id="Vector_3" d="M25.3288 9.24871V6.70754C25.3288 3.88401 23.6346 1.62518 21.3758 1.62518H12.0582C9.79934 1.62518 8.10522 3.88401 8.10522 6.70754V9.24871H25.3288Z" fill="#F4B1B2"/>
<path id="Vector_4" d="M25.3294 10.377H7.25879V9.52997V6.70644C7.25879 3.3182 9.51761 0.494675 12.3411 0.494675H21.6588C24.4823 0.494675 26.7411 3.3182 26.7411 6.70644V10.0947L25.3294 10.377ZM9.23526 8.1182H24.7647V6.70644C24.7647 4.44762 23.3529 2.7535 21.6588 2.7535H12.0588C10.3647 2.7535 8.95291 4.44762 8.95291 6.70644V8.1182H9.23526Z" fill="#D72822"/>
<path id="Vector_5" d="M29.2826 10.3748H4.43556C3.87086 10.3748 3.30615 9.81011 3.30615 9.24541C3.30615 8.6807 3.87086 8.116 4.43556 8.116H29.2826C29.8473 8.116 30.412 8.6807 30.412 9.24541C30.412 9.81011 29.8473 10.3748 29.2826 10.3748Z" fill="#D72822"/>
<path id="Vector_6" d="M11.7191 20.4469L17.8264 25.0069L16.6461 26.5881L10.5332 22.0309L11.7191 20.4469Z" fill="#CB2A24"/>
<path id="Vector_7" d="M15.1697 25.395L25.2779 14.7447L26.7094 16.1056L16.6012 26.756L15.1697 25.395Z" fill="#CB2A24"/>
</g>
</svg>
