<svg width="52" height="53" viewBox="0 0 52 53" fill="none" xmlns="http://www.w3.org/2000/svg">
<g id="Group 142">
<circle id="Ellipse 64" cx="26" cy="26.5" r="25.5" transform="rotate(-90 26 26.5)" fill="#D72822" fill-opacity="0.82" stroke="white"/>
<g id="Ellipse 67">
<mask id="path-2-inside-1_638_18774" fill="white">
<path d="M26 0.5C31.1423 0.5 36.1691 2.02487 40.4448 4.88179C44.7205 7.73871 48.053 11.7994 50.0209 16.5502C51.9887 21.3011 52.5036 26.5288 51.5004 31.5723C50.4972 36.6159 48.0209 41.2486 44.3848 44.8848C40.7486 48.5209 36.1159 50.9972 31.0723 52.0004C26.0288 53.0036 20.8011 52.4887 16.0502 50.5209C11.2994 48.553 7.23871 45.2205 4.38179 40.9448C1.52487 36.6691 -6.13215e-08 31.6423 0 26.5L26 26.5L26 0.5Z"/>
</mask>
<path d="M26 0.5C31.1423 0.5 36.1691 2.02487 40.4448 4.88179C44.7205 7.73871 48.053 11.7994 50.0209 16.5502C51.9887 21.3011 52.5036 26.5288 51.5004 31.5723C50.4972 36.6159 48.0209 41.2486 44.3848 44.8848C40.7486 48.5209 36.1159 50.9972 31.0723 52.0004C26.0288 53.0036 20.8011 52.4887 16.0502 50.5209C11.2994 48.553 7.23871 45.2205 4.38179 40.9448C1.52487 36.6691 -6.13215e-08 31.6423 0 26.5L26 26.5L26 0.5Z" fill="#228B22" stroke="white" stroke-width="2" mask="url(#path-2-inside-1_638_18774)"/>
</g>
<g id="Ellipse 65">
<mask id="path-3-inside-2_638_18774" fill="white">
<path d="M26 0.5C29.4144 0.5 32.7953 1.17251 35.9498 2.47913C39.1042 3.78576 41.9705 5.7009 44.3848 8.11522C46.7991 10.5295 48.7142 13.3958 50.0209 16.5502C51.3275 19.7047 52 23.0856 52 26.5C52 29.9144 51.3275 33.2953 50.0209 36.4498C48.7142 39.6042 46.7991 42.4705 44.3848 44.8848C41.9705 47.2991 39.1042 49.2142 35.9498 50.5209C32.7953 51.8275 29.4144 52.5 26 52.5L26 26.5L26 0.5Z"/>
</mask>
<path d="M26 0.5C29.4144 0.5 32.7953 1.17251 35.9498 2.47913C39.1042 3.78576 41.9705 5.7009 44.3848 8.11522C46.7991 10.5295 48.7142 13.3958 50.0209 16.5502C51.3275 19.7047 52 23.0856 52 26.5C52 29.9144 51.3275 33.2953 50.0209 36.4498C48.7142 39.6042 46.7991 42.4705 44.3848 44.8848C41.9705 47.2991 39.1042 49.2142 35.9498 50.5209C32.7953 51.8275 29.4144 52.5 26 52.5L26 26.5L26 0.5Z" fill="#FFA500" stroke="white" stroke-width="2" mask="url(#path-3-inside-2_638_18774)"/>
</g>
</g>
</svg>
