<svg width="236" height="236" viewBox="0 0 236 236" fill="none" xmlns="http://www.w3.org/2000/svg">
<g id="Learning-rafiki 1">
<g id="freepik--background-complete--inject-89">
<path id="Vector" d="M236 180.493H0V180.611H236V180.493Z" fill="#EBEBEB"/>
<path id="Vector_2" d="M212.353 188.087H186.284V188.205H212.353V188.087Z" fill="#EBEBEB"/>
<path id="Vector_3" d="M155.996 185.614H151.894V185.732H155.996V185.614Z" fill="#EBEBEB"/>
<path id="Vector_4" d="M184.864 183.707H175.806V183.825H184.864V183.707Z" fill="#EBEBEB"/>
<path id="Vector_5" d="M45.1468 184.5H24.7611V184.618H45.1468V184.5Z" fill="#EBEBEB"/>
<path id="Vector_6" d="M123.216 187.549H101.636V187.667H123.216V187.549Z" fill="#EBEBEB"/>
<path id="Vector_7" d="M110.514 185.553H66.2971V185.671H110.514V185.553Z" fill="#EBEBEB"/>
<path id="Vector_8" d="M114.564 156.746C114.564 157.101 114.494 157.452 114.358 157.779C114.223 158.106 114.024 158.404 113.773 158.654C113.522 158.904 113.224 159.103 112.897 159.238C112.569 159.373 112.218 159.442 111.864 159.442H20.7256C20.0116 159.44 19.3273 159.156 18.8229 158.651C18.3185 158.145 18.0352 157.46 18.0352 156.746V28.6315C18.0414 27.9217 18.3274 27.2429 18.8312 26.7427C19.3349 26.2425 20.0157 25.9612 20.7256 25.96H111.864C112.579 25.96 113.264 26.244 113.77 26.7494C114.275 27.2548 114.559 27.9404 114.559 28.6551M114.441 28.6551C114.444 28.3149 114.379 27.9775 114.251 27.6624C114.122 27.3473 113.933 27.0606 113.693 26.819C113.454 26.5773 113.169 26.3853 112.855 26.2541C112.541 26.1229 112.204 26.055 111.864 26.0544H20.7256C20.0429 26.0557 19.3886 26.3277 18.9063 26.8109C18.424 27.2941 18.1532 27.9489 18.1532 28.6315V156.746C18.1532 157.429 18.424 158.084 18.9063 158.567C19.3886 159.05 20.0429 159.322 20.7256 159.324H111.864C112.547 159.322 113.202 159.05 113.685 158.567C114.168 158.084 114.44 157.43 114.441 156.746" fill="#EBEBEB"/>
<path id="Vector_9" d="M213.962 159.442H122.819C122.105 159.44 121.42 159.156 120.915 158.651C120.41 158.146 120.125 157.461 120.124 156.746V28.6315C120.131 27.9212 120.419 27.2425 120.923 26.7424C121.428 26.2423 122.109 25.9612 122.819 25.96H213.962C214.671 25.9625 215.351 26.2443 215.854 26.7444C216.356 27.2444 216.642 27.9225 216.648 28.6315V156.746C216.648 157.46 216.365 158.144 215.862 158.649C215.359 159.154 214.675 159.439 213.962 159.442ZM122.819 26.0544C122.136 26.0557 121.481 26.3276 120.998 26.8106C120.515 27.2937 120.243 27.9484 120.242 28.6315V156.746C120.243 157.43 120.515 158.084 120.998 158.567C121.481 159.05 122.136 159.322 122.819 159.324H213.962C214.645 159.322 215.3 159.05 215.783 158.567C216.266 158.084 216.538 157.43 216.539 156.746V28.6315C216.538 27.9484 216.266 27.2937 215.783 26.8106C215.3 26.3276 214.645 26.0557 213.962 26.0544H122.819Z" fill="#EBEBEB"/>
<path id="Vector_10" d="M204.932 72.1011H169.075L172.251 45.7918H201.756L204.932 72.1011Z" fill="#FBE3B7"/>
<path id="Vector_11" d="M175.579 72.5511H175.003V82.6283H175.579V72.5511Z" fill="#C7C7C7"/>
<path id="Vector_12" d="M175.291 83.3174C175.672 83.3174 175.98 83.0089 175.98 82.6283C175.98 82.2477 175.672 81.9392 175.291 81.9392C174.911 81.9392 174.602 82.2477 174.602 82.6283C174.602 83.0089 174.911 83.3174 175.291 83.3174Z" fill="#C7C7C7"/>
<path id="Vector_13" d="M197.631 72.5559H191.467L190.159 46.2466H195.847L197.631 72.5559Z" fill="#DF5B36" fill-opacity="0.5"/>
<g id="Vector_14">
<path d="M188.799 72.0905H185.212V180.027H188.799V72.0905Z" fill="#F0F0F0"/>
<path d="M185.712 179.527V72.5905H188.299V179.527H185.712Z" stroke="black" stroke-opacity="0.5"/>
</g>
<path id="Vector_15" d="M193.246 180.493H181.895C181.895 179.851 182.149 179.236 182.602 178.782C183.055 178.328 183.67 178.073 184.311 178.071H190.83C191.471 178.073 192.086 178.328 192.539 178.782C192.992 179.236 193.246 179.851 193.246 180.493Z" fill="#F0F0F0"/>
<path id="Vector_16" d="M182.576 130.011L182.576 130.011L182.589 130.01C182.854 129.984 183.118 129.984 183.41 129.984H208.978V178.487H175.494H175.493C175.287 178.488 175.082 178.447 174.891 178.369C174.701 178.29 174.527 178.174 174.381 178.028C174.235 177.882 174.12 177.709 174.041 177.518C173.962 177.327 173.922 177.123 173.922 176.916V176.915V161.125C173.984 155.66 173.328 150.211 171.971 144.917L171.971 144.917L171.97 144.91C171.513 143.222 171.436 141.454 171.745 139.733C172.053 138.011 172.739 136.38 173.753 134.955C174.767 133.531 176.085 132.348 177.61 131.493C179.136 130.639 180.831 130.132 182.576 130.011Z" fill="#FFA500" fill-opacity="0.71" stroke="black"/>
<g id="Vector_17">
<path d="M221.84 141.827C221.84 140.068 221.464 138.331 220.737 136.73C220.011 135.128 218.951 133.701 217.629 132.542C216.306 131.384 214.752 130.521 213.069 130.012C211.386 129.503 209.614 129.358 207.871 129.589C206.128 129.82 204.455 130.421 202.963 131.35C201.471 132.28 200.194 133.518 199.219 134.981C198.244 136.443 197.592 138.098 197.308 139.833C197.023 141.568 197.113 143.343 197.57 145.041C198.916 150.293 199.567 155.7 199.505 161.122V176.915C199.504 177.187 199.558 177.457 199.661 177.709C199.765 177.96 199.918 178.189 200.11 178.382C200.303 178.574 200.532 178.727 200.783 178.831C201.035 178.935 201.305 178.988 201.577 178.987H217.408C217.957 178.987 218.485 178.769 218.873 178.38C219.262 177.992 219.48 177.465 219.48 176.915V160.197C219.426 155.111 220.061 150.041 221.368 145.126C221.675 144.053 221.833 142.943 221.84 141.827Z" fill="#FFA500" fill-opacity="0.71"/>
<path d="M198.054 144.917L198.054 144.917L198.053 144.911C197.614 143.282 197.528 141.578 197.801 139.913C198.074 138.249 198.699 136.661 199.635 135.258C200.571 133.854 201.795 132.667 203.227 131.775C204.659 130.883 206.265 130.306 207.937 130.085C209.609 129.863 211.31 130.002 212.924 130.49C214.539 130.979 216.031 131.807 217.299 132.918C218.568 134.03 219.585 135.4 220.282 136.936C220.979 138.472 221.339 140.139 221.34 141.825C221.334 142.895 221.181 143.96 220.887 144.988L220.887 144.988L220.885 144.997C219.567 149.956 218.926 155.069 218.98 160.199V176.915C218.98 177.332 218.814 177.732 218.52 178.027C218.225 178.321 217.825 178.487 217.408 178.487H201.577H201.576C201.369 178.488 201.165 178.447 200.974 178.368C200.783 178.29 200.61 178.174 200.464 178.028L200.11 178.382L200.464 178.028C200.318 177.882 200.202 177.709 200.124 177.518L199.661 177.709L200.124 177.518C200.045 177.327 200.004 177.123 200.005 176.916V176.915V161.125C200.067 155.66 199.411 150.211 198.054 144.917Z" stroke="black" stroke-opacity="0.5"/>
</g>
<g id="Vector_18">
<path d="M203.224 148.93H146.934V178.987H203.224V148.93Z" fill="#FFA500" fill-opacity="0.71"/>
<path d="M147.434 178.487V149.43H202.724V178.487H147.434Z" stroke="black" stroke-opacity="0.5"/>
</g>
<path id="Vector_19" d="M167.956 109.551H126.42C125.223 109.53 124.035 109.763 122.935 110.236C121.836 110.709 120.849 111.41 120.041 112.294C119.233 113.177 118.622 114.222 118.249 115.36C117.876 116.498 117.749 117.702 117.877 118.892L121.04 155.708H181.248L178.086 118.892C177.831 116.366 176.66 114.021 174.794 112.3C172.927 110.579 170.495 109.601 167.956 109.551Z" fill="#E0E0E0"/>
<path id="Vector_20" d="M180.172 109.551H137.739C136.599 109.529 135.467 109.75 134.419 110.2C133.372 110.649 132.432 111.317 131.662 112.158C130.892 113 130.311 113.996 129.957 115.079C129.602 116.163 129.483 117.31 129.607 118.444L132.811 155.732H193.048L189.843 118.444C189.603 116.033 188.484 113.795 186.701 112.156C184.918 110.516 182.594 109.589 180.172 109.551Z" fill="#FFA500" fill-opacity="0.71"/>
<path id="Vector_21" d="M147.858 146.688H147.859H202.271C202.958 146.688 203.617 146.961 204.103 147.447C204.589 147.933 204.862 148.592 204.862 149.279V155.335C204.862 156.023 204.589 156.682 204.103 157.168C203.617 157.654 202.958 157.927 202.271 157.927H147.859C147.741 157.927 147.628 157.88 147.545 157.797C147.461 157.714 147.415 157.601 147.415 157.483V147.109C147.42 146.997 147.469 146.891 147.55 146.812C147.633 146.732 147.743 146.688 147.858 146.688Z" fill="#FFA500" fill-opacity="0.71" stroke="black"/>
<path id="Vector_22" d="M116.608 129.484C116.318 129.484 116.03 129.493 115.744 129.512C113.926 129.64 112.16 130.169 110.57 131.061C108.981 131.952 107.609 133.184 106.552 134.668C105.495 136.152 104.779 137.852 104.457 139.645C104.134 141.439 104.212 143.281 104.685 145.041C106.034 150.293 106.684 155.7 106.62 161.122V176.915C106.62 177.465 106.838 177.992 107.227 178.38C107.616 178.769 108.143 178.987 108.692 178.987H142.676V129.484H116.608Z" fill="#F0F0F0"/>
<path id="Vector_23" d="M131.228 144.917L131.228 144.917L131.227 144.912C130.794 143.285 130.713 141.584 130.989 139.923C131.265 138.262 131.892 136.678 132.829 135.278C133.765 133.879 134.989 132.695 136.419 131.805C137.849 130.916 139.452 130.341 141.121 130.12C142.791 129.899 144.488 130.037 146.1 130.524C147.712 131.01 149.202 131.835 150.471 132.943C151.739 134.051 152.756 135.416 153.455 136.948C154.154 138.48 154.518 140.143 154.524 141.827C154.521 142.897 154.375 143.961 154.089 144.992L154.088 144.996C152.76 149.954 152.11 155.067 152.154 160.199L152.154 176.915L152.154 176.916C152.155 177.123 152.114 177.327 152.036 177.518C151.957 177.709 151.841 177.882 151.695 178.028L152.049 178.382L151.695 178.028C151.549 178.174 151.376 178.29 151.185 178.369C150.994 178.447 150.79 178.488 150.583 178.487H150.582H134.756H134.755C134.548 178.488 134.343 178.447 134.152 178.368C133.961 178.29 133.787 178.174 133.641 178.028C133.495 177.882 133.378 177.708 133.299 177.517C133.22 177.327 133.179 177.122 133.179 176.915V161.125C133.244 155.66 132.588 150.21 131.228 144.917Z" fill="#FFA500" fill-opacity="0.71" stroke="#0F4C81"/>
<path id="Vector_24" d="M203.215 180.493H117.49C117.091 180.493 116.708 180.334 116.426 180.052C116.143 179.769 115.985 179.386 115.985 178.987H204.721C204.721 179.386 204.562 179.769 204.28 180.052C203.997 180.334 203.614 180.493 203.215 180.493Z" fill="#E0E0E0"/>
<path id="Vector_25" d="M32.1102 42.3998H21.7639V180.493H32.1102V42.3998Z" fill="#455154" fill-opacity="0.5"/>
<path id="Vector_26" d="M32.1055 180.493H122.904L122.904 42.3997H32.1055L32.1055 180.493Z" fill="#C7C7C7"/>
<path id="Vector_27" d="M121.21 180.493L121.21 44.4341L33.8046 44.4341L33.8046 180.493H121.21Z" fill="#E6E6E6"/>
<path id="Vector_28" d="M41.1206 180.493L41.1206 44.4341H33.8046L33.8046 180.493H41.1206Z" fill="#E0E0E0"/>
<path id="Vector_29" d="M122.13 156.237V154.207H33.8046V156.237H122.13Z" fill="#F5F5F5"/>
<path id="Vector_30" d="M122.13 127.728V125.698H33.8046V127.728H122.13Z" fill="#F5F5F5"/>
<path id="Vector_31" d="M122.13 99.2239V97.1896H33.8046V99.2239H122.13Z" fill="#F5F5F5"/>
<path id="Vector_32" d="M122.13 70.7103V68.6807H33.8046V70.7103H122.13Z" fill="#F5F5F5"/>
<path id="Vector_33" d="M41.5926 68.6854H54.7284V49.3193H41.5926V68.6854Z" fill="#FAFAFA"/>
<path id="Vector_34" d="M56.1255 49.3146H53.605C53.2088 49.3146 52.8876 49.6358 52.8876 50.032V67.9633C52.8876 68.3595 53.2088 68.6807 53.605 68.6807H56.1255C56.5217 68.6807 56.8429 68.3595 56.8429 67.9633V50.032C56.8429 49.6358 56.5217 49.3146 56.1255 49.3146Z" fill="#FFA500" fill-opacity="0.27"/>
<path id="Vector_35" d="M37.1653 68.6854H50.301V49.3193H37.1653V68.6854Z" fill="#FAFAFA"/>
<path id="Vector_36" d="M51.7076 49.3146H49.1872C48.7909 49.3146 48.4697 49.6358 48.4697 50.032V67.9633C48.4697 68.3595 48.7909 68.6807 49.1872 68.6807H51.7076C52.1039 68.6807 52.4251 68.3595 52.4251 67.9633V50.032C52.4251 49.6358 52.1039 49.3146 51.7076 49.3146Z" fill="#C7C7C7"/>
<path id="Vector_37" d="M33.8047 49.3146H45.1421L44.2406 68.6855H33.8047V49.3146Z" fill="#FFA500" fill-opacity="0.27"/>
<path id="Vector_38" d="M46.6053 49.3146H43.9574C43.7647 49.3336 43.5863 49.4251 43.4584 49.5705C43.3305 49.716 43.2626 49.9045 43.2683 50.0981L42.4376 67.9019C42.4251 67.9942 42.4313 68.0881 42.4558 68.178C42.4804 68.2678 42.5227 68.3518 42.5804 68.4249C42.6381 68.498 42.71 68.5588 42.7917 68.6035C42.8733 68.6483 42.9632 68.6762 43.0559 68.6855H45.7038C45.8957 68.6643 46.0727 68.5722 46.2002 68.4273C46.3277 68.2823 46.3964 68.0949 46.3929 67.9019L47.2236 50.0981C47.2368 50.0057 47.2311 49.9116 47.2068 49.8215C47.1825 49.7313 47.1402 49.6471 47.0824 49.5738C47.0246 49.5006 46.9525 49.4398 46.8705 49.3952C46.7885 49.3507 46.6982 49.3232 46.6053 49.3146Z" fill="#F0F0F0"/>
<path id="Vector_39" d="M102.339 68.6807H112.298V52.3306H102.339V68.6807Z" fill="#FAFAFA"/>
<path id="Vector_40" d="M113.332 52.3354H111.477C111.162 52.3354 110.906 52.5911 110.906 52.9065V68.1143C110.906 68.4298 111.162 68.6855 111.477 68.6855H113.332C113.647 68.6855 113.903 68.4298 113.903 68.1143V52.9065C113.903 52.5911 113.647 52.3354 113.332 52.3354Z" fill="#F0F0F0"/>
<path id="Vector_41" d="M98.9831 68.6807H108.942V52.3306H98.9831V68.6807Z" fill="#FAFAFA"/>
<path id="Vector_42" d="M109.981 52.3354H108.126C107.81 52.3354 107.555 52.5911 107.555 52.9065V68.1143C107.555 68.4298 107.81 68.6855 108.126 68.6855H109.981C110.296 68.6855 110.552 68.4298 110.552 68.1143V52.9065C110.552 52.5911 110.296 52.3354 109.981 52.3354Z" fill="#E6E6E6"/>
<path id="Vector_43" d="M96.4343 52.3354H105.029L104.345 68.6855H96.4343V52.3354Z" fill="#FAFAFA"/>
<path id="Vector_44" d="M106.139 52.3354H104.133C103.859 52.3354 103.628 52.6327 103.609 52.9962L102.981 68.0247C102.981 68.3881 103.174 68.6855 103.453 68.6855H105.464C105.737 68.6855 105.969 68.3881 105.983 68.0247L106.615 52.9962C106.625 52.6327 106.412 52.3354 106.139 52.3354Z" fill="#F0F0F0"/>
<path id="Vector_45" d="M89.4959 68.6807H99.4551V52.3306H89.4959V68.6807Z" fill="#FAFAFA"/>
<path id="Vector_46" d="M100.489 52.3354H98.6339C98.3184 52.3354 98.0627 52.5911 98.0627 52.9065V68.1143C98.0627 68.4298 98.3184 68.6855 98.6339 68.6855H100.489C100.804 68.6855 101.06 68.4298 101.06 68.1143V52.9065C101.06 52.5911 100.804 52.3354 100.489 52.3354Z" fill="#F0F0F0"/>
<path id="Vector_47" d="M86.1447 68.6807H96.1039V52.3306H86.1447V68.6807Z" fill="#FAFAFA"/>
<path id="Vector_48" d="M97.1376 52.3354H95.2827C94.9672 52.3354 94.7115 52.5911 94.7115 52.9065V68.1143C94.7115 68.4298 94.9672 68.6855 95.2827 68.6855H97.1376C97.453 68.6855 97.7087 68.4298 97.7087 68.1143V52.9065C97.7087 52.5911 97.453 52.3354 97.1376 52.3354Z" fill="#E6E6E6"/>
<path id="Vector_49" d="M83.5959 52.3354H92.1863L91.5067 68.6855H83.5959V52.3354Z" fill="#FFA500" fill-opacity="0.27"/>
<path id="Vector_50" d="M93.3002 52.3354H91.2895C91.0157 52.3354 90.7845 52.6327 90.7703 52.9962L90.152 68.0247C90.152 68.3881 90.3502 68.6855 90.624 68.6855H92.63C92.9037 68.6855 93.135 68.3881 93.1539 68.0247L93.7817 52.9962C93.7817 52.6327 93.574 52.3354 93.3002 52.3354Z" fill="#F0F0F0"/>
<path id="Vector_51" d="M70.7339 68.6855H77.677V51.1129H70.7339V68.6855Z" fill="#FAFAFA"/>
<path id="Vector_52" d="M78.3048 51.1082H77.2051C76.9314 51.1082 76.7095 51.33 76.7095 51.6038V68.1851C76.7095 68.4588 76.9314 68.6807 77.2051 68.6807H78.3048C78.5785 68.6807 78.8004 68.4588 78.8004 68.1851V51.6038C78.8004 51.33 78.5785 51.1082 78.3048 51.1082Z" fill="#F0F0F0"/>
<path id="Vector_53" d="M64.9519 68.6854H72.603V49.3193H64.9519V68.6854Z" fill="#FAFAFA"/>
<path id="Vector_54" d="M73.2922 49.3146H72.0839C71.7815 49.3146 71.5364 49.5597 71.5364 49.8621V68.1332C71.5364 68.4356 71.7815 68.6807 72.0839 68.6807H73.2922C73.5946 68.6807 73.8397 68.4356 73.8397 68.1332V49.8621C73.8397 49.5597 73.5946 49.3146 73.2922 49.3146Z" fill="#FFA500" fill-opacity="0.27"/>
<path id="Vector_55" d="M62.9932 49.3146H69.5964L69.0725 68.6855H62.9932V49.3146Z" fill="#C7C7C7"/>
<path id="Vector_56" d="M70.4507 49.3146H68.912C68.7043 49.3146 68.5203 49.6639 68.5108 50.0981L68.0388 67.9019C68.0388 68.3314 68.1851 68.6855 68.3975 68.6855H69.941C70.1487 68.6855 70.328 68.3314 70.3422 67.9019L70.8142 50.0981C70.8 49.6639 70.6584 49.3146 70.4507 49.3146Z" fill="#F0F0F0"/>
<path id="Vector_57" d="M76.5631 97.1943H89.6989V77.8281H76.5631V97.1943Z" fill="#FAFAFA"/>
<path id="Vector_58" d="M91.1007 77.8234H88.5802C88.184 77.8234 87.8628 78.1446 87.8628 78.5408V96.4721C87.8628 96.8683 88.184 97.1895 88.5802 97.1895H91.1007C91.4969 97.1895 91.8182 96.8683 91.8182 96.4721V78.5408C91.8182 78.1446 91.4969 77.8234 91.1007 77.8234Z" fill="#F0F0F0"/>
<path id="Vector_59" d="M72.1452 97.1943H85.281V77.8281H72.1452V97.1943Z" fill="#FAFAFA"/>
<path id="Vector_60" d="M86.6781 77.8234H84.1576C83.7614 77.8234 83.4402 78.1446 83.4402 78.5408V96.4721C83.4402 96.8683 83.7614 97.1895 84.1576 97.1895H86.6781C87.0743 97.1895 87.3955 96.8683 87.3955 96.4721V78.5408C87.3955 78.1446 87.0743 77.8234 86.6781 77.8234Z" fill="#E6E6E6"/>
<path id="Vector_61" d="M68.7799 77.8234H80.1126L79.2111 97.1942H68.7799V77.8234Z" fill="#FFA500" fill-opacity="0.27"/>
<path id="Vector_62" d="M81.5805 77.8234H78.9326C78.7399 77.8424 78.5615 77.9339 78.4336 78.0793C78.3057 78.2247 78.2378 78.4133 78.2435 78.6069L77.408 96.4107C77.3948 96.5031 77.4006 96.5972 77.4248 96.6874C77.4491 96.7775 77.4915 96.8617 77.5493 96.935C77.6071 97.0083 77.6792 97.069 77.7612 97.1136C77.8432 97.1581 77.9334 97.1856 78.0264 97.1942H80.6743C80.8662 97.1731 81.0432 97.081 81.1707 96.936C81.2982 96.7911 81.3669 96.6037 81.3634 96.4107L82.1894 78.6069C82.2033 78.5151 82.1984 78.4215 82.175 78.3317C82.1515 78.2418 82.1101 78.1577 82.0531 78.0844C81.9962 78.0112 81.9249 77.9502 81.8437 77.9053C81.7624 77.8604 81.6729 77.8326 81.5805 77.8234Z" fill="#C7C7C7"/>
<path id="Vector_63" d="M96.6986 97.1896H104.746V80.8395H96.6986V97.1896Z" fill="#FAFAFA"/>
<path id="Vector_64" d="M105.53 80.8442H104.137C103.853 80.8442 103.623 81.0745 103.623 81.3587V96.6798C103.623 96.9639 103.853 97.1943 104.137 97.1943H105.53C105.814 97.1943 106.044 96.9639 106.044 96.6798V81.3587C106.044 81.0745 105.814 80.8442 105.53 80.8442Z" fill="#F0F0F0"/>
<path id="Vector_65" d="M93.9894 97.1896H102.037V80.8395H93.9894V97.1896Z" fill="#FAFAFA"/>
<path id="Vector_66" d="M102.821 80.8442H101.428C101.144 80.8442 100.914 81.0745 100.914 81.3587V96.6798C100.914 96.9639 101.144 97.1943 101.428 97.1943H102.821C103.105 97.1943 103.335 96.9639 103.335 96.6798V81.3587C103.335 81.0745 103.105 80.8442 102.821 80.8442Z" fill="#E6E6E6"/>
<path id="Vector_67" d="M91.9268 80.8442H98.8746L98.3224 97.1943H91.9268V80.8442Z" fill="#C7C7C7"/>
<path id="Vector_68" d="M99.7714 80.8442H98.1477C97.9258 80.8442 97.737 81.1415 97.7276 81.505L97.232 96.5335C97.232 96.8969 97.3878 97.1943 97.6096 97.1943H99.2333C99.4551 97.1943 99.6439 96.8969 99.6534 96.5335L100.163 81.505C100.163 81.1415 99.9932 80.8442 99.7714 80.8442Z" fill="#F0F0F0"/>
<path id="Vector_69" d="M110.127 97.1943H116.792V83.6526H110.127V97.1943Z" fill="#FAFAFA"/>
<path id="Vector_70" d="M117.438 83.6478H116.282C116.047 83.6478 115.857 83.838 115.857 84.0726V96.7647C115.857 96.9993 116.047 97.1895 116.282 97.1895H117.438C117.673 97.1895 117.863 96.9993 117.863 96.7647V84.0726C117.863 83.838 117.673 83.6478 117.438 83.6478Z" fill="#F0F0F0"/>
<path id="Vector_71" d="M107.88 97.1943H114.545V83.6526H107.88V97.1943Z" fill="#FAFAFA"/>
<path id="Vector_72" d="M115.196 83.6478H114.04C113.805 83.6478 113.615 83.838 113.615 84.0726V96.7647C113.615 96.9993 113.805 97.1895 114.04 97.1895H115.196C115.431 97.1895 115.621 96.9993 115.621 96.7647V84.0726C115.621 83.838 115.431 83.6478 115.196 83.6478Z" fill="#E6E6E6"/>
<path id="Vector_73" d="M106.172 83.6478H111.925L111.468 97.1942H106.172V83.6478Z" fill="#FAFAFA"/>
<path id="Vector_74" d="M112.671 83.6478H111.326C111.142 83.6478 110.986 83.8933 110.977 84.1953L110.557 96.6467C110.557 96.9488 110.684 97.1942 110.868 97.1942H112.213C112.393 97.1942 112.553 96.9488 112.563 96.6467L112.983 84.1953C112.992 83.8933 112.851 83.6478 112.671 83.6478Z" fill="#F0F0F0"/>
<path id="Vector_75" d="M55.5072 97.1896H65.4664V80.8395H55.5072V97.1896Z" fill="#FAFAFA"/>
<path id="Vector_76" d="M66.5048 80.8442H64.6499C64.3344 80.8442 64.0787 81.0999 64.0787 81.4153V96.6231C64.0787 96.9386 64.3344 97.1943 64.6499 97.1943H66.5048C66.8202 97.1943 67.0759 96.9386 67.0759 96.6231V81.4153C67.0759 81.0999 66.8202 80.8442 66.5048 80.8442Z" fill="#F0F0F0"/>
<path id="Vector_77" d="M52.1607 97.1896H62.1199V80.8395H52.1607V97.1896Z" fill="#FAFAFA"/>
<path id="Vector_78" d="M63.1489 80.8442H61.2939C60.9785 80.8442 60.7228 81.0999 60.7228 81.4153V96.6231C60.7228 96.9386 60.9785 97.1943 61.2939 97.1943H63.1489C63.4643 97.1943 63.72 96.9386 63.72 96.6231V81.4153C63.72 81.0999 63.4643 80.8442 63.1489 80.8442Z" fill="#E6E6E6"/>
<path id="Vector_79" d="M49.6072 80.8442H58.2023L57.5179 97.1943H49.6072V80.8442Z" fill="#C7C7C7"/>
<path id="Vector_80" d="M59.3115 80.8442H57.3055C57.1517 80.8696 57.0129 80.9514 56.9161 81.0735C56.8192 81.1956 56.7713 81.3494 56.7816 81.505L56.168 96.5335C56.168 96.8969 56.3615 97.1943 56.64 97.1943H58.646C58.7998 97.1688 58.9386 97.0871 59.0354 96.9649C59.1322 96.8428 59.1802 96.689 59.1699 96.5335L59.7977 81.505C59.7977 81.1415 59.5853 80.8442 59.3115 80.8442Z" fill="#FFA500" fill-opacity="0.27"/>
<path id="Vector_81" d="M41.5454 97.1943H48.4885V79.6217H41.5454V97.1943Z" fill="#FAFAFA"/>
<path id="Vector_82" d="M49.1116 79.617H48.0118C47.7381 79.617 47.5162 79.8389 47.5162 80.1126V96.694C47.5162 96.9677 47.7381 97.1896 48.0118 97.1896H49.1116C49.3853 97.1896 49.6072 96.9677 49.6072 96.694V80.1126C49.6072 79.8389 49.3853 79.617 49.1116 79.617Z" fill="#F0F0F0"/>
<path id="Vector_83" d="M35.7634 97.1943H43.4146V77.8281H35.7634V97.1943Z" fill="#FAFAFA"/>
<path id="Vector_84" d="M44.099 77.8234H42.8907C42.5883 77.8234 42.3431 78.0685 42.3431 78.3709V96.642C42.3431 96.9444 42.5883 97.1895 42.8907 97.1895H44.099C44.4014 97.1895 44.6465 96.9444 44.6465 96.642V78.3709C44.6465 78.0685 44.4014 77.8234 44.099 77.8234Z" fill="#FFA500" fill-opacity="0.27"/>
<path id="Vector_85" d="M33.8047 77.8234H40.408L39.884 97.1942H33.8047V77.8234Z" fill="#FAFAFA"/>
<path id="Vector_86" d="M41.2622 77.8234H39.7188C39.5064 77.8234 39.327 78.1726 39.3176 78.6069L38.8456 96.4107C38.8456 96.8402 38.9966 97.1942 39.209 97.1942H40.7336C40.946 97.1942 41.1253 96.8402 41.1348 96.4107L41.6068 78.6069C41.6304 78.1726 41.4699 77.8234 41.2622 77.8234Z" fill="#C7C7C7"/>
<path id="Vector_87" d="M41.5926 125.703H54.7284V106.337H41.5926V125.703Z" fill="#FAFAFA"/>
<path id="Vector_88" d="M56.1255 106.332H53.605C53.2088 106.332 52.8876 106.653 52.8876 107.05V124.981C52.8876 125.377 53.2088 125.698 53.605 125.698H56.1255C56.5217 125.698 56.8429 125.377 56.8429 124.981V107.05C56.8429 106.653 56.5217 106.332 56.1255 106.332Z" fill="#F0F0F0"/>
<path id="Vector_89" d="M37.1653 125.703H50.301V106.337H37.1653V125.703Z" fill="#FAFAFA"/>
<path id="Vector_90" d="M51.7076 106.332H49.1872C48.7909 106.332 48.4697 106.653 48.4697 107.05V124.981C48.4697 125.377 48.7909 125.698 49.1872 125.698H51.7076C52.1039 125.698 52.4251 125.377 52.4251 124.981V107.05C52.4251 106.653 52.1039 106.332 51.7076 106.332Z" fill="#FFA500" fill-opacity="0.27"/>
<path id="Vector_91" d="M33.8047 106.332H45.1421L44.2406 125.703H33.8047V106.332Z" fill="#C7C7C7"/>
<path id="Vector_92" d="M46.6053 106.332H43.9574C43.7647 106.351 43.5863 106.443 43.4584 106.588C43.3305 106.734 43.2626 106.922 43.2683 107.116L42.4376 124.92C42.4251 125.012 42.4313 125.106 42.4558 125.196C42.4804 125.285 42.5227 125.369 42.5804 125.442C42.6381 125.516 42.71 125.576 42.7917 125.621C42.8733 125.666 42.9632 125.694 43.0559 125.703H45.7038C45.8957 125.682 46.0727 125.59 46.2002 125.445C46.3277 125.3 46.3964 125.113 46.3929 124.92L47.2236 107.116C47.2368 107.023 47.2311 106.929 47.2068 106.839C47.1825 106.749 47.1402 106.665 47.0824 106.591C47.0246 106.518 46.9525 106.457 46.8705 106.413C46.7885 106.368 46.6982 106.341 46.6053 106.332Z" fill="#F0F0F0"/>
<path id="Vector_93" d="M102.339 125.698H112.298V109.348H102.339V125.698Z" fill="#FAFAFA"/>
<path id="Vector_94" d="M113.332 109.353H111.477C111.162 109.353 110.906 109.609 110.906 109.924V125.132C110.906 125.447 111.162 125.703 111.477 125.703H113.332C113.647 125.703 113.903 125.447 113.903 125.132V109.924C113.903 109.609 113.647 109.353 113.332 109.353Z" fill="#C7C7C7"/>
<path id="Vector_95" d="M98.9831 125.698H108.942V109.348H98.9831V125.698Z" fill="#FAFAFA"/>
<path id="Vector_96" d="M109.981 109.353H108.126C107.81 109.353 107.555 109.609 107.555 109.924V125.132C107.555 125.447 107.81 125.703 108.126 125.703H109.981C110.296 125.703 110.552 125.447 110.552 125.132V109.924C110.552 109.609 110.296 109.353 109.981 109.353Z" fill="#E6E6E6"/>
<path id="Vector_97" d="M96.4343 109.353H105.029L104.345 125.703H96.4343V109.353Z" fill="#FAFAFA"/>
<path id="Vector_98" d="M106.139 109.353H104.133C103.859 109.353 103.628 109.65 103.609 110.014L102.981 125.042C102.981 125.406 103.174 125.703 103.453 125.703H105.464C105.737 125.703 105.969 125.406 105.983 125.042L106.615 110.014C106.625 109.65 106.412 109.353 106.139 109.353Z" fill="#F0F0F0"/>
<path id="Vector_99" d="M89.4959 125.698H99.4551V109.348H89.4959V125.698Z" fill="#FAFAFA"/>
<path id="Vector_100" d="M100.489 109.353H98.6339C98.3184 109.353 98.0627 109.609 98.0627 109.924V125.132C98.0627 125.447 98.3184 125.703 98.6339 125.703H100.489C100.804 125.703 101.06 125.447 101.06 125.132V109.924C101.06 109.609 100.804 109.353 100.489 109.353Z" fill="#F0F0F0"/>
<path id="Vector_101" d="M86.1447 125.698H96.1039V109.348H86.1447V125.698Z" fill="#FAFAFA"/>
<path id="Vector_102" d="M97.1376 109.353H95.2827C94.9672 109.353 94.7115 109.609 94.7115 109.924V125.132C94.7115 125.447 94.9672 125.703 95.2827 125.703H97.1376C97.453 125.703 97.7087 125.447 97.7087 125.132V109.924C97.7087 109.609 97.453 109.353 97.1376 109.353Z" fill="#E6E6E6"/>
<path id="Vector_103" d="M83.5959 109.353H92.1863L91.5067 125.703H83.5959V109.353Z" fill="#FFA500" fill-opacity="0.27"/>
<path id="Vector_104" d="M93.3002 109.353H91.2895C91.0157 109.353 90.7845 109.65 90.7703 110.014L90.152 125.042C90.152 125.406 90.3502 125.703 90.624 125.703H92.63C92.9037 125.703 93.135 125.406 93.1539 125.042L93.7817 110.014C93.7817 109.65 93.574 109.353 93.3002 109.353Z" fill="#F0F0F0"/>
<path id="Vector_105" d="M70.7339 125.703H77.677V108.131H70.7339V125.703Z" fill="#C7C7C7"/>
<path id="Vector_106" d="M78.3048 108.126H77.2051C76.9314 108.126 76.7095 108.348 76.7095 108.621V125.203C76.7095 125.476 76.9314 125.698 77.2051 125.698H78.3048C78.5785 125.698 78.8004 125.476 78.8004 125.203V108.621C78.8004 108.348 78.5785 108.126 78.3048 108.126Z" fill="#F0F0F0"/>
<path id="Vector_107" d="M64.9519 125.703H72.603V106.337H64.9519V125.703Z" fill="#FAFAFA"/>
<path id="Vector_108" d="M73.2922 106.332H72.0839C71.7815 106.332 71.5364 106.577 71.5364 106.88V125.151C71.5364 125.453 71.7815 125.698 72.0839 125.698H73.2922C73.5946 125.698 73.8397 125.453 73.8397 125.151V106.88C73.8397 106.577 73.5946 106.332 73.2922 106.332Z" fill="#F5F5F5"/>
<path id="Vector_109" d="M62.9932 106.332H69.5964L69.0725 125.703H62.9932V106.332Z" fill="#FAFAFA"/>
<path id="Vector_110" d="M70.4507 106.332H68.912C68.7043 106.332 68.5203 106.681 68.5108 107.116L68.0388 124.92C68.0388 125.349 68.1851 125.703 68.3975 125.703H69.941C70.1487 125.703 70.328 125.349 70.3422 124.92L70.8142 107.116C70.8 106.672 70.6584 106.332 70.4507 106.332Z" fill="#C7C7C7"/>
<path id="Vector_111" d="M38.789 180.493H47.2047V161.127H38.789V180.493Z" fill="#FAFAFA"/>
<path id="Vector_112" d="M47.9929 161.122H46.6005C46.2851 161.122 46.0294 161.378 46.0294 161.693V179.917C46.0294 180.232 46.2851 180.488 46.6005 180.488H47.9929C48.3084 180.488 48.5641 180.232 48.5641 179.917V161.693C48.5641 161.378 48.3084 161.122 47.9929 161.122Z" fill="#F0F0F0"/>
<path id="Vector_113" d="M35.9617 180.493H44.3774V161.127H35.9617V180.493Z" fill="#FAFAFA"/>
<path id="Vector_114" d="M45.1609 161.122H43.7685C43.4531 161.122 43.1974 161.378 43.1974 161.693V179.917C43.1974 180.232 43.4531 180.488 43.7685 180.488H45.1609C45.4763 180.488 45.732 180.232 45.732 179.917V161.693C45.732 161.378 45.4763 161.122 45.1609 161.122Z" fill="#E6E6E6"/>
<path id="Vector_115" d="M33.8047 161.127H41.064L40.4882 180.493H33.8047V161.127Z" fill="#FAFAFA"/>
<path id="Vector_116" d="M42.0079 161.122H40.3087C40.0775 161.122 39.8792 161.476 39.8651 161.905L39.3364 179.709C39.3364 180.144 39.5016 180.493 39.7329 180.493H41.4274C41.6587 180.493 41.8569 180.144 41.8711 179.709L42.3997 161.896C42.4139 161.476 42.2345 161.122 42.0079 161.122Z" fill="#FFA500" fill-opacity="0.27"/>
<path id="Vector_117" d="M109.202 180.493H117.976V164.143H109.202V180.493Z" fill="#FAFAFA"/>
<path id="Vector_118" d="M118.854 164.143H117.287C116.99 164.143 116.749 164.384 116.749 164.681V179.955C116.749 180.252 116.99 180.493 117.287 180.493H118.854C119.151 180.493 119.392 180.252 119.392 179.955V164.681C119.392 164.384 119.151 164.143 118.854 164.143Z" fill="#F0F0F0"/>
<path id="Vector_119" d="M106.247 180.493H115.022V164.143H106.247V180.493Z" fill="#FAFAFA"/>
<path id="Vector_120" d="M115.9 164.143H114.333C114.035 164.143 113.794 164.384 113.794 164.681V179.955C113.794 180.252 114.035 180.493 114.333 180.493H115.9C116.197 180.493 116.438 180.252 116.438 179.955V164.681C116.438 164.384 116.197 164.143 115.9 164.143Z" fill="#E6E6E6"/>
<path id="Vector_121" d="M104 164.143H111.571L110.967 180.493H104V164.143Z" fill="#FAFAFA"/>
<path id="Vector_122" d="M112.553 164.143H110.783C110.542 164.143 110.311 164.44 110.311 164.804L109.768 179.832C109.768 180.195 109.938 180.493 110.179 180.493H111.949C112.19 180.493 112.397 180.195 112.421 179.832L112.973 164.804C112.978 164.44 112.808 164.143 112.553 164.143Z" fill="#C7C7C7"/>
<path id="Vector_123" d="M97.8834 180.493H106.658V164.143H97.8834V180.493Z" fill="#FAFAFA"/>
<path id="Vector_124" d="M107.536 164.143H105.969C105.672 164.143 105.431 164.384 105.431 164.681V179.955C105.431 180.252 105.672 180.493 105.969 180.493H107.536C107.833 180.493 108.074 180.252 108.074 179.955V164.681C108.074 164.384 107.833 164.143 107.536 164.143Z" fill="#FFA500" fill-opacity="0.27"/>
<path id="Vector_125" d="M94.9286 180.493H103.703V164.143H94.9286V180.493Z" fill="#FAFAFA"/>
<path id="Vector_126" d="M104.581 164.143H103.014C102.717 164.143 102.476 164.384 102.476 164.681V179.955C102.476 180.252 102.717 180.493 103.014 180.493H104.581C104.878 180.493 105.119 180.252 105.119 179.955V164.681C105.119 164.384 104.878 164.143 104.581 164.143Z" fill="#E6E6E6"/>
<path id="Vector_127" d="M92.6819 164.143H100.253L99.6533 180.493H92.6819V164.143Z" fill="#C7C7C7"/>
<path id="Vector_128" d="M101.235 164.143H99.4646C99.2238 164.143 99.0162 164.44 98.9926 164.804L98.4498 179.832C98.4498 180.195 98.6197 180.493 98.8604 180.493H100.63C100.871 180.493 101.102 180.195 101.102 179.832L101.655 164.804C101.659 164.44 101.48 164.143 101.235 164.143Z" fill="#F0F0F0"/>
<path id="Vector_129" d="M88.8729 180.493H94.99V162.92H88.8729V180.493Z" fill="#FAFAFA"/>
<path id="Vector_130" d="M94.6029 162.92H95.5139C95.6391 162.92 95.7591 162.97 95.8476 163.059C95.9362 163.147 95.9859 163.267 95.9859 163.392V180.035C95.9859 180.16 95.9362 180.28 95.8476 180.369C95.7591 180.457 95.6391 180.507 95.5139 180.507H94.6029C94.4777 180.507 94.3577 180.457 94.2692 180.369C94.1807 180.28 94.1309 180.16 94.1309 180.035V163.383C94.1334 163.259 94.1842 163.142 94.2725 163.055C94.3607 162.969 94.4794 162.92 94.6029 162.92Z" fill="#F0F0F0"/>
<path id="Vector_131" d="M83.78 180.493H90.5201V161.127H83.78V180.493Z" fill="#FAFAFA"/>
<path id="Vector_132" d="M91.0913 161.122H90.0907C89.8065 161.122 89.5762 161.352 89.5762 161.636V179.974C89.5762 180.258 89.8065 180.488 90.0907 180.488H91.0913C91.3754 180.488 91.6058 180.258 91.6058 179.974V161.636C91.6058 161.352 91.3754 161.122 91.0913 161.122Z" fill="#F5F5F5"/>
<path id="Vector_133" d="M82.0525 161.127H87.8723L87.4097 180.493H82.0525V161.127Z" fill="#FAFAFA"/>
<path id="Vector_134" d="M88.6228 161.122H87.2634C87.0793 161.122 86.9189 161.476 86.9094 161.905L86.4846 179.709C86.4846 180.144 86.6168 180.493 86.8009 180.493H88.1602C88.3443 180.493 88.5048 180.144 88.5142 179.709L88.939 161.905C88.9485 161.476 88.8069 161.122 88.6228 161.122Z" fill="#F0F0F0"/>
<path id="Vector_135" d="M76.5631 154.212H89.6989V134.846H76.5631V154.212Z" fill="#FAFAFA"/>
<path id="Vector_136" d="M91.1007 134.841H88.5802C88.184 134.841 87.8628 135.162 87.8628 135.558V153.49C87.8628 153.886 88.184 154.207 88.5802 154.207H91.1007C91.4969 154.207 91.8182 153.886 91.8182 153.49V135.558C91.8182 135.162 91.4969 134.841 91.1007 134.841Z" fill="#F0F0F0"/>
<path id="Vector_137" d="M72.1452 154.212H85.281V134.846H72.1452V154.212Z" fill="#FAFAFA"/>
<path id="Vector_138" d="M86.6781 134.841H84.1576C83.7614 134.841 83.4402 135.162 83.4402 135.558V153.49C83.4402 153.886 83.7614 154.207 84.1576 154.207H86.6781C87.0743 154.207 87.3955 153.886 87.3955 153.49V135.558C87.3955 135.162 87.0743 134.841 86.6781 134.841Z" fill="#E6E6E6"/>
<path id="Vector_139" d="M68.7799 134.841H80.1126L79.2111 154.212H68.7799V134.841Z" fill="#FAFAFA"/>
<path id="Vector_140" d="M81.5805 134.841H78.9326C78.7403 134.861 78.5626 134.953 78.4349 135.098C78.3072 135.243 78.2389 135.431 78.2435 135.625L77.408 153.428C77.3948 153.521 77.4006 153.615 77.4248 153.705C77.4491 153.795 77.4915 153.879 77.5493 153.953C77.6071 154.026 77.6792 154.087 77.7612 154.131C77.8432 154.176 77.9334 154.203 78.0264 154.212H80.6743C80.8662 154.191 81.0432 154.099 81.1707 153.954C81.2982 153.809 81.3669 153.621 81.3634 153.428L82.1894 135.625C82.2026 135.533 82.1972 135.439 82.1735 135.35C82.1498 135.26 82.1083 135.177 82.0515 135.103C81.9946 135.03 81.9236 134.969 81.8427 134.924C81.7618 134.879 81.6726 134.851 81.5805 134.841Z" fill="#FFA500" fill-opacity="0.27"/>
<path id="Vector_141" d="M96.6986 154.207H104.746V137.857H96.6986V154.207Z" fill="#FAFAFA"/>
<path id="Vector_142" d="M105.53 137.862H104.137C103.853 137.862 103.623 138.092 103.623 138.376V153.697C103.623 153.982 103.853 154.212 104.137 154.212H105.53C105.814 154.212 106.044 153.982 106.044 153.697V138.376C106.044 138.092 105.814 137.862 105.53 137.862Z" fill="#FFA500" fill-opacity="0.27"/>
<path id="Vector_143" d="M93.9894 154.207H102.037V137.857H93.9894V154.207Z" fill="#FAFAFA"/>
<path id="Vector_144" d="M102.821 137.862H101.428C101.144 137.862 100.914 138.092 100.914 138.376V153.697C100.914 153.982 101.144 154.212 101.428 154.212H102.821C103.105 154.212 103.335 153.982 103.335 153.697V138.376C103.335 138.092 103.105 137.862 102.821 137.862Z" fill="#E6E6E6"/>
<path id="Vector_145" d="M91.9268 137.862H98.8746L98.3224 154.212H91.9268V137.862Z" fill="#FAFAFA"/>
<path id="Vector_146" d="M99.7714 137.862H98.1477C97.9258 137.862 97.737 138.159 97.7276 138.523L97.232 153.551C97.232 153.914 97.3878 154.212 97.6096 154.212H99.2333C99.4551 154.212 99.6439 153.914 99.6534 153.551L100.163 138.523C100.163 138.159 99.9932 137.862 99.7714 137.862Z" fill="#C7C7C7"/>
<path id="Vector_147" d="M110.127 154.212H116.792V140.67H110.127V154.212Z" fill="#FAFAFA"/>
<path id="Vector_148" d="M117.438 140.665H116.282C116.047 140.665 115.857 140.856 115.857 141.09V153.782C115.857 154.017 116.047 154.207 116.282 154.207H117.438C117.673 154.207 117.863 154.017 117.863 153.782V141.09C117.863 140.856 117.673 140.665 117.438 140.665Z" fill="#C7C7C7"/>
<path id="Vector_149" d="M107.88 154.212H114.545V140.67H107.88V154.212Z" fill="#FAFAFA"/>
<path id="Vector_150" d="M115.196 140.665H114.04C113.805 140.665 113.615 140.856 113.615 141.09V153.782C113.615 154.017 113.805 154.207 114.04 154.207H115.196C115.431 154.207 115.621 154.017 115.621 153.782V141.09C115.621 140.856 115.431 140.665 115.196 140.665Z" fill="#E6E6E6"/>
<path id="Vector_151" d="M106.172 140.665H111.925L111.468 154.212H106.172V140.665Z" fill="#FAFAFA"/>
<path id="Vector_152" d="M112.671 140.656H111.326C111.142 140.656 110.986 140.901 110.977 141.204L110.557 153.655C110.557 153.957 110.684 154.202 110.868 154.202H112.213C112.393 154.202 112.553 153.957 112.563 153.655L112.983 141.204C112.992 140.911 112.851 140.656 112.671 140.656Z" fill="#F0F0F0"/>
<path id="Vector_153" d="M55.5072 154.207H65.4664V137.857H55.5072V154.207Z" fill="#FAFAFA"/>
<path id="Vector_154" d="M66.5048 137.862H64.6499C64.3344 137.862 64.0787 138.117 64.0787 138.433V153.641C64.0787 153.956 64.3344 154.212 64.6499 154.212H66.5048C66.8202 154.212 67.0759 153.956 67.0759 153.641V138.433C67.0759 138.117 66.8202 137.862 66.5048 137.862Z" fill="#F0F0F0"/>
<path id="Vector_155" d="M52.1607 154.207H62.1199V137.857H52.1607V154.207Z" fill="#FAFAFA"/>
<path id="Vector_156" d="M63.1489 137.862H61.2939C60.9785 137.862 60.7228 138.117 60.7228 138.433V153.641C60.7228 153.956 60.9785 154.212 61.2939 154.212H63.1489C63.4643 154.212 63.72 153.956 63.72 153.641V138.433C63.72 138.117 63.4643 137.862 63.1489 137.862Z" fill="#FFA500" fill-opacity="0.27"/>
<path id="Vector_157" d="M49.6072 137.862H58.2023L57.5179 154.212H49.6072V137.862Z" fill="#C7C7C7"/>
<path id="Vector_158" d="M59.3115 137.862H57.3055C57.1517 137.887 57.0129 137.969 56.9161 138.091C56.8192 138.213 56.7713 138.367 56.7816 138.523L56.168 153.551C56.168 153.914 56.3615 154.212 56.64 154.212H58.646C58.7998 154.186 58.9386 154.105 59.0354 153.983C59.1322 153.86 59.1802 153.707 59.1699 153.551L59.7977 138.523C59.7977 138.159 59.5853 137.862 59.3115 137.862Z" fill="#F0F0F0"/>
<path id="Vector_159" d="M41.5454 154.212H48.4885V136.639H41.5454V154.212Z" fill="#FAFAFA"/>
<path id="Vector_160" d="M49.1116 136.635H48.0118C47.7381 136.635 47.5162 136.856 47.5162 137.13V153.712C47.5162 153.985 47.7381 154.207 48.0118 154.207H49.1116C49.3853 154.207 49.6072 153.985 49.6072 153.712V137.13C49.6072 136.856 49.3853 136.635 49.1116 136.635Z" fill="#F0F0F0"/>
<path id="Vector_161" d="M35.7634 154.212H43.4146V134.846H35.7634V154.212Z" fill="#FAFAFA"/>
<path id="Vector_162" d="M44.099 134.841H42.8907C42.5883 134.841 42.3431 135.086 42.3431 135.389V153.66C42.3431 153.962 42.5883 154.207 42.8907 154.207H44.099C44.4014 154.207 44.6465 153.962 44.6465 153.66V135.389C44.6465 135.086 44.4014 134.841 44.099 134.841Z" fill="#FFA500" fill-opacity="0.27"/>
<path id="Vector_163" d="M33.8047 134.841H40.408L39.884 154.212H33.8047V134.841Z" fill="#C7C7C7"/>
<path id="Vector_164" d="M41.2622 134.841H39.7188C39.5064 134.841 39.327 135.195 39.3176 135.625L38.8456 153.428C38.8456 153.858 38.9966 154.212 39.209 154.212H40.7336C40.946 154.212 41.1253 153.858 41.1348 153.428L41.6068 135.625C41.6304 135.195 41.4699 134.841 41.2622 134.841Z" fill="#F0F0F0"/>
<path id="Vector_165" d="M72.8485 180.493H82.5858V159.574H72.8485V180.493Z" fill="#FAFAFA"/>
<path id="Vector_166" d="M83.5156 159.574H81.8684C81.5138 159.574 81.2264 159.861 81.2264 160.216V179.851C81.2264 180.205 81.5138 180.493 81.8684 180.493H83.5156C83.8702 180.493 84.1576 180.205 84.1576 179.851V160.216C84.1576 159.861 83.8702 159.574 83.5156 159.574Z" fill="#F0F0F0"/>
<path id="Vector_167" d="M69.5728 180.493H79.3102V159.574H69.5728V180.493Z" fill="#FAFAFA"/>
<path id="Vector_168" d="M80.2352 159.574H78.588C78.2334 159.574 77.946 159.861 77.946 160.216V179.851C77.946 180.205 78.2334 180.493 78.588 180.493H80.2352C80.5898 180.493 80.8772 180.205 80.8772 179.851V160.216C80.8772 159.861 80.5898 159.574 80.2352 159.574Z" fill="#E6E6E6"/>
<path id="Vector_169" d="M67.0759 159.574H75.4775L74.812 180.493H67.0759V159.574Z" fill="#FFA500" fill-opacity="0.27"/>
<path id="Vector_170" d="M76.5678 159.574H74.6043C74.3352 159.574 74.104 159.951 74.0898 160.419L73.4762 179.648C73.4762 180.12 73.665 180.493 73.9482 180.493H75.9117C76.1808 180.493 76.3837 180.115 76.4215 179.648L77.0351 160.419C77.0398 159.951 76.8321 159.574 76.5678 159.574Z" fill="#F0F0F0"/>
<path id="Vector_171" d="M58.3297 180.493H66.7455V162.283H58.3297V180.493Z" fill="#FAFAFA"/>
<path id="Vector_172" d="M67.5479 162.283H66.1272C65.8196 162.283 65.5702 162.532 65.5702 162.84V179.936C65.5702 180.243 65.8196 180.493 66.1272 180.493H67.5479C67.8555 180.493 68.1048 180.243 68.1048 179.936V162.84C68.1048 162.532 67.8555 162.283 67.5479 162.283Z" fill="#F0F0F0"/>
<path id="Vector_173" d="M55.4978 180.493H63.9136V162.283H55.4978V180.493Z" fill="#FAFAFA"/>
<path id="Vector_174" d="M64.716 162.283H63.2952C62.9876 162.283 62.7383 162.532 62.7383 162.84V179.936C62.7383 180.243 62.9876 180.493 63.2952 180.493H64.716C65.0236 180.493 65.2729 180.243 65.2729 179.936V162.84C65.2729 162.532 65.0236 162.283 64.716 162.283Z" fill="#E6E6E6"/>
<path id="Vector_175" d="M53.3455 162.283H60.6048L60.029 180.493H53.3455V162.283Z" fill="#C7C7C7"/>
<path id="Vector_176" d="M61.5441 162.283H59.8496C59.6184 162.283 59.4201 162.613 59.406 163.019L58.8773 179.757C58.8773 180.162 59.0378 180.493 59.2691 180.493H60.9683C61.1996 180.493 61.3978 180.162 61.4072 179.757L61.9406 163.019C61.9548 162.613 61.7754 162.283 61.5441 162.283Z" fill="#FFA500" fill-opacity="0.27"/>
</g>
<g id="freepik--Shadow--inject-89">
<path id="freepik--path--inject-89" d="M118 201.808C168.543 201.808 209.516 199.416 209.516 196.465C209.516 193.514 168.543 191.122 118 191.122C67.457 191.122 26.4839 193.514 26.4839 196.465C26.4839 199.416 67.457 201.808 118 201.808Z" fill="#F5F5F5"/>
</g>
<g id="freepik--Books--inject-89">
<path id="Vector_177" d="M108.621 195.229C108.669 195.374 108.681 195.529 108.655 195.68C108.629 195.831 108.567 195.974 108.475 196.095C108.382 196.217 108.261 196.314 108.122 196.379C107.983 196.443 107.83 196.473 107.677 196.465H41.9277C39.8745 196.465 39.8745 183.094 41.9277 183.094H107.696C107.849 183.086 108 183.116 108.139 183.18C108.277 183.244 108.398 183.341 108.491 183.462C108.584 183.583 108.646 183.725 108.672 183.876C108.698 184.026 108.687 184.18 108.64 184.325C107.819 186.874 107.819 192.685 108.621 195.229Z" fill="#407BFF"/>
<path id="Vector_178" opacity="0.8" d="M108.527 184.656H68.6288C67.057 184.656 67.057 194.903 68.6288 194.903H108.527C107.852 192.331 107.852 187.224 108.527 184.656Z" fill="white"/>
<path id="Vector_179" opacity="0.2" d="M66.6416 195.229C66.6893 195.374 66.7008 195.529 66.6753 195.68C66.6497 195.831 66.5878 195.974 66.4949 196.095C66.402 196.217 66.2808 196.314 66.142 196.379C66.0031 196.443 65.8506 196.473 65.6976 196.465H41.9277C39.8745 196.465 39.8745 183.094 41.9277 183.094H65.7165C65.8689 183.086 66.0208 183.116 66.1592 183.18C66.2976 183.244 66.4184 183.341 66.5111 183.462C66.6039 183.583 66.666 183.725 66.692 183.876C66.718 184.026 66.7072 184.18 66.6605 184.325C65.8392 186.874 65.8392 192.685 66.6416 195.229Z" fill="black"/>
<path id="Vector_180" d="M52.0662 183.094H46.6335C44.5803 183.094 44.5803 196.465 46.6335 196.465H52.0662C50.0319 196.465 50.0319 183.094 52.0662 183.094Z" fill="#407BFF"/>
<path id="Vector_181" d="M56.3473 183.094H54.2139C52.1607 183.094 52.1607 196.465 54.2139 196.465H56.3473C54.2799 196.465 54.2799 183.094 56.3473 183.094Z" fill="#407BFF"/>
<path id="Vector_182" d="M38.0951 181.984C37.8685 182.532 38.4255 183.094 39.1807 183.094H98.3128C100.725 183.094 100.725 171.072 98.3128 171.072H39.176C38.4208 171.072 37.8638 171.629 38.0904 172.181C39.0344 174.47 39.0344 179.695 38.0951 181.984Z" fill="#263238"/>
<path id="Vector_183" opacity="0.2" d="M38.0951 181.984C37.8685 182.532 38.4255 183.094 39.1807 183.094H68.1757C70.5876 183.094 70.5876 171.072 68.1757 171.072H39.176C38.4208 171.072 37.8638 171.629 38.0904 172.181C39.0344 174.47 39.0344 179.695 38.0951 181.984Z" fill="black"/>
<path id="Vector_184" opacity="0.8" d="M38.199 172.474H66.991C68.8365 172.474 68.8365 181.687 66.991 181.687H38.199C38.9919 179.36 38.9919 174.786 38.199 172.474Z" fill="white"/>
<path id="Vector_185" opacity="0.2" d="M76.5536 173.753C76.3743 173.219 76.8935 172.7 77.6109 172.7H94.1639C95.9198 172.7 95.9198 181.46 94.1639 181.46H77.6109C76.8935 181.46 76.3743 180.946 76.5536 180.413C77.1201 178.229 77.1201 175.937 76.5536 173.753Z" fill="white"/>
<path id="Vector_186" d="M196.225 176.618C196.277 176.777 196.292 176.947 196.268 177.113C196.245 177.28 196.184 177.438 196.089 177.577C195.995 177.716 195.87 177.832 195.724 177.915C195.578 177.998 195.415 178.047 195.247 178.057H125.769C123.598 178.057 123.598 162.481 125.769 162.481H195.247C195.412 162.493 195.573 162.541 195.716 162.623C195.86 162.705 195.983 162.818 196.077 162.954C196.171 163.09 196.233 163.245 196.259 163.409C196.284 163.572 196.272 163.739 196.225 163.897C195.38 166.895 195.38 173.658 196.225 176.618Z" fill="#407BFF"/>
<path id="Vector_187" opacity="0.5" d="M196.225 176.618C196.277 176.777 196.292 176.947 196.268 177.113C196.245 177.28 196.184 177.438 196.089 177.577C195.995 177.716 195.87 177.832 195.724 177.915C195.578 177.998 195.415 178.047 195.247 178.057H125.769C123.598 178.057 123.598 162.481 125.769 162.481H195.247C195.412 162.493 195.573 162.541 195.716 162.623C195.86 162.705 195.983 162.818 196.077 162.954C196.171 163.09 196.233 163.245 196.259 163.409C196.284 163.572 196.272 163.739 196.225 163.897C195.38 166.895 195.38 173.658 196.225 176.618Z" fill="white"/>
<path id="Vector_188" opacity="0.8" d="M196.13 164.313H153.976C152.314 164.313 152.314 176.235 153.976 176.235H196.13C195.408 173.248 195.408 167.305 196.13 164.313Z" fill="white"/>
<path id="Vector_189" opacity="0.6" d="M151.875 176.618C151.928 176.777 151.943 176.947 151.919 177.113C151.896 177.28 151.834 177.438 151.74 177.577C151.646 177.716 151.521 177.832 151.375 177.915C151.229 177.998 151.066 178.047 150.898 178.057H125.769C123.598 178.057 123.598 162.481 125.769 162.481H150.898C151.063 162.493 151.224 162.541 151.367 162.623C151.511 162.705 151.634 162.818 151.728 162.954C151.822 163.09 151.884 163.245 151.909 163.409C151.935 163.572 151.923 163.739 151.875 163.897C151.04 166.895 151.04 173.658 151.875 176.618Z" fill="#407BFF"/>
<path id="Vector_190" opacity="0.5" d="M141.68 163.647C141.729 163.525 141.749 163.393 141.738 163.262C141.727 163.131 141.686 163.005 141.617 162.893C141.548 162.781 141.454 162.686 141.342 162.617C141.23 162.548 141.103 162.507 140.972 162.495H131.391C129.219 162.495 129.219 178.071 131.391 178.071H140.972C141.103 178.06 141.23 178.017 141.342 177.948C141.454 177.878 141.548 177.784 141.617 177.671C141.686 177.559 141.727 177.432 141.738 177.301C141.749 177.169 141.729 177.037 141.68 176.915C140.713 174.022 140.713 166.531 141.68 163.647Z" fill="white"/>
<path id="Vector_191" d="M191.24 194.752C191.296 194.959 191.302 195.176 191.257 195.386C191.212 195.596 191.118 195.792 190.983 195.958C190.847 196.124 190.674 196.255 190.477 196.341C190.281 196.427 190.067 196.465 189.853 196.451H117.665C114.583 196.451 114.578 178.043 117.665 178.043H189.881C190.095 178.03 190.309 178.068 190.505 178.153C190.702 178.239 190.875 178.37 191.011 178.537C191.146 178.703 191.241 178.899 191.285 179.108C191.33 179.318 191.324 179.535 191.269 179.742C190.037 183.249 190.041 191.25 191.24 194.752Z" fill="#407BFF"/>
<path id="Vector_192" opacity="0.2" d="M191.24 194.752C191.296 194.959 191.302 195.176 191.257 195.386C191.212 195.596 191.118 195.792 190.983 195.958C190.847 196.124 190.674 196.255 190.477 196.341C190.281 196.427 190.067 196.465 189.853 196.451H117.665C114.583 196.451 114.578 178.043 117.665 178.043H189.881C190.095 178.03 190.309 178.068 190.505 178.153C190.702 178.239 190.875 178.37 191.011 178.537C191.146 178.703 191.241 178.899 191.285 179.108C191.33 179.318 191.324 179.535 191.269 179.742C190.037 183.249 190.041 191.25 191.24 194.752Z" fill="white"/>
<path id="Vector_193" opacity="0.8" d="M191.099 180.195H147.453C145.093 180.195 145.093 194.299 147.453 194.299H191.103C190.093 190.764 190.093 183.735 191.099 180.195Z" fill="white"/>
<path id="Vector_194" opacity="0.6" d="M144.47 194.761C144.527 194.968 144.533 195.185 144.489 195.395C144.445 195.605 144.351 195.801 144.216 195.967C144.081 196.134 143.908 196.265 143.711 196.351C143.515 196.437 143.301 196.474 143.087 196.461H117.665C114.583 196.461 114.578 178.053 117.665 178.053H143.087C143.301 178.039 143.515 178.077 143.711 178.163C143.908 178.249 144.081 178.38 144.217 178.546C144.352 178.712 144.446 178.908 144.491 179.118C144.536 179.327 144.53 179.545 144.474 179.752C143.271 183.259 143.271 191.254 144.47 194.761Z" fill="#407BFF"/>
<path id="Vector_195" opacity="0.5" d="M129.243 178.694C129.282 178.627 129.302 178.55 129.301 178.472C129.299 178.394 129.276 178.318 129.234 178.252C129.192 178.186 129.133 178.133 129.063 178.099C128.993 178.064 128.915 178.05 128.837 178.057H124.518C121.441 178.057 121.441 196.465 124.518 196.465H128.856C128.934 196.472 129.012 196.458 129.082 196.424C129.152 196.389 129.211 196.336 129.253 196.271C129.295 196.205 129.318 196.129 129.32 196.051C129.321 195.972 129.301 195.896 129.262 195.828C127.388 192.982 127.388 181.536 129.243 178.694Z" fill="white"/>
<path id="Vector_196" opacity="0.5" d="M135.983 178.694C136.022 178.627 136.042 178.55 136.04 178.472C136.038 178.393 136.015 178.317 135.974 178.251C135.932 178.185 135.873 178.132 135.803 178.097C135.733 178.062 135.655 178.047 135.577 178.053H131.258C128.181 178.053 128.181 196.461 131.258 196.461H135.577C135.655 196.467 135.732 196.452 135.802 196.417C135.871 196.382 135.93 196.329 135.971 196.263C136.012 196.198 136.035 196.122 136.036 196.044C136.037 195.967 136.018 195.89 135.978 195.823C134.128 192.982 134.128 181.531 135.983 178.694Z" fill="white"/>
<path id="Vector_197" d="M190.532 152.701C190.449 151.391 190.14 150.104 189.621 148.897L190.046 148.689C190.586 149.947 190.905 151.288 190.99 152.654L190.532 152.701Z" fill="#407BFF"/>
<path id="Vector_198" d="M187.573 146.853H175.848V147.325H187.573V146.853Z" fill="#407BFF"/>
<path id="Vector_199" d="M111.161 161.207C110.92 161.849 111.51 162.495 112.308 162.495H187.573C190.117 162.495 190.117 148.505 187.573 148.505H112.308C111.51 148.505 110.92 149.157 111.161 149.799C112.152 152.456 112.152 158.54 111.161 161.207Z" fill="#407BFF"/>
<path id="Vector_200" opacity="0.2" d="M111.161 161.207C110.92 161.849 111.51 162.495 112.308 162.495H155.732C158.28 162.495 158.28 148.505 155.732 148.505H112.308C111.51 148.505 110.92 149.157 111.161 149.799C112.152 152.456 112.152 158.54 111.161 161.207Z" fill="black"/>
<path id="Vector_201" opacity="0.8" d="M111.274 150.143H154.471C156.425 150.143 156.425 160.862 154.471 160.862H111.274C112.109 158.172 112.109 152.834 111.274 150.143Z" fill="white"/>
<path id="Vector_202" opacity="0.2" d="M164.582 151.625C164.393 151.007 164.94 150.408 165.696 150.408H183.188C185.043 150.408 185.043 160.598 183.188 160.598H165.696C164.94 160.598 164.393 159.999 164.582 159.376C165.2 157.417 165.2 153.589 164.582 151.625Z" fill="white"/>
</g>
<g id="freepik--Character--inject-89">
<path id="Vector_203" d="M104.123 46.256C101.994 48.5357 96.7978 46.256 96.0048 52.5336C95.1458 59.3021 98.4026 62.5541 94.197 64.3336C87.589 67.0948 82.869 78.1301 92.0447 82.2696C101.22 86.409 120.761 82.0713 118.562 73.6367C116.362 65.2021 116.796 60.6756 119.392 56.7013C122.814 51.448 122.083 44.6984 119.293 42.2534C114.951 38.4302 108.952 41.064 104.123 46.256Z" fill="#263238"/>
<path id="Vector_204" d="M115.48 73.4102C115.444 73.4116 115.408 73.3991 115.381 73.3755C115.354 73.3518 115.337 73.3186 115.333 73.2827C115.33 73.2638 115.33 73.2443 115.335 73.2256C115.339 73.2068 115.348 73.1892 115.359 73.1737C115.371 73.1582 115.385 73.1453 115.402 73.1356C115.418 73.126 115.437 73.1198 115.456 73.1175C117.278 72.8674 118.364 72.419 118.873 71.7015C119.506 70.8095 119.232 69.4831 118.873 67.8028C118.316 65.0699 117.547 61.327 120.001 56.5975C122.98 50.8627 121.889 44.5757 119.1 42.5178C119.069 42.4951 119.048 42.4611 119.042 42.4231C119.035 42.3851 119.044 42.3462 119.067 42.3148C119.09 42.2834 119.125 42.2624 119.164 42.2562C119.203 42.25 119.242 42.2592 119.274 42.2818C122.182 44.4105 123.305 50.8674 120.261 56.7344C117.858 61.3694 118.614 65.0558 119.161 67.7462C119.52 69.4926 119.803 70.8755 119.095 71.8715C118.538 72.6597 117.391 73.1459 115.484 73.4102H115.48Z" fill="#263238"/>
<path id="Vector_205" d="M91.6813 65.2351C91.3831 65.2339 91.0852 65.215 90.7892 65.1785C90.7699 65.1761 90.7513 65.17 90.7344 65.1604C90.7175 65.1508 90.7027 65.138 90.6909 65.1226C90.679 65.1072 90.6703 65.0896 90.6653 65.0709C90.6603 65.0521 90.6591 65.0325 90.6618 65.0133C90.6641 64.994 90.6702 64.9754 90.6798 64.9585C90.6894 64.9416 90.7023 64.9268 90.7177 64.9149C90.733 64.9031 90.7506 64.8944 90.7694 64.8894C90.7882 64.8844 90.8077 64.8832 90.827 64.8858C92.1674 65.051 93.1398 64.8528 93.7958 64.277C95.023 63.1961 95.0419 60.9352 95.0561 58.3156C95.0561 55.3514 95.0986 51.9955 97.0196 49.7063C97.032 49.6914 97.0472 49.6792 97.0644 49.6702C97.0815 49.6612 97.1003 49.6556 97.1195 49.6539C97.1388 49.6521 97.1583 49.6542 97.1768 49.6599C97.1952 49.6657 97.2124 49.675 97.2273 49.6874C97.2422 49.6998 97.2545 49.715 97.2634 49.7322C97.2724 49.7493 97.278 49.7681 97.2797 49.7874C97.2815 49.8066 97.2794 49.8261 97.2737 49.8446C97.2679 49.8631 97.2586 49.8802 97.2462 49.8951C95.3912 52.1041 95.3582 55.4034 95.3582 58.3203C95.3582 61.006 95.3251 63.3282 93.9988 64.4988C93.3448 65.0241 92.5185 65.2866 91.6813 65.2351Z" fill="#263238"/>
<path id="Vector_206" d="M138.008 148.496C134.86 148.458 133.623 148.26 132.174 148.284C130.725 148.307 130.381 148.562 128.87 148.496C127.851 148.453 127.846 147.24 128.238 146.41C128.545 145.758 128.922 145.102 129.271 144.29L133.265 144.583C133.803 146.103 136.474 146.754 138.815 147.292C139.745 147.514 139.268 148.51 138.008 148.496Z" fill="#407BFF"/>
<path id="Vector_207" d="M117.188 90.5107C117.188 90.5107 127.752 99.5967 138.428 109.235C142.941 113.318 133.477 144.446 133.477 144.446C133.279 145.112 129.758 144.163 129.229 143.639C129.229 143.639 128.691 119.477 130.98 114.611C107.305 108.626 103.604 97.0007 103.604 97.0007L105.303 89.7886L117.188 90.5107Z" fill="#263238"/>
<path id="Vector_208" opacity="0.2" d="M105.166 99.8657C106.492 101.718 108.062 103.382 109.834 104.812C112.194 102.051 111.534 97.5907 111.534 97.5907L105.166 99.8657Z" fill="black"/>
<path id="Vector_209" d="M134.298 143.101C134.232 143.573 134.119 144.408 134.058 145.027C134.048 145.127 134.001 145.22 133.925 145.286C133.85 145.353 133.752 145.388 133.652 145.385C132.072 145.262 130.508 144.99 128.979 144.574C128.905 144.553 128.84 144.51 128.793 144.449C128.746 144.389 128.721 144.315 128.719 144.238L128.686 142.516C128.686 142.46 128.697 142.404 128.72 142.353C128.742 142.302 128.775 142.256 128.817 142.218C128.858 142.18 128.907 142.151 128.96 142.133C129.013 142.116 129.069 142.109 129.125 142.114L133.996 142.704C134.042 142.71 134.087 142.724 134.128 142.747C134.168 142.77 134.204 142.801 134.232 142.838C134.26 142.875 134.281 142.918 134.292 142.963C134.303 143.008 134.306 143.055 134.298 143.101Z" fill="#263238"/>
<path id="Vector_210" opacity="0.3" d="M134.298 143.101C134.232 143.573 134.119 144.408 134.058 145.027C134.048 145.127 134.001 145.22 133.925 145.286C133.85 145.353 133.752 145.388 133.652 145.385C132.072 145.262 130.508 144.99 128.979 144.574C128.905 144.553 128.84 144.51 128.793 144.449C128.746 144.389 128.721 144.315 128.719 144.238L128.686 142.516C128.686 142.46 128.697 142.404 128.72 142.353C128.742 142.302 128.775 142.256 128.817 142.218C128.858 142.18 128.907 142.151 128.96 142.133C129.013 142.116 129.069 142.109 129.125 142.114L133.996 142.704C134.042 142.71 134.087 142.724 134.128 142.747C134.168 142.77 134.204 142.801 134.232 142.838C134.26 142.875 134.281 142.918 134.292 142.963C134.303 143.008 134.306 143.055 134.298 143.101Z" fill="white"/>
<path id="Vector_211" d="M91.7899 171.072C88.5897 171.072 87.5419 169.868 85.753 169.538C84.2426 169.255 83.8414 169.387 82.6237 169.174C81.6041 168.995 81.5239 168.296 82.1517 167.263C82.5612 166.548 82.9086 165.8 83.1901 165.025L88.0422 165.346C88.5473 166.644 89.7131 169.283 91.4925 169.594C93.1681 169.92 93.0643 171.072 91.7899 171.072Z" fill="#407BFF"/>
<path id="Vector_212" d="M116.457 90.4824C116.457 90.4824 105.294 110.33 100.8 122.607C96.0803 135.502 88.5661 156.591 88.0233 165.346C87.2209 165.729 84.5871 165.582 83.1711 165.025C83.1711 165.025 81.859 134.817 90.945 122.715C93.1114 96.7977 96.7081 92.6536 100.531 89.4959L116.457 90.4824Z" fill="#263238"/>
<path id="Vector_213" d="M88.6086 163.557C88.5506 164.155 88.5349 164.756 88.5614 165.356C88.5679 165.46 88.5328 165.563 88.4638 165.642C88.3949 165.72 88.2976 165.769 88.1932 165.776C86.3855 165.941 83.865 165.36 83.0673 165.162C82.9932 165.144 82.9272 165.101 82.8794 165.042C82.8317 164.982 82.8048 164.908 82.803 164.832L82.7416 163.142C82.7408 163.086 82.7516 163.031 82.7732 162.98C82.7948 162.929 82.8268 162.883 82.8672 162.845C82.9076 162.807 82.9554 162.777 83.0078 162.759C83.0601 162.74 83.1157 162.732 83.1711 162.736L88.2876 163.175C88.334 163.179 88.3792 163.191 88.4205 163.213C88.4619 163.234 88.4986 163.263 88.5285 163.299C88.5584 163.334 88.5808 163.376 88.5946 163.42C88.6084 163.464 88.6131 163.511 88.6086 163.557Z" fill="#263238"/>
<path id="Vector_214" opacity="0.3" d="M88.6086 163.557C88.5506 164.155 88.5349 164.756 88.5614 165.356C88.5679 165.46 88.5328 165.563 88.4638 165.642C88.3949 165.72 88.2976 165.769 88.1932 165.776C86.3855 165.941 83.865 165.36 83.0673 165.162C82.9932 165.144 82.9272 165.101 82.8794 165.042C82.8317 164.982 82.8048 164.908 82.803 164.832L82.7416 163.142C82.7408 163.086 82.7516 163.031 82.7732 162.98C82.7948 162.929 82.8268 162.883 82.8672 162.845C82.9076 162.807 82.9554 162.777 83.0078 162.759C83.0601 162.74 83.1157 162.732 83.1711 162.736L88.2876 163.175C88.334 163.179 88.3792 163.191 88.4205 163.213C88.4619 163.234 88.4986 163.263 88.5285 163.299C88.5584 163.334 88.5808 163.376 88.5946 163.42C88.6084 163.464 88.6131 163.511 88.6086 163.557Z" fill="white"/>
<path id="Vector_215" d="M119.416 71.0124C119.888 71.9045 120.398 72.9004 120.917 73.8444C121.436 74.7884 121.96 75.7324 122.489 76.6528C123.555 78.5077 124.669 80.3249 125.864 82.0383L125.222 81.4672C125.695 81.8001 126.217 82.058 126.77 82.2318C127.438 82.4559 128.123 82.6263 128.818 82.7416C129.545 82.8737 130.3 82.9634 131.07 83.0342C131.839 83.105 132.646 83.1475 133.383 83.1947H133.482C133.788 83.2123 134.079 83.3361 134.304 83.5449C134.53 83.7536 134.675 84.0343 134.716 84.3387C134.757 84.643 134.69 84.9521 134.528 85.2128C134.365 85.4734 134.117 85.6694 133.826 85.7671C132.983 86.0477 132.12 86.2654 131.244 86.4185C130.365 86.5749 129.475 86.6711 128.582 86.7064C127.635 86.7427 126.686 86.6858 125.75 86.5365C124.694 86.3772 123.672 86.0388 122.729 85.5358C122.534 85.4288 122.359 85.2863 122.215 85.1157L122.088 84.9647C121.337 84.0679 120.605 83.1522 119.935 82.2129C119.265 81.2736 118.609 80.3249 118 79.3809C117.391 78.4369 116.801 77.4316 116.244 76.4357C115.687 75.4397 115.159 74.4532 114.654 73.3629C114.388 72.7434 114.37 72.0459 114.602 71.4132C114.834 70.7804 115.299 70.2602 115.901 69.9588C116.504 69.6574 117.199 69.5977 117.845 69.7917C118.49 69.9858 119.037 70.4191 119.374 71.0029L119.416 71.0124Z" fill="#FFB573"/>
<path id="Vector_216" d="M116.811 67.2034C119.893 68.2182 120.393 69.6011 122.083 74.7082C120.96 77.7714 116.419 79.3243 116.419 79.3243C116.419 79.3243 111.057 70.5923 116.811 67.2034Z" fill="#407BFF"/>
<path id="Vector_217" d="M121.03 73.8491C120.856 75.5388 120.421 77.5543 119.51 81.5144C118.802 84.875 118.793 91.4264 117.66 91.7709C115.484 92.8471 110.037 92.4317 100.531 89.4959C100.833 84.5871 101.405 81.2548 99.7714 69.9928C99.6686 69.4024 99.6988 68.7965 99.8597 68.2193C100.021 67.642 100.308 67.1078 100.701 66.6557C101.095 66.2036 101.584 65.8449 102.134 65.6057C102.683 65.3664 103.279 65.2527 103.878 65.2728C104.567 65.2728 105.294 65.3295 106.035 65.3956C108.649 65.5528 111.249 65.8983 113.813 66.4292C114.649 66.618 115.513 66.8399 116.334 67.0664C117.78 67.4795 119.039 68.3812 119.895 69.6179C120.751 70.8546 121.153 72.3498 121.03 73.8491Z" fill="#407BFF"/>
<path id="Vector_218" d="M87.7543 93.371L88.6983 92.5073C88.874 92.3467 89.0086 92.1463 89.0907 91.9229C89.1728 91.6995 89.2001 91.4596 89.1703 91.2234L88.9107 88.972C88.861 88.5295 88.7067 88.1052 88.4605 87.7342C88.2142 87.3632 87.8832 87.0562 87.4947 86.8386L87.0227 86.5695C85.3376 87.8958 84.4928 90.5674 84.4928 90.5674L84.1671 91.3037C84.0955 91.4525 84.0542 91.6141 84.0456 91.7791C84.0371 91.9441 84.0614 92.1091 84.1171 92.2646C84.1729 92.42 84.2591 92.5629 84.3705 92.6848C84.482 92.8067 84.6166 92.9052 84.7665 92.9746L86.2156 93.6354C86.4703 93.744 86.7509 93.7768 87.0239 93.7299C87.2968 93.683 87.5504 93.5584 87.7543 93.371Z" fill="#FFB573"/>
<path id="Vector_219" d="M137.3 82.0336L136.092 81.5616C135.868 81.4771 135.628 81.4476 135.39 81.4755C135.153 81.5034 134.926 81.588 134.728 81.7221L132.84 82.987C132.469 83.2363 132.164 83.5709 131.949 83.9627C131.735 84.3545 131.618 84.792 131.608 85.2385V85.8002C133.557 86.6875 136.328 86.2061 136.328 86.2061L137.13 86.1589C137.295 86.1534 137.458 86.1153 137.608 86.0467C137.758 85.9782 137.894 85.8805 138.006 85.7594C138.118 85.6382 138.205 85.4961 138.263 85.341C138.32 85.186 138.345 85.0212 138.339 84.8562L138.263 83.2655C138.241 82.9883 138.138 82.7237 137.967 82.5046C137.796 82.2855 137.564 82.1217 137.3 82.0336Z" fill="#FFB573"/>
<path id="Vector_220" d="M102.584 71.5127L101.98 71.7912L101.32 72.0932C100.881 72.3056 100.446 72.5275 100.012 72.754C99.1389 73.226 98.2893 73.698 97.4538 74.1936C96.6184 74.6892 95.8113 75.2415 95.0277 75.8032C94.2442 76.3648 93.5174 76.9784 92.8094 77.6062L93.1209 77.2097C92.8907 77.5482 92.6887 77.905 92.5167 78.2764C92.309 78.7059 92.1155 79.1732 91.9267 79.65C91.5491 80.594 91.181 81.604 90.8411 82.6188C90.5013 83.6336 90.1567 84.6626 89.8216 85.6916L88.8021 88.7926C88.7032 89.0972 88.4972 89.3555 88.2221 89.5196C87.9471 89.6837 87.6219 89.7424 87.3069 89.6847C86.9919 89.627 86.7086 89.4569 86.5096 89.206C86.3106 88.9551 86.2094 88.6405 86.2249 88.3206C86.2769 87.1831 86.3807 86.0786 86.5081 84.9647C86.6356 83.8507 86.7961 82.7416 86.9801 81.6276C87.1642 80.5137 87.4049 79.3951 87.7117 78.2623C87.8628 77.6959 88.028 77.1295 88.2357 76.5347C88.4551 75.8801 88.7364 75.2479 89.0758 74.6467C89.1354 74.5483 89.2033 74.4551 89.2788 74.3683L89.3921 74.2503C90.1696 73.3931 91.002 72.5874 91.8842 71.8383C92.7536 71.0994 93.6645 70.4108 94.6124 69.7757C95.5478 69.1416 96.5168 68.5587 97.5152 68.0293C98.0155 67.765 98.5206 67.5148 99.035 67.2694C99.2946 67.1514 99.5495 67.0287 99.8185 66.9154C100.088 66.8021 100.333 66.703 100.668 66.5756C101.311 66.3186 102.029 66.3245 102.667 66.5921C103.306 66.8596 103.814 67.3674 104.081 68.0058C104.349 68.6443 104.354 69.3623 104.097 70.0051C103.84 70.6479 103.341 71.1639 102.707 71.4419L102.584 71.5127Z" fill="#FFB573"/>
<path id="Vector_221" d="M107.144 66.5001C104.831 64.8433 103.425 64.664 97.8268 67.0948C97.1613 70.6159 99.3419 75.7843 99.3419 75.7843C99.3419 75.7843 106.79 71.9045 107.144 66.5001Z" fill="#407BFF"/>
<path id="Vector_222" d="M107.748 56.6919C108.093 59.2832 108.315 63.9796 106.464 65.4333C106.464 65.4333 108.881 65.3909 113.502 69.1716C115.234 67.2836 114.243 66.467 114.243 66.467C111.491 65.4239 111.685 63.3424 112.284 61.4402L107.748 56.6919Z" fill="#FFB573"/>
<path id="Vector_223" d="M112.525 68.4069C110.84 68.4069 109.985 70.8566 109.985 70.8566C109.985 70.8566 105.936 67.6281 105.383 65.3578C105.921 65.141 106.447 64.8968 106.96 64.6262C106.96 64.6262 111.685 67.3213 112.525 68.4069Z" fill="white"/>
<path id="Vector_224" d="M114.139 68.3456C114.139 68.3456 115.414 68.8176 115.834 70.7056C116.697 67.1089 115.012 66.5425 115.012 66.5425C114.59 66.2259 114.065 66.0778 113.54 66.1272C113.884 66.3677 114.133 66.7217 114.243 67.1274C114.352 67.533 114.316 67.9643 114.139 68.3456Z" fill="white"/>
<path id="Vector_225" opacity="0.2" d="M109.598 58.6271L112.279 61.4591C112.133 61.9018 112.028 62.3567 111.963 62.8184C110.906 62.5211 109.509 61.1476 109.462 59.9864C109.423 59.5288 109.469 59.0679 109.598 58.6271Z" fill="black"/>
<path id="Vector_226" d="M104.841 52.9206C105.785 56.9515 106.129 58.6743 108.551 60.5151C112.19 63.281 116.914 61.4874 117.169 57.315C117.396 53.539 115.782 47.5918 111.505 46.459C110.599 46.1865 109.637 46.161 108.717 46.385C107.798 46.6089 106.955 47.0743 106.276 47.7329C105.596 48.3916 105.105 49.2197 104.853 50.1317C104.601 51.0437 104.596 52.0065 104.841 52.9206Z" fill="#FFB573"/>
<path id="Vector_227" d="M105.629 55.8187C107.111 55.0918 108.683 51.5188 106.573 49.829C108.315 50.1547 110.311 49.6874 112.157 48.262C114.564 46.374 118.109 51.061 116.943 48.3092C115.262 44.3444 110.198 43.3532 105.615 46.6478C101.032 49.9423 101.357 53.9496 105.629 55.8187Z" fill="#263238"/>
<path id="Vector_228" d="M104.373 55.0116C104.357 55.0099 104.342 55.0032 104.33 54.9923C104.318 54.9815 104.31 54.9671 104.307 54.9512C104.304 54.9354 104.306 54.9189 104.313 54.9043C104.319 54.8897 104.331 54.8776 104.345 54.87C105.525 54.3602 110.533 53.2935 110.745 53.251C110.755 53.2482 110.765 53.2475 110.775 53.2489C110.785 53.2503 110.795 53.2538 110.803 53.2591C110.811 53.2645 110.819 53.2716 110.824 53.2799C110.83 53.2883 110.833 53.2977 110.835 53.3076C110.838 53.3263 110.834 53.3454 110.823 53.3611C110.813 53.3769 110.797 53.3881 110.778 53.3926C110.727 53.3926 105.586 54.5018 104.402 55.0068L104.373 55.0116Z" fill="white"/>
<path id="Vector_229" opacity="0.2" d="M110.448 53.336C109.942 53.1135 109.369 53.0999 108.853 53.2982C109.377 53.4143 109.919 53.4271 110.448 53.336Z" fill="black"/>
<path id="Vector_230" opacity="0.2" d="M110.406 53.6947C110.16 53.6429 109.906 53.6452 109.662 53.7014C109.417 53.7577 109.188 53.8665 108.99 54.0204C109.479 54.0126 109.962 53.9016 110.406 53.6947Z" fill="black"/>
<path id="Vector_231" d="M111.326 53.2793C111.392 53.6239 111.623 53.8788 111.845 53.8504C112.067 53.8221 112.19 53.5248 112.124 53.1802C112.058 52.8356 111.822 52.5855 111.604 52.6091C111.387 52.6327 111.26 52.9395 111.326 53.2793Z" fill="#263238"/>
<path id="Vector_232" d="M115.47 52.8309C115.536 53.1708 115.772 53.4256 115.989 53.402C116.206 53.3784 116.334 53.0716 116.268 52.7318C116.202 52.392 115.97 52.1324 115.749 52.1607C115.527 52.189 115.404 52.4864 115.47 52.8309Z" fill="#263238"/>
<path id="Vector_233" d="M115.64 52.1937L116.405 51.8539C116.405 51.8539 116.112 52.5477 115.64 52.1937Z" fill="#263238"/>
<path id="Vector_234" d="M114.696 53.487C115.105 54.257 115.609 54.9723 116.197 55.6157C116.036 55.7508 115.847 55.8485 115.644 55.9015C115.441 55.9546 115.228 55.9618 115.022 55.9225L114.696 53.487Z" fill="#ED893E"/>
<path id="Vector_235" d="M113.209 57.4471C113.399 57.4633 113.59 57.4633 113.78 57.4471C113.793 57.4454 113.806 57.4411 113.817 57.4344C113.828 57.4277 113.838 57.4187 113.845 57.408C113.853 57.3974 113.858 57.3853 113.861 57.3725C113.863 57.3598 113.863 57.3466 113.861 57.3338C113.856 57.3067 113.841 57.2824 113.819 57.2657C113.797 57.2491 113.77 57.2414 113.743 57.2441C113.315 57.2959 112.882 57.252 112.474 57.1157C112.066 56.9794 111.693 56.754 111.383 56.4559C111.373 56.4465 111.362 56.439 111.35 56.4339C111.338 56.4288 111.325 56.4261 111.312 56.4261C111.299 56.4261 111.286 56.4288 111.273 56.4339C111.261 56.439 111.25 56.4465 111.241 56.4559C111.223 56.4751 111.213 56.5004 111.213 56.5267C111.213 56.553 111.223 56.5783 111.241 56.5975C111.772 57.1107 112.472 57.4128 113.209 57.4471Z" fill="#263238"/>
<path id="Vector_236" d="M103.883 56.5314C104.11 56.8559 104.402 57.1297 104.741 57.3352C105.08 57.5408 105.458 57.6737 105.851 57.7256C106.833 57.8058 107.045 56.6636 106.545 55.6488C106.096 54.7378 105.044 53.5908 104.185 53.9873C103.326 54.3838 103.245 55.696 103.883 56.5314Z" fill="#FFB573"/>
<path id="Vector_237" d="M110 50.6786C110.026 50.6787 110.052 50.6727 110.076 50.6613C110.099 50.6498 110.12 50.6332 110.137 50.6126C110.288 50.4181 110.486 50.2643 110.711 50.1646C110.937 50.065 111.184 50.0227 111.43 50.0414C111.455 50.0454 111.481 50.0441 111.506 50.0376C111.531 50.0311 111.555 50.0195 111.575 50.0036C111.596 49.9876 111.612 49.9677 111.625 49.945C111.637 49.9223 111.645 49.8973 111.647 49.8715C111.649 49.8173 111.632 49.7642 111.598 49.7217C111.564 49.6793 111.516 49.6504 111.463 49.6402C111.152 49.6127 110.84 49.6626 110.553 49.7853C110.266 49.908 110.015 50.0998 109.82 50.3435C109.797 50.3757 109.784 50.4137 109.782 50.4531C109.779 50.4924 109.788 50.5318 109.806 50.5666C109.825 50.6014 109.853 50.6303 109.887 50.6501C109.921 50.6699 109.96 50.6798 110 50.6786Z" fill="#263238"/>
<path id="Vector_238" d="M116.235 50.504C116.26 50.5068 116.286 50.5045 116.31 50.4972C116.334 50.4899 116.357 50.4778 116.376 50.4615C116.395 50.4431 116.41 50.421 116.42 50.3967C116.431 50.3724 116.436 50.3463 116.436 50.3199C116.436 50.2936 116.431 50.2674 116.42 50.2431C116.41 50.2188 116.395 50.1968 116.376 50.1783C116.172 49.9222 115.912 49.7165 115.616 49.5774C115.319 49.4382 114.995 49.3693 114.668 49.3759C114.642 49.378 114.616 49.3857 114.593 49.3984C114.57 49.4111 114.551 49.4285 114.535 49.4495C114.519 49.4705 114.508 49.4945 114.503 49.5201C114.497 49.5457 114.497 49.5722 114.503 49.5978C114.511 49.6511 114.538 49.6995 114.58 49.7336C114.622 49.7676 114.675 49.7848 114.729 49.7818C114.989 49.7791 115.245 49.8359 115.479 49.948C115.713 50.0601 115.919 50.2245 116.079 50.4285C116.098 50.4518 116.121 50.4706 116.148 50.4837C116.175 50.4967 116.205 50.5037 116.235 50.504Z" fill="#263238"/>
<path id="Vector_239" d="M112.605 55.4175C111.609 55.4175 110.745 54.3602 110.651 53.0056C110.594 52.3675 110.741 51.7279 111.071 51.1789C111.201 50.9462 111.385 50.7481 111.608 50.6011C111.831 50.4541 112.085 50.3626 112.35 50.334C113.393 50.2632 114.309 51.3441 114.408 52.746C114.507 54.1478 113.738 55.342 112.704 55.4128L112.605 55.4175ZM112.449 50.504H112.364C112.122 50.5318 111.889 50.6169 111.685 50.7523C111.482 50.8877 111.313 51.0695 111.194 51.2828C110.88 51.8049 110.742 52.4133 110.797 53.0197C110.887 54.3366 111.741 55.3514 112.685 55.29C113.629 55.2287 114.342 54.0959 114.252 52.779C114.163 51.4621 113.37 50.504 112.449 50.504Z" fill="white"/>
<path id="Vector_240" d="M117.018 55.1626C116.022 55.1626 115.154 54.1101 115.059 52.7554C115.005 52.1176 115.152 51.4786 115.48 50.9288C115.611 50.696 115.796 50.4979 116.019 50.351C116.243 50.204 116.498 50.1125 116.763 50.0839C117.797 50.0131 118.722 51.094 118.817 52.4911C118.871 53.129 118.725 53.768 118.397 54.3178C118.266 54.5511 118.081 54.7495 117.857 54.8966C117.634 55.0436 117.379 55.1348 117.113 55.1626H117.018ZM116.863 50.2302H116.773C116.53 50.2581 116.297 50.3432 116.094 50.4786C115.89 50.614 115.722 50.7958 115.602 51.009C115.293 51.5329 115.155 52.1399 115.206 52.746C115.295 54.0204 116.098 55.0163 117.018 55.0163H117.103C117.346 54.9896 117.58 54.9049 117.783 54.7694C117.987 54.6339 118.155 54.4515 118.274 54.2375C118.585 53.7161 118.723 53.11 118.67 52.5053C118.581 51.2262 117.778 50.2302 116.863 50.2302Z" fill="white"/>
<path id="Vector_241" d="M115.168 52.9489C115.155 52.9482 115.143 52.9444 115.133 52.9378C115.122 52.9312 115.113 52.9221 115.107 52.9112C114.927 52.628 114.403 52.9348 114.399 52.9348C114.391 52.9399 114.382 52.9433 114.372 52.9449C114.363 52.9465 114.353 52.9462 114.344 52.944C114.335 52.9418 114.326 52.9378 114.318 52.9321C114.311 52.9265 114.304 52.9193 114.3 52.9112C114.288 52.8974 114.281 52.8798 114.281 52.8616C114.281 52.8434 114.288 52.8258 114.3 52.812C114.328 52.812 114.951 52.425 115.206 52.812C115.212 52.8198 115.216 52.8288 115.218 52.8383C115.22 52.8478 115.22 52.8577 115.217 52.8672C115.215 52.8766 115.211 52.8855 115.205 52.8931C115.199 52.9007 115.191 52.9069 115.182 52.9112C115.182 52.9181 115.181 52.925 115.179 52.9315C115.176 52.9379 115.173 52.9439 115.168 52.9489Z" fill="white"/>
<path id="Vector_242" d="M111.51 52.6421L112.27 52.307C112.27 52.307 111.982 53.0008 111.51 52.6421Z" fill="#263238"/>
</g>
</g>
</svg>
