<svg width="24" height="24" viewBox="0 0 24 24" fill="none" xmlns="http://www.w3.org/2000/svg">
<g id="log-out-svgrepo-com 1">
<g id="log-out-Regular">
<path id="log-out-Regular_2" d="M12.75 21C12.75 21.1989 12.671 21.3897 12.5303 21.5303C12.3897 21.671 12.1989 21.75 12 21.75H8C6.74071 21.7484 5.53345 21.2475 4.643 20.357C3.75254 19.4666 3.25159 18.2593 3.25 17V7C3.25159 5.74071 3.75254 4.53345 4.643 3.643C5.53345 2.75254 6.74071 2.25159 8 2.25H12C12.1989 2.25 12.3897 2.32902 12.5303 2.46967C12.671 2.61032 12.75 2.80109 12.75 3C12.75 3.19891 12.671 3.38968 12.5303 3.53033C12.3897 3.67098 12.1989 3.75 12 3.75H8C7.13837 3.75106 6.31234 4.09381 5.70307 4.70307C5.09381 5.31234 4.75106 6.13837 4.75 7V17C4.75106 17.8616 5.09381 18.6877 5.70307 19.2969C6.31234 19.9062 7.13837 20.2489 8 20.25H12C12.1989 20.25 12.3897 20.329 12.5303 20.4697C12.671 20.6103 12.75 20.8011 12.75 21ZM20.53 11.47L16.53 7.47C16.4608 7.3984 16.378 7.3413 16.2865 7.30204C16.195 7.26278 16.0965 7.24214 15.9969 7.24132C15.8974 7.2405 15.7986 7.25952 15.7065 7.29728C15.6143 7.33503 15.5306 7.39076 15.4602 7.46121C15.3898 7.53166 15.3342 7.61543 15.2965 7.70762C15.2588 7.79981 15.2399 7.89858 15.2408 7.99816C15.2417 8.09774 15.2625 8.19615 15.3018 8.28763C15.3412 8.37912 15.3983 8.46185 15.47 8.531L18.189 11.25H10C9.80109 11.25 9.61032 11.329 9.46967 11.4697C9.32902 11.6103 9.25 11.8011 9.25 12C9.25 12.1989 9.32902 12.3897 9.46967 12.5303C9.61032 12.671 9.80109 12.75 10 12.75H18.189L15.47 15.47C15.3333 15.6114 15.2576 15.8008 15.2592 15.9975C15.2609 16.1941 15.3396 16.3822 15.4786 16.5214C15.6176 16.6605 15.8057 16.7395 16.0023 16.7413C16.199 16.7431 16.3885 16.6676 16.53 16.531L20.53 12.531C20.5997 12.4613 20.655 12.3786 20.6927 12.2876C20.7304 12.1966 20.7498 12.099 20.7498 12.0005C20.7498 11.902 20.7304 11.8044 20.6927 11.7134C20.655 11.6224 20.5997 11.5397 20.53 11.47Z" fill="#DE4F4A"/>
</g>
</g>
</svg>
