<svg width="25" height="25" viewBox="0 0 25 25" fill="none" xmlns="http://www.w3.org/2000/svg">
<g id="more_horiz_FILL0_wght400_GRAD0_opsz24 1">
<path id="Vector" d="M6.5 14.5C5.95 14.5 5.47917 14.3042 5.0875 13.9125C4.69583 13.5208 4.5 13.05 4.5 12.5C4.5 11.95 4.69583 11.4792 5.0875 11.0875C5.47917 10.6958 5.95 10.5 6.5 10.5C7.05 10.5 7.52083 10.6958 7.9125 11.0875C8.30417 11.4792 8.5 11.95 8.5 12.5C8.5 13.05 8.30417 13.5208 7.9125 13.9125C7.52083 14.3042 7.05 14.5 6.5 14.5ZM12.5 14.5C11.95 14.5 11.4792 14.3042 11.0875 13.9125C10.6958 13.5208 10.5 13.05 10.5 12.5C10.5 11.95 10.6958 11.4792 11.0875 11.0875C11.4792 10.6958 11.95 10.5 12.5 10.5C13.05 10.5 13.5208 10.6958 13.9125 11.0875C14.3042 11.4792 14.5 11.95 14.5 12.5C14.5 13.05 14.3042 13.5208 13.9125 13.9125C13.5208 14.3042 13.05 14.5 12.5 14.5ZM18.5 14.5C17.95 14.5 17.4792 14.3042 17.0875 13.9125C16.6958 13.5208 16.5 13.05 16.5 12.5C16.5 11.95 16.6958 11.4792 17.0875 11.0875C17.4792 10.6958 17.95 10.5 18.5 10.5C19.05 10.5 19.5208 10.6958 19.9125 11.0875C20.3042 11.4792 20.5 11.95 20.5 12.5C20.5 13.05 20.3042 13.5208 19.9125 13.9125C19.5208 14.3042 19.05 14.5 18.5 14.5Z" fill="#0F4C81"/>
</g>
</svg>
