<svg width="41" height="40" viewBox="0 0 41 40" fill="none" xmlns="http://www.w3.org/2000/svg">
<g id="people-team-svgrepo-com 1">
<g id="&#240;&#159;&#148;&#141;-Product-Icons">
<g id="ic_fluent_people_team_28_regular">
<path id="&#240;&#159;&#142;&#168;-Color" d="M25.1486 15.7143C26.9238 15.7143 28.3629 17.1534 28.3629 18.9286V27.8556C28.3629 32.1958 24.8444 35.7143 20.5042 35.7143C16.164 35.7143 12.6456 32.1958 12.6456 27.8556V18.9286C12.6456 17.1534 14.0847 15.7143 15.8599 15.7143H25.1486ZM25.1486 17.8571H15.8599C15.2681 17.8571 14.7884 18.3368 14.7884 18.9286V27.8556C14.7884 31.0124 17.3475 33.5714 20.5042 33.5714C23.661 33.5714 26.22 31.0124 26.22 27.8556V18.9286C26.22 18.3368 25.7403 17.8571 25.1486 17.8571ZM6.5714 15.7143L12.5092 15.7147C11.9454 16.3023 11.5346 17.038 11.3411 17.8576L6.5714 17.8571C5.97967 17.8571 5.49997 18.3368 5.49997 18.9286V26.4268C5.49997 28.7947 7.41955 30.7143 9.78746 30.7143C10.4173 30.7143 11.0154 30.5785 11.5541 30.3346C11.7447 31.0337 12.0176 31.6998 12.3598 32.3225C11.5726 32.6661 10.7024 32.8571 9.78746 32.8571C6.23608 32.8571 3.35712 29.9782 3.35712 26.4268V18.9286C3.35712 17.1534 4.7962 15.7143 6.5714 15.7143ZM34.4285 15.7143C36.2037 15.7143 37.6428 17.1534 37.6428 18.9286V26.4286C37.6428 29.979 34.7647 32.8571 31.2143 32.8571C30.3013 32.8571 29.4328 32.6668 28.6462 32.3237L28.7258 32.1791C29.0316 31.5988 29.2778 30.9821 29.4562 30.3374C29.9911 30.5795 30.5869 30.7143 31.2143 30.7143C33.5812 30.7143 35.5 28.7955 35.5 26.4286V18.9286C35.5 18.3368 35.0203 17.8571 34.4285 17.8571L29.6673 17.8576C29.4738 17.038 29.0631 16.3023 28.4993 15.7147L34.4285 15.7143ZM20.5 4.28571C23.2614 4.28571 25.5 6.52428 25.5 9.28571C25.5 12.0471 23.2614 14.2857 20.5 14.2857C17.7385 14.2857 15.5 12.0471 15.5 9.28571C15.5 6.52428 17.7385 4.28571 20.5 4.28571ZM31.9328 5.71428C34.2997 5.71428 36.2185 7.63306 36.2185 9.99999C36.2185 12.3669 34.2997 14.2857 31.9328 14.2857C29.5659 14.2857 27.6471 12.3669 27.6471 9.99999C27.6471 7.63306 29.5659 5.71428 31.9328 5.71428ZM9.06714 5.71428C11.4341 5.71428 13.3529 7.63306 13.3529 9.99999C13.3529 12.3669 11.4341 14.2857 9.06714 14.2857C6.7002 14.2857 4.78142 12.3669 4.78142 9.99999C4.78142 7.63306 6.7002 5.71428 9.06714 5.71428ZM20.5 6.42856C18.922 6.42856 17.6428 7.70775 17.6428 9.28571C17.6428 10.8637 18.922 12.1428 20.5 12.1428C22.0779 12.1428 23.3571 10.8637 23.3571 9.28571C23.3571 7.70775 22.0779 6.42856 20.5 6.42856ZM31.9328 7.85713C30.7493 7.85713 29.79 8.81652 29.79 9.99999C29.79 11.1835 30.7493 12.1428 31.9328 12.1428C33.1163 12.1428 34.0757 11.1835 34.0757 9.99999C34.0757 8.81652 33.1163 7.85713 31.9328 7.85713ZM9.06714 7.85713C7.88367 7.85713 6.92428 8.81652 6.92428 9.99999C6.92428 11.1835 7.88367 12.1428 9.06714 12.1428C10.2506 12.1428 11.21 11.1835 11.21 9.99999C11.21 8.81652 10.2506 7.85713 9.06714 7.85713Z" fill="#228B22"/>
</g>
</g>
</g>
</svg>
