<svg width="100" height="99" viewBox="0 0 100 99" fill="none" xmlns="http://www.w3.org/2000/svg">
<g id="physics-svgrepo-com 1" clip-path="url(#clip0_638_18858)">
<g id="Group">
<g id="Group_2">
<g id="Group_3">
<path id="Vector" d="M73.4117 88.1683C69.9645 88.1683 66.0791 87.4447 61.8675 85.9888C52.1481 82.6295 41.7189 75.7353 32.4995 66.5746C23.2802 57.4138 16.342 47.051 12.9612 37.3934C9.45052 27.3636 10.1741 19.2009 14.999 14.4067C19.8223 9.61402 28.0372 8.89199 38.1327 12.3818C47.8521 15.7411 58.2813 22.6353 67.5007 31.7961C76.7201 40.9568 83.6582 51.3198 87.0391 60.9774C90.5497 71.0072 89.8261 79.1697 85.0013 83.9641C82.1898 86.7575 78.2275 88.1683 73.4117 88.1683ZM26.5855 13.2676C22.614 13.2676 19.4039 14.3767 17.1864 16.5803C13.2452 20.4949 12.7831 27.5286 15.8828 36.3832C19.114 45.6114 25.7909 55.5616 34.687 64.4012C43.5831 73.2407 53.597 79.8752 62.8842 83.0859C71.7969 86.1644 78.8725 85.7052 82.8138 81.7905C86.755 77.8759 87.2171 70.8422 84.1174 61.9876C80.8862 52.7594 74.2093 42.8092 65.3132 33.9696C56.4171 25.1301 46.4032 18.4956 37.116 15.2849C33.2186 13.9385 29.6717 13.2676 26.5855 13.2676Z" fill="white"/>
</g>
</g>
<g id="Group_4">
<g id="Group_5">
<path id="Vector_2" d="M26.5884 88.1683C21.7725 88.1683 17.8102 86.7573 14.999 83.9639C10.1741 79.1697 9.45052 71.0072 12.9612 60.9772C16.3419 51.3196 23.2802 40.9566 32.4995 31.7959C41.7189 22.6351 52.148 15.7412 61.8674 12.3818C71.9628 8.89199 80.1775 9.61402 85.0011 14.4067C89.826 19.2009 90.5495 27.3634 87.0389 37.3934C83.6582 47.051 76.7199 57.414 67.5005 66.5747C58.2811 75.7355 47.8519 82.6295 38.1325 85.989C33.9209 87.4449 30.0356 88.1683 26.5884 88.1683ZM73.4146 13.2676C70.3268 13.2676 66.7814 13.9385 62.884 15.2849C53.5968 18.4956 43.5829 25.1301 34.6868 33.9696C25.7907 42.8092 19.1139 52.7594 15.8826 61.9876C12.7829 70.8422 13.245 77.8759 17.1863 81.7905C21.1259 85.7083 28.2062 86.1646 37.1158 83.0859C46.4031 79.8752 56.4169 73.2407 65.313 64.4012C74.2091 55.5616 80.886 45.6114 84.1172 36.3832C87.217 27.5286 86.7548 20.4949 82.8136 16.5803C80.596 14.3767 77.386 13.2676 73.4146 13.2676Z" fill="#0F4C81" fill-opacity="0.8"/>
</g>
</g>
<g id="Group_6">
<g id="Group_7">
<path id="Vector_3" d="M50 98.3708C36.122 98.3708 25.25 76.7667 25.25 49.1854C25.25 21.6041 36.122 0 50 0C63.878 0 74.75 21.6041 74.75 49.1854C74.75 76.7667 63.878 98.3708 50 98.3708ZM50 3.07409C38.261 3.07409 28.3438 24.1904 28.3438 49.1854C28.3438 74.1804 38.261 95.2967 50 95.2967C61.739 95.2967 71.6562 74.1804 71.6562 49.1854C71.6562 24.1904 61.739 3.07409 50 3.07409Z" fill="#F2F2F2"/>
</g>
</g>
<g id="Group_8">
<path id="Vector_4" d="M49.979 59.9445C55.9474 59.9445 60.7858 55.1369 60.7858 49.2063C60.7858 43.2758 55.9474 38.4682 49.979 38.4682C44.0105 38.4682 39.1721 43.2758 39.1721 49.2063C39.1721 55.1369 44.0105 59.9445 49.979 59.9445Z" fill="#FF4F19"/>
</g>
<g id="Group_9">
<path id="Vector_5" d="M52.6509 50.2803C54.7399 50.2803 56.4334 48.5976 56.4334 46.5219C56.4334 44.4462 54.7399 42.7634 52.6509 42.7634C50.5619 42.7634 48.8684 44.4462 48.8684 46.5219C48.8684 48.5976 50.5619 50.2803 52.6509 50.2803Z" fill="#FF8C62"/>
</g>
<g id="Group_10">
<g id="Group_11">
<path id="Vector_6" d="M50 73.7781C22.2423 73.7781 0.5 62.9752 0.5 49.1854C0.5 35.3956 22.2423 24.5927 50 24.5927C77.7577 24.5927 99.5 35.3956 99.5 49.1854C99.5 62.9752 77.7577 73.7781 50 73.7781ZM50 27.6668C24.8451 27.6668 3.59375 37.521 3.59375 49.1854C3.59375 60.8498 24.8451 70.704 50 70.704C75.1549 70.704 96.4062 60.8498 96.4062 49.1854C96.4062 37.521 75.1549 27.6668 50 27.6668Z" fill="#E3001E"/>
</g>
</g>
</g>
</g>
<defs>
<clipPath id="clip0_638_18858">
<rect width="99" height="98.3708" fill="white" transform="translate(0.5)"/>
</clipPath>
</defs>
</svg>
