<svg width="24" height="25" viewBox="0 0 24 25" fill="none" xmlns="http://www.w3.org/2000/svg">
<g id="vuesax/linear/notification">
<g id="notification">
<path id="Vector" d="M12.0201 3.40997C8.71009 3.40997 6.02009 6.09997 6.02009 9.40997V12.3C6.02009 12.91 5.76009 13.84 5.45009 14.36L4.30009 16.27C3.59009 17.45 4.08009 18.76 5.38009 19.2C9.69009 20.64 14.3401 20.64 18.6501 19.2C19.8601 18.8 20.3901 17.37 19.7301 16.27L18.5801 14.36C18.2801 13.84 18.0201 12.91 18.0201 12.3V9.40997C18.0201 6.10997 15.3201 3.40997 12.0201 3.40997Z" stroke="#0F4C81" stroke-width="1.5" stroke-miterlimit="10" stroke-linecap="round"/>
<path id="Vector_2" d="M13.8699 3.7C13.5599 3.61 13.2399 3.54 12.9099 3.5C11.9499 3.38 11.0299 3.45 10.1699 3.7C10.4599 2.96 11.1799 2.44 12.0199 2.44C12.8599 2.44 13.5799 2.96 13.8699 3.7Z" stroke="#0F4C81" stroke-width="1.5" stroke-miterlimit="10" stroke-linecap="round" stroke-linejoin="round"/>
<path id="Vector_3" d="M15.02 19.56C15.02 21.21 13.67 22.56 12.02 22.56C11.2 22.56 10.44 22.22 9.90002 21.68C9.36002 21.14 9.02002 20.38 9.02002 19.56" stroke="#0F4C81" stroke-width="1.5" stroke-miterlimit="10"/>
</g>
</g>
</svg>
