<svg width="24" height="26" viewBox="0 0 24 26" fill="none" xmlns="http://www.w3.org/2000/svg">
<g id="vuesax/linear/sun">
<g id="sun">
<path id="Vector" d="M12 19.7709C15.5899 19.7709 18.5 16.7394 18.5 13C18.5 9.26059 15.5899 6.22919 12 6.22919C8.41015 6.22919 5.5 9.26059 5.5 13C5.5 16.7394 8.41015 19.7709 12 19.7709Z" stroke="white" stroke-width="1.5" stroke-linecap="round" stroke-linejoin="round"/>
<path id="Vector_2" d="M19.14 20.4375L19.01 20.3021M19.01 5.6979L19.14 5.56248L19.01 5.6979ZM4.86 20.4375L4.99 20.3021L4.86 20.4375ZM12 2.66665V2.58331V2.66665ZM12 23.4166V23.3333V23.4166ZM2.08 13H2H2.08ZM22 13H21.92H22ZM4.99 5.6979L4.86 5.56248L4.99 5.6979Z" stroke="white" stroke-width="2" stroke-linecap="round" stroke-linejoin="round"/>
</g>
</g>
</svg>
